<svg xmlns="http://www.w3.org/2000/svg" width="17.5" height="17.5" viewBox="0 0 17.5 17.5"><defs><style>.a{fill:#49545b;}</style></defs><g transform="translate(0)"><path class="a" d="M39.375,30.937h0a4.369,4.369,0,0,0,4.375-4.375V24.375A4.369,4.369,0,0,0,39.375,20h0A4.369,4.369,0,0,0,35,24.375v2.187A4.369,4.369,0,0,0,39.375,30.937Zm-3.267-6.562a3.364,3.364,0,0,1,.963-2.333,3.261,3.261,0,0,1,2.333-.962,3.312,3.312,0,0,1,2.333.962,3.261,3.261,0,0,1,.963,2.333v2.187a3.364,3.364,0,0,1-.963,2.333,3.261,3.261,0,0,1-2.333.962,3.312,3.312,0,0,1-2.333-.962,3.261,3.261,0,0,1-.963-2.333Z" transform="translate(-30.625 -20)"/><path class="a" d="M30.938,61v3.354L26.417,61C21.663,61.642,20,64.121,20,64.121v1.312a1.108,1.108,0,0,0,1.108,1.108H36.742a.772.772,0,0,0,.758-.758V64.15S35.808,61.612,30.938,61Z" transform="translate(-20 -49.042)"/></g></svg>