<svg xmlns="http://www.w3.org/2000/svg" width="58.692" height="54" viewBox="0 0 58.692 54"><defs><style>.a{fill:#fff;fill-rule:evenodd;}</style></defs><path class="a" d="M58.356,52.041,51.412,45.1a12.057,12.057,0,0,0-8.151-19.679V7.557A1.147,1.147,0,0,0,42.114,6.41h-11.1V4.743A4.751,4.751,0,0,0,26.267,0H16.994a4.751,4.751,0,0,0-4.747,4.744V6.41H1.146A1.147,1.147,0,0,0,0,7.557v25.28a1.147,1.147,0,0,0,2.294,0V21.692A7.181,7.181,0,0,0,7.21,23.635h7.4v.487a3.242,3.242,0,0,0,3.24,3.237h7.564a3.24,3.24,0,0,0,3.236-3.237v-.487h7.4a7.182,7.182,0,0,0,4.916-1.943v3.726A12.079,12.079,0,0,0,30.111,36.274H5.731a1.147,1.147,0,0,0,0,2.294H30.111a11.958,11.958,0,0,0,.725,3.123,1.147,1.147,0,1,0,2.145-.814,9.753,9.753,0,1,1,5.673,5.677,1.147,1.147,0,0,0-.812,2.146A12.07,12.07,0,0,0,49.79,46.719l6.944,6.944a1.147,1.147,0,1,0,1.622-1.622ZM14.54,4.743a2.455,2.455,0,0,1,2.453-2.45h9.274a2.454,2.454,0,0,1,2.453,2.45V6.41H14.54ZM26.355,24.122a.943.943,0,0,1-.943.943H17.848a.945.945,0,0,1-.945-.943V20.857a.958.958,0,0,1,.945-.946h7.564a.945.945,0,0,1,.943.946Zm9.7-2.781h-7.4v-.484a3.242,3.242,0,0,0-3.236-3.24H17.848a3.243,3.243,0,0,0-3.24,3.24v.484H7.21a4.922,4.922,0,0,1-4.916-4.916V8.7H40.966v7.72a4.921,4.921,0,0,1-4.916,4.916Zm0,0" transform="translate(0 0.001)"/></svg>