<svg xmlns="http://www.w3.org/2000/svg" width="18" height="15.3" viewBox="0 0 18 15.3"><defs><style>.a{fill:#49545b;}.b,.c{stroke:none;}</style></defs><g class="a" transform="translate(0 -4.5)"><path class="b" d="M17.1,7.2h-.6V6.3h-3v.9H12.3V5.462a.963.963,0,0,0-.962-.962H6.662a.963.963,0,0,0-.962.962V7.2H4.5V6.3h-3v.9H.9a.9.9,0,0,0-.9.9V18.9a.9.9,0,0,0,.9.9H17.1a.9.9,0,0,0,.9-.9V8.1A.9.9,0,0,0,17.1,7.2Zm-3-.3h1.8v.3H14.1ZM6.3,5.462A.362.362,0,0,1,6.662,5.1h4.676a.362.362,0,0,1,.362.362V7.2H6.3ZM5.7,7.8H15V19.2H3V7.8H5.7ZM2.1,6.9H3.9v.3H2.1ZM.6,18.9V8.1a.3.3,0,0,1,.3-.3H2.4V19.2H.9A.3.3,0,0,1,.6,18.9Zm16.8,0a.3.3,0,0,1-.3.3H15.6V7.8h1.5a.3.3,0,0,1,.3.3Z"/><path class="c" d="M 6.661801338195801 4.5 L 11.33820152282715 4.5 C 11.86860084533691 4.5 12.30000114440918 4.931400299072266 12.30000114440918 5.461799621582031 L 12.30000114440918 7.200000762939453 L 13.50000095367432 7.200000762939453 L 13.50000095367432 6.30000114440918 L 16.5 6.30000114440918 L 16.5 7.200000762939453 L 17.09700012207031 7.200000762939453 C 17.59470176696777 7.200000762939453 18 7.605300903320313 18 8.103000640869141 L 18 18.89700126647949 C 18 19.39470100402832 17.59470176696777 19.80000114440918 17.09700012207031 19.80000114440918 L 0.9030017852783203 19.80000114440918 C 0.4053001403808594 19.80000114440918 1.9073486328125e-06 19.39470100402832 1.9073486328125e-06 18.89700126647949 L 1.9073486328125e-06 8.103000640869141 C 1.9073486328125e-06 7.605300903320313 0.4053001403808594 7.200000762939453 0.9030017852783203 7.200000762939453 L 1.500001907348633 7.200000762939453 L 1.500001907348633 6.30000114440918 L 4.500000953674316 6.30000114440918 L 4.500000953674316 7.200000762939453 L 5.700000762939453 7.200000762939453 L 5.700000762939453 5.461799621582031 C 5.700000762939453 4.931400299072266 6.131401062011719 4.5 6.661801338195801 4.5 Z M 11.70000076293945 7.200000762939453 L 11.70000076293945 5.461799621582031 C 11.70000076293945 5.262300491333008 11.53770065307617 5.100000381469727 11.33820152282715 5.100000381469727 L 6.661801338195801 5.100000381469727 C 6.462301254272461 5.100000381469727 6.30000114440918 5.262300491333008 6.30000114440918 5.461799621582031 L 6.30000114440918 7.200000762939453 L 11.70000076293945 7.200000762939453 Z M 3.90000057220459 7.200000762939453 L 3.90000057220459 6.899999618530273 L 2.100001335144043 6.899999618530273 L 2.100001335144043 7.200000762939453 L 3.90000057220459 7.200000762939453 Z M 15.90000152587891 7.200000762939453 L 15.90000152587891 6.899999618530273 L 14.10000038146973 6.899999618530273 L 14.10000038146973 7.200000762939453 L 15.90000152587891 7.200000762939453 Z M 2.40000057220459 19.20000076293945 L 2.40000057220459 7.80000114440918 L 1.500001907348633 7.80000114440918 L 0.9030017852783203 7.80000114440918 C 0.73590087890625 7.80000114440918 0.6000003814697266 7.93589973449707 0.6000003814697266 8.103000640869141 L 0.6000003814697266 18.89700126647949 C 0.6000003814697266 19.06410026550293 0.73590087890625 19.20000076293945 0.9030017852783203 19.20000076293945 L 2.40000057220459 19.20000076293945 Z M 15.00000095367432 19.20000076293945 L 15.00000095367432 7.80000114440918 L 13.50000095367432 7.80000114440918 L 12.30000114440918 7.80000114440918 L 5.700000762939453 7.80000114440918 L 4.500000953674316 7.80000114440918 L 3.000000953674316 7.80000114440918 L 3.000000953674316 19.20000076293945 L 15.00000095367432 19.20000076293945 Z M 17.09700012207031 19.20000076293945 C 17.26410102844238 19.20000076293945 17.40000152587891 19.06410026550293 17.40000152587891 18.89700126647949 L 17.40000152587891 8.103000640869141 C 17.40000152587891 7.93589973449707 17.26410102844238 7.80000114440918 17.09700012207031 7.80000114440918 L 16.5 7.80000114440918 L 15.60000038146973 7.80000114440918 L 15.60000038146973 19.20000076293945 L 17.09700012207031 19.20000076293945 Z"/></g></svg>