<svg xmlns="http://www.w3.org/2000/svg" xmlns:xlink="http://www.w3.org/1999/xlink" width="16" height="16" viewBox="0 0 16 16"><defs><style>.a{fill:none;}.b{opacity:0.5;clip-path:url(#a);}.c{fill:#49545b;}</style><clipPath id="a"><rect class="a" width="16" height="16"/></clipPath></defs><g class="b"><rect class="a" width="16" height="16"/><path class="c" d="M58.778-31.4H56v3h2.778ZM58.222-38v1.2H53.778V-38H52.667v1.2h-.556a1.153,1.153,0,0,0-1.106,1.2L51-27.2A1.158,1.158,0,0,0,52.111-26h7.778A1.162,1.162,0,0,0,61-27.2v-8.4a1.162,1.162,0,0,0-1.111-1.2h-.556V-38Zm1.667,10.8H52.111v-6.6h7.778Z" transform="translate(-48 40)"/></g></svg>