<svg xmlns="http://www.w3.org/2000/svg" width="32.032" height="42.974" viewBox="0 0 32.032 42.974"><defs><style>.a{fill:#9fa4e5;}</style></defs><g transform="translate(-150.6 -947.026)"><path class="a" d="M32.011,37.457,29.6,10.579H24.19V8.319a8.137,8.137,0,0,0-2.574-6.227A8.289,8.289,0,0,0,16.015,0a8.289,8.289,0,0,0-5.6,2.091A8.137,8.137,0,0,0,7.84,8.319v2.26H2.433L.019,37.457a5.065,5.065,0,0,0,5.045,5.518h21.9a5.064,5.064,0,0,0,5.044-5.518ZM10.358,8.319a5.427,5.427,0,0,1,5.657-5.8,5.427,5.427,0,0,1,5.657,5.8v2.26H10.358Zm18.488,31.31a2.518,2.518,0,0,1-1.879.828H5.064a2.546,2.546,0,0,1-2.536-2.774L4.736,13.1h3.1v3h2.518v-3H21.672v3H24.19v-3h3.1L29.5,37.682a2.519,2.519,0,0,1-.657,1.946Zm0,0" transform="translate(150.601 947.025)"/><path class="a" d="M9,5V7h6.59L4,18.59,5.41,20,17,8.41V15h2V5Z" transform="translate(154 963)"/></g></svg>