<svg xmlns="http://www.w3.org/2000/svg" width="18.606" height="17.514" viewBox="0 0 18.606 17.514"><defs><style>.a,.b{fill:#fff;}.a{stroke:#fff;}</style></defs><g transform="translate(1.5 -0.269)"><path class="a" d="M16.615,28.664a.448.448,0,0,0-.448.448v3.981a1.347,1.347,0,0,1-1.345,1.345H2.242A1.347,1.347,0,0,1,.9,33.093V21.41a1.347,1.347,0,0,1,1.345-1.345H6.223a.448.448,0,1,0,0-.9H2.242A2.244,2.244,0,0,0,0,21.41V33.093a2.244,2.244,0,0,0,2.242,2.242h12.58a2.244,2.244,0,0,0,2.242-2.242V29.112A.448.448,0,0,0,16.615,28.664Zm0,0" transform="translate(-1 -18.052)"/><path class="b" d="M156.367,38.875l6.546-6.547,2.111,2.111-6.546,6.547Zm0,0" transform="translate(-149.356 -30.622)"/><path class="b" d="M132.543,199.552l2.333-.646-1.687-1.687Zm0,0" transform="translate(-126.601 -188.12)"/><path class="b" d="M318.588.6A1.122,1.122,0,0,0,317,.6l-.475.475,2.111,2.111.475-.475a1.122,1.122,0,0,0,0-1.585Zm0,0" transform="translate(-302.336)"/></g></svg>