<svg xmlns="http://www.w3.org/2000/svg" width="20.28" height="12.35" viewBox="0 0 20.28 12.35"><defs><style>.a{fill:none;}.b,.c{stroke:none;}.c{fill:#49545b;}</style></defs><g class="a" transform="translate(-1.84 -3.57)"><path class="b" d="M22.07,9.64a1.5,1.5,0,0,0-1.84-1.06L14.92,10,8.02,3.57l-1.93.51,4.14,7.17L5.26,12.58,3.29,11.04l-1.45.39,1.82,3.16.77,1.33,1.6-.43,5.31-1.42,4.35-1.16L21,11.49a1.522,1.522,0,0,0,1.07-1.85Z"/><path class="c" d="M 7.741960525512695 4.677791595458984 L 7.610025405883789 4.712655067443848 L 11.09600067138672 10.74995994567871 L 11.74791049957275 11.87899017333984 L 10.48851013183594 12.21601009368896 L 5.518510818481445 13.54601001739502 L 5.036899566650391 13.67489051818848 L 4.644121170043945 13.36783981323242 L 3.672760009765625 12.6085033416748 L 4.525430679321289 14.08895969390869 L 4.911153793334961 14.75520896911621 L 5.771659851074219 14.52395057678223 L 11.08234024047852 13.10376930236816 L 15.43166065216064 11.94394969940186 L 20.73230171203613 10.52645301818848 C 21.01202201843262 10.44408226013184 21.17454719543457 10.16735649108887 21.10276985168457 9.893899917602539 C 21.04689979553223 9.681050300598145 20.84567070007324 9.526559829711914 20.62430953979492 9.526559829711914 C 20.58118057250977 9.526559829711914 20.53774070739746 9.532500267028809 20.49518013000488 9.54419994354248 L 20.49176025390625 9.545140266418457 L 20.48834037780762 9.546050071716309 L 15.17833995819092 10.96605014801025 L 14.64337062835693 11.10910987854004 L 14.23825073242188 10.73157978057861 L 7.741960525512695 4.677791595458984 M 8.020000457763672 3.569999694824219 L 14.92000007629395 10 L 20.22999954223633 8.579999923706055 C 20.36159133911133 8.543811798095703 20.49398803710938 8.526564598083496 20.62430953979492 8.526564598083496 C 21.28627014160156 8.526568412780762 21.8945426940918 8.971591949462891 22.06999969482422 9.640000343322754 C 22.28000068664551 10.4399995803833 21.81000137329102 11.26000022888184 21 11.48999977111816 L 15.69000053405762 12.90999984741211 L 11.34000015258789 14.06999969482422 L 6.030000686645508 15.48999977111816 L 4.430000305175781 15.92000007629395 L 3.659999847412109 14.59000015258789 L 1.840000152587891 11.43000030517578 L 3.290000915527344 11.03999996185303 L 5.260000228881836 12.57999992370605 L 10.23000049591064 11.25 L 6.090000152587891 4.079999923706055 L 8.020000457763672 3.569999694824219 Z"/></g></svg>