<svg xmlns="http://www.w3.org/2000/svg" width="31.796" height="31.067" viewBox="0 0 31.796 31.067"><defs><style>.a{fill:#49545b;}</style></defs><g transform="translate(0)"><path class="a" d="M155.014,32.522a2.837,2.837,0,0,0-1.838-.394,7.32,7.32,0,0,0-3.282,1.379q-1.28.985-2.954,2.363l-1.576,1.379c-.328.328-.656.591-.985.919a1.143,1.143,0,0,1-.985.328c-.2-.066-.46-.131-.722-.2L130.4,33.7c-.394-.131-.788-.263-1.247-.394a2.068,2.068,0,0,0-1.969.328,5.866,5.866,0,0,0-1.707,1.9,1.552,1.552,0,0,0,.328,2.1,4.787,4.787,0,0,0,.722.591c2.232,1.575,4.53,3.085,6.761,4.661a10.428,10.428,0,0,1,2.232,1.838c.131.2.263.328.394.525l-4.267,4.07c-.46.46-.919.853-1.379,1.313-.066,0-.131-.066-.2-.066l-.722-.328c-.591-.263-1.116-.591-1.707-.853a1.893,1.893,0,0,0-2.1.263,12.6,12.6,0,0,0-.985.919,1.371,1.371,0,0,0-.131,1.969,2.855,2.855,0,0,0,.394.46l1.247,1.575c1.444,1.9,2.954,3.807,4.464,5.646a2.159,2.159,0,0,0,2.1.853,2.463,2.463,0,0,0,1.641-1.575,3.055,3.055,0,0,0,.066-2.166l-.131-.591-.394-1.575c1.772-1.379,3.545-2.691,5.252-4.07l.853-.656.2.328A10.138,10.138,0,0,1,141.229,53l3.02,7.746c.2.46.328.919.525,1.313a1.655,1.655,0,0,0,1.51,1.116,1.748,1.748,0,0,0,.788-.2,1.32,1.32,0,0,0,.525-.263,3.463,3.463,0,0,0,1.969-2.232,5.435,5.435,0,0,0,.066-2.035l-1.575-11.488c-.131-.919-.263-1.9-.394-2.823a.936.936,0,0,1,.394-.985l1.379-1.182c1.116-.919,2.166-1.838,3.282-2.757a10.662,10.662,0,0,0,2.035-2.3,6.893,6.893,0,0,0,.985-2.1A1.963,1.963,0,0,0,155.014,32.522Zm-.525,2.035a7.39,7.39,0,0,1-.853,1.772,8,8,0,0,1-1.772,1.969c-1.05.919-2.166,1.838-3.282,2.757l-1.313,1.116a2.244,2.244,0,0,0-.919,2.232c.131.919.263,1.838.394,2.823l1.575,11.488a3.639,3.639,0,0,1-.066,1.51,2.321,2.321,0,0,1-1.247,1.379,3.2,3.2,0,0,1-.46.2c-.394.131-.525.066-.656-.263-.2-.394-.328-.853-.525-1.313l-2.888-7.746a16.961,16.961,0,0,0-1.247-2.429l-.394-.656-.591-.853-2.035,1.51c-1.838,1.379-3.676,2.823-5.449,4.2a.826.826,0,0,0-.328.985c.131.591.328,1.182.46,1.772l.131.591a1.956,1.956,0,0,1-.066,1.379,1.388,1.388,0,0,1-.919.788.663.663,0,0,1-.328-.131.791.791,0,0,1-.328-.328c-1.51-1.9-2.954-3.742-4.4-5.646l-1.247-1.575a2.779,2.779,0,0,1-.328-.46.2.2,0,0,1-.066-.131l.131-.131a9.32,9.32,0,0,1,.853-.788.588.588,0,0,1,.722-.066c.591.263,1.116.525,1.707.853l.722.328.394.2a.9.9,0,0,0,1.05-.131c.525-.525,1.05-.985,1.576-1.51l4.53-4.267.525-.525-.328-.46c-.066-.131-.131-.2-.2-.328a6.874,6.874,0,0,0-.525-.722,10.879,10.879,0,0,0-2.495-2.1c-2.232-1.51-4.53-3.085-6.761-4.661a3.607,3.607,0,0,1-.591-.46c-.2-.2-.2-.263-.066-.394a5.443,5.443,0,0,1,1.444-1.575c.131-.131.328-.2.788-.066a12.391,12.391,0,0,1,1.182.394l12.276,4.6a6.735,6.735,0,0,0,.919.263,2.368,2.368,0,0,0,2.035-.591c.328-.328.656-.591.985-.919l1.575-1.379c1.116-.919,2.035-1.707,2.888-2.363a5.754,5.754,0,0,1,2.691-1.116,1.252,1.252,0,0,1,.853.131C154.489,33.77,154.621,34.163,154.489,34.557Z" transform="translate(-124.068 -32.112)"/></g></svg>