<svg xmlns="http://www.w3.org/2000/svg" width="21.7" height="13.478" viewBox="0 0 21.7 13.478"><defs><style>.a,.c{fill:#49545b;}.a{stroke-linejoin:bevel;}.b,.c{stroke:none;}</style></defs><g transform="translate(0 -28.615)"><g class="a" transform="translate(0 0)"><path class="b" d="M 21.69943618774414 40.73447418212891 L 21.44270133972168 40.47743988037109 L 21.72219657897949 40.47741317749023 L 21.70054817199707 40.23462295532227 L 22.19943618774414 40.23462295532227 L 21.69943618774414 40.73447418212891 Z M 10.84859466552734 40.27364349365234 L 10.65464305877686 40.05341720581055 L 10.74303722381592 39.70509338378906 L 10.81941318511963 39.40412521362305 L 10.90547752380371 39.74243545532227 L 10.99661827087402 40.10069274902344 L 10.84859466552734 40.27364349365234 Z"/><path class="c" d="M 16.50954627990723 42.09264373779297 L 5.189897060394287 42.09264373779297 L 5.189897060394287 41.83562469482422 C 5.189897060394287 41.36871337890625 5.267477035522461 40.91990280151367 5.401657104492188 40.49106597900391 L -2.942810169770382e-06 40.49106597900391 L -2.942810169770382e-06 40.23404312133789 C -2.942810169770382e-06 38.59555435180664 1.169717073440552 37.19855499267578 2.804057121276855 36.65679550170898 C 2.494027137756348 36.27694320678711 2.294476985931396 35.84910583496094 2.19318699836731 35.59151458740234 C 1.975687026977539 35.47328567504883 1.796817064285278 35.23422622680664 1.727857112884521 34.95709609985352 C 1.576147079467773 34.33760452270508 1.692377090454102 34.00445556640625 1.856867074966431 33.82343292236328 L 1.849687099456787 33.59931564331055 C 1.849687099456787 33.48409271240234 1.84710705280304 33.38180541992188 1.84408700466156 33.28512573242188 C 1.823537111282349 32.52671432495117 1.796817064285278 31.58369445800781 3.431297063827515 31.32667541503906 L 3.650387048721313 31.29277420043945 C 4.185107231140137 31.23875427246094 4.754307270050049 31.09897422790527 4.854587078094482 31.02182388305664 L 5.709106922149658 30.21557426452637 L 5.826907157897949 31.40742492675781 C 5.828347206115723 31.42236518859863 5.834086894989014 31.49275398254395 5.858227252960205 31.5822639465332 C 6.786296844482422 32.06396484375 6.752827167510986 33.17866516113281 6.740477085113525 33.60750579833984 L 6.740477085113525 33.85733413696289 C 7.037716865539551 34.1607551574707 6.899366855621338 34.71602630615234 6.836156845092773 34.97002410888672 C 6.764176845550537 35.25433349609375 6.593936920166016 35.4909553527832 6.36981725692749 35.62355422973633 C 6.239227294921875 35.97725296020508 6.038816928863525 36.34274291992188 5.780647277832031 36.65592575073242 C 6.475266933441162 36.88421630859375 7.085556983947754 37.26564407348633 7.558647155761719 37.75769424438477 C 7.998257160186768 37.47755432128906 8.483556747436523 37.25285339355469 9.004917144775391 37.09296417236328 C 8.53599739074707 36.55680465698242 8.245937347412109 35.92022323608398 8.107156753540039 35.56134414672852 C 7.824276924133301 35.42156600952148 7.588387012481689 35.11253356933594 7.498877048492432 34.75208282470703 C 7.297896862030029 33.9294548034668 7.4598069190979 33.50780487060547 7.675726890563965 33.29086303710938 L 7.665387153625488 32.95512390136719 C 7.665387153625488 32.81878280639648 7.662227153778076 32.69652557373047 7.658637046813965 32.5787239074707 C 7.628897190093994 31.50310516357422 7.597007274627686 30.33496475219727 9.707587242126465 30.00280380249023 L 10.00123691558838 29.95654487609863 C 10.75188732147217 29.88141441345215 11.53184700012207 29.68545532226563 11.65323734283447 29.57497406005859 L 12.67225742340088 28.61500549316406 L 12.81203746795654 30.03412437438965 C 12.81304740905762 30.0474853515625 12.8212366104126 30.16672515869141 12.86648750305176 30.31944465637207 C 13.96322727203369 30.86336517333984 14.05991744995117 32.08451461791992 14.0336275100708 32.96632385253906 L 14.0336275100708 33.34114456176758 C 14.42956733703613 33.70778274536133 14.24595737457275 34.44047546386719 14.16421699523926 34.77104568481445 C 14.07154750823975 35.13566589355469 13.84225749969482 35.44512557983398 13.55334663391113 35.60760498046875 C 13.36773681640625 36.11718368530273 13.07623672485352 36.65348434448242 12.69064712524414 37.09152603149414 C 13.21200752258301 37.25357437133789 13.6998872756958 37.47711563110352 14.13950729370117 37.75841522216797 C 14.61100673675537 37.26851272583008 15.21871662139893 36.8863639831543 15.91175746917725 36.65866470336914 C 15.60114669799805 36.27766418457031 15.40159702301025 35.85083389282227 15.30088710784912 35.59223556518555 C 15.08294677734375 35.47443389892578 14.90451717376709 35.23537445068359 14.83512687683105 34.95824432373047 C 14.68341732025146 34.33876419067383 14.80021667480469 34.00603485107422 14.96471691131592 33.8245849609375 L 14.9575366973877 33.59989547729492 C 14.9575366973877 33.48524475097656 14.95437717437744 33.38295364379883 14.95135688781738 33.28627395629883 C 14.93080711364746 32.52743530273438 14.90451717376709 31.58441543579102 16.53856658935547 31.32739448547363 L 16.75808715820313 31.29349517822266 C 17.29337692260742 31.23947525024414 17.86200714111328 31.09969520568848 17.96228790283203 31.02254486083984 L 18.81680679321289 30.21629524230957 L 18.93403625488281 31.40813446044922 C 18.93561744689941 31.42307472229004 18.94178771972656 31.49347496032715 18.96592712402344 31.58297538757324 C 19.89400672912598 32.0646858215332 19.86009788513184 33.17938613891602 19.84774780273438 33.60822296142578 L 19.84774780273438 33.85805511474609 C 20.14656639099121 34.16147613525391 20.00663757324219 34.71774291992188 19.94342613220215 34.97174453735352 C 19.87403678894043 35.25103378295898 19.69976615905762 35.49109649658203 19.47765731811523 35.62427520751953 C 19.34764671325684 35.97697448730469 19.14708709716797 36.34360504150391 18.88849639892578 36.65564346313477 C 20.52713775634766 37.19496536254883 21.69943618774414 38.59397506713867 21.69943618774414 40.23462295532227 L 21.69943618774414 40.23447418212891 L 21.70001792907715 40.23447418212891 L 21.70001792907715 40.49106597900391 L 16.29777717590332 40.49106597900391 C 16.43239784240723 40.91990280151367 16.50954627990723 41.36871337890625 16.50954627990723 41.83562469482422 L 16.50954627990723 42.09264373779297 Z M 15.98659706115723 41.57918548583984 C 15.96145725250244 41.20177459716797 15.87913703918457 40.83931350708008 15.75544738769531 40.49178314208984 C 15.72513675689697 40.40544509887695 15.6932373046875 40.31909561157227 15.65674686431885 40.23476409912109 L 15.64898681640625 40.23476409912109 C 15.64898681640625 40.23218536376953 15.64999675750732 40.22916412353516 15.6510066986084 40.22399520874023 C 15.61393737792969 40.14023590087891 15.57543659210205 40.05791473388672 15.533766746521 39.97775650024414 C 15.42271709442139 39.76383590698242 15.29097747802734 39.56241607666016 15.14501667022705 39.366455078125 C 14.88799667358398 39.02396392822266 14.58055686950684 38.71551513671875 14.22986698150635 38.44657516479492 C 14.1624870300293 38.39413452148438 14.09553718566895 38.34126281738281 14.02413749694824 38.29083633422852 C 13.9537467956543 38.24242401123047 13.88018703460693 38.19932556152344 13.80720710754395 38.15507507324219 C 13.7007474899292 38.08869552612305 13.59228706359863 38.02649307250977 13.47964668273926 37.96845626831055 L 11.04668712615967 40.81115341186523 C 10.99783706665039 40.86775588989258 10.92801666259766 40.90065383911133 10.85287666320801 40.90065383911133 C 10.85230731964111 40.90065383911133 10.85187721252441 40.90065383911133 10.85129737854004 40.90065383911133 C 10.77731704711914 40.90065383911133 10.70734691619873 40.86933517456055 10.65849685668945 40.81431579589844 L 8.172527313232422 37.99158477783203 C 8.075837135314941 38.04244613647461 7.982737064361572 38.0980339050293 7.890216827392578 38.15507507324219 C 7.817667007446289 38.19932556152344 7.743687152862549 38.2425651550293 7.673717021942139 38.29083633422852 C 7.602316856384277 38.34111404418945 7.535946846008301 38.39413452148438 7.467556953430176 38.44657516479492 C 7.11687707901001 38.71551513671875 6.808856964111328 39.02396392822266 6.551836967468262 39.366455078125 C 6.405877113342285 39.56083297729492 6.274706840515137 39.76383590698242 6.163657188415527 39.97775650024414 C 6.121567249298096 40.05949401855469 6.082917213439941 40.14167404174805 6.046427249908447 40.22399520874023 C 6.047427177429199 40.22758483886719 6.048007011413574 40.23059463500977 6.049016952514648 40.23476409912109 L 6.041256904602051 40.23476409912109 C 6.004187107086182 40.31909561157227 5.972867012023926 40.40544509887695 5.941977024078369 40.49178314208984 C 5.817566871643066 40.83931350708008 5.734817028045654 41.20177459716797 5.710677146911621 41.57918548583984 L 7.913347244262695 41.57918548583984 L 7.913347244262695 40.52870559692383 C 7.913347244262695 40.51577377319336 7.918957233428955 40.50442504882813 7.920536994934082 40.49163436889648 C 7.939066886901855 40.36823272705078 8.041216850280762 40.27154541015625 8.170367240905762 40.27154541015625 C 8.299527168273926 40.27154541015625 8.401237487792969 40.36823272705078 8.419767379760742 40.49163436889648 C 8.421927452087402 40.50457382202148 8.42752742767334 40.51591491699219 8.42752742767334 40.52870559692383 L 8.42752742767334 41.57918548583984 L 13.26917743682861 41.57918548583984 L 13.26917743682861 40.52870559692383 C 13.26917743682861 40.51577377319336 13.27535724639893 40.50442504882813 13.27693748474121 40.49163436889648 C 13.29546737670898 40.36823272705078 13.3977575302124 40.27154541015625 13.52633666992188 40.27154541015625 C 13.65592670440674 40.27154541015625 13.75720691680908 40.36823272705078 13.77574729919434 40.49163436889648 C 13.77832698822021 40.50457382202148 13.78349685668945 40.51591491699219 13.78349685668945 40.52870559692383 L 13.78349685668945 41.57918548583984 L 15.98659706115723 41.57918548583984 Z M 19.4052562713623 39.00082397460938 C 19.54661750793457 39.00082397460938 19.66226768493652 39.11647415161133 19.66226768493652 39.25784301757813 L 19.66226768493652 39.97760391235352 L 21.17563629150391 39.97746276855469 C 21.07937622070313 38.89782333374023 20.38690757751465 37.96400451660156 19.38786697387695 37.42367553710938 L 17.60225677490234 39.51069641113281 C 17.55283737182617 39.56931304931641 17.48746681213379 39.5970344543457 17.40629768371582 39.60120391845703 C 17.33230781555176 39.60120391845703 17.26291656494141 39.56887435913086 17.21349716186523 39.51385498046875 L 15.38880729675293 37.44235610961914 C 15.08093738555908 37.61101531982422 14.80423736572266 37.81875610351563 14.56517696380615 38.05680465698242 C 14.9445972442627 38.35088348388672 15.28192710876465 38.68706512451172 15.56206703186035 39.06088638305664 C 15.5902271270752 39.09895324707031 15.61551666259766 39.14004516601563 15.64323711395264 39.18012619018555 C 15.82224750518799 39.43211364746094 15.97697734832764 39.69846343994141 16.10239791870117 39.97760391235352 L 19.14823722839355 39.97760391235352 L 19.14823722839355 39.25784301757813 C 19.14823722839355 39.11647415161133 19.26388740539551 39.00082397460938 19.4052562713623 39.00082397460938 Z M 2.276087045669556 37.44062423706055 C 1.295137047767639 37.98411560058594 0.6180470585823059 38.9100341796875 0.5233670473098755 39.97746276855469 L 2.03400707244873 39.97746276855469 L 2.03400707244873 39.25770568847656 C 2.03400707244873 39.11533355712891 2.149086952209473 39.00068283081055 2.291027069091797 39.00068283081055 C 2.433537006378174 39.00068283081055 2.548187017440796 39.11475372314453 2.548617124557495 39.25540542602539 L 2.548617124557495 39.97516632080078 L 5.594457149505615 39.97516632080078 C 5.720877170562744 39.69588470458984 5.875176906585693 39.42852401733398 6.053037166595459 39.17768478393555 C 6.081336975097656 39.13759613037109 6.1060471534729 39.09650421142578 6.135356903076172 39.05843353271484 C 6.415067195892334 38.68519592285156 6.752827167510986 38.34844589233398 7.132246971130371 38.05436325073242 C 6.884996891021729 37.80855560302734 6.596086978912354 37.59578323364258 6.275717258453369 37.42195510864258 L 4.490537166595459 39.50897598266602 C 4.441117286682129 39.56758499145508 4.348597049713135 39.59531402587891 4.295146942138672 39.59948348999023 C 4.221167087554932 39.59948348999023 4.151196956634521 39.56715393066406 4.102356910705566 39.51213455200195 L 2.276087045669556 37.44062423706055 Z M 12.25792694091797 37.50183486938477 C 12.02503681182861 37.68486404418945 11.76787662506104 37.8282356262207 11.48773670196533 37.91774368286133 L 11.51804733276367 37.94403457641602 L 11.06305694580078 38.33379364013672 L 11.39004707336426 39.61916351318359 L 12.99420738220215 37.74404525756836 C 12.75715732574463 37.64736557006836 12.51191711425781 37.56504440307617 12.25792694091797 37.50183486938477 Z M 9.432757377624512 37.50341415405273 C 9.163376808166504 37.57280349731445 8.905217170715332 37.66129302978516 8.656387329101563 37.76358413696289 L 10.25839710235596 39.58210372924805 L 10.57517719268799 38.33379364013672 L 10.12119674682617 37.94403457641602 L 10.16486740112305 37.90596389770508 C 9.893337249755859 37.81544494628906 9.649106979370117 37.67508316040039 9.432757377624512 37.50341415405273 Z M 18.47042655944824 37.06422424316406 C 18.27862739562988 37.20975494384766 18.06672668457031 37.32038497924805 17.83384704589844 37.38459396362305 L 17.56346702575684 37.61747360229492 L 17.78815650939941 38.50029373168945 L 18.8971061706543 37.2030029296875 C 18.75933647155762 37.14956283569336 18.61638641357422 37.102294921875 18.47042655944824 37.06422424316406 Z M 5.359997272491455 37.06436538696289 C 5.169207096099854 37.20990371704102 4.956867218017578 37.32152557373047 4.723987102508545 37.38474273681641 L 4.453617095947266 37.61762619018555 L 4.678307056427002 38.50029373168945 L 5.787827014923096 37.20314407348633 C 5.64890718460083 37.14970397949219 5.507107257843018 37.10244369506836 5.359997272491455 37.06436538696289 Z M 16.32952690124512 37.06695556640625 C 16.17264747619629 37.10703277587891 16.02208709716797 37.15947341918945 15.87497711181641 37.21651458740234 L 16.98248672485352 38.47357559204102 L 17.19999694824219 37.6180534362793 L 16.91726684570313 37.37482452392578 C 16.69774627685547 37.3086051940918 16.50178718566895 37.20013427734375 16.32952690124512 37.06695556640625 Z M 3.219097137451172 37.06695556640625 C 3.062216997146606 37.10703277587891 2.911657094955444 37.15947341918945 2.764547109603882 37.21651458740234 L 3.87205696105957 38.47357559204102 L 4.089567184448242 37.6180534362793 L 3.806257009506226 37.37482452392578 C 3.586737155914307 37.30759429931641 3.391927003860474 37.20013427734375 3.219097137451172 37.06695556640625 Z M 12.26309680938721 29.70757484436035 L 12.00392723083496 29.95080375671387 C 11.63067722320557 30.30407524108887 10.08039665222168 30.46598434448242 10.065016746521 30.46856498718262 L 9.785877227783203 30.51281547546387 C 8.120516777038574 30.77514457702637 8.141057014465332 31.50626373291016 8.169366836547852 32.52168273925781 C 8.173526763916016 32.68718338012695 8.177117347717285 32.81461334228516 8.177117347717285 32.9483642578125 L 8.194646835327148 33.54587554931641 L 8.075837135314941 33.62459564208984 C 7.897976875305176 33.74182510375977 7.868096828460693 34.10947418212891 7.995666980743408 34.63082504272461 C 8.061037063598633 34.89459609985352 8.242486953735352 35.07978439331055 8.380267143249512 35.12187576293945 L 8.503666877746582 35.15894317626953 L 8.545476913452148 35.28263473510742 C 8.664286613464355 35.61019515991211 8.994287490844727 36.40509414672852 9.567076683044434 36.95058441162109 C 9.647247314453125 37.02658462524414 9.734156608581543 37.09597396850586 9.8240966796875 37.16134643554688 C 9.939316749572754 37.24351501464844 10.06157684326172 37.3150634765625 10.19273662567139 37.37109375 C 10.33467674255371 37.43129348754883 10.48581695556641 37.47338485717773 10.6462869644165 37.49349594116211 C 10.71165752410889 37.500244140625 10.77745723724365 37.5084342956543 10.8458366394043 37.5084342956543 C 10.89425659179688 37.5084342956543 10.93792724609375 37.49464416503906 10.98519706726074 37.49047470092773 C 11.15845680236816 37.47554397583008 11.32194709777832 37.43344497680664 11.47882747650146 37.36807632446289 C 11.60941696166992 37.31305313110352 11.73598670959473 37.2436637878418 11.85422706604004 37.15933609008789 C 11.94473743438721 37.09511566162109 12.03006744384766 37.02471542358398 12.11238670349121 36.94757461547852 C 12.56996726989746 36.51671600341797 12.90972709655762 35.90700531005859 13.09950733184814 35.34397506713867 L 13.13657665252686 35.23235321044922 L 13.24504661560059 35.18810272216797 C 13.43626689910889 35.10952377319336 13.59975719451904 34.89718627929688 13.66253662109375 34.64878463745117 C 13.80088710784912 34.09854507446289 13.79513740539551 33.77832412719727 13.64917659759521 33.69599533081055 L 13.51757717132568 33.62086486816406 L 13.51757717132568 32.96014404296875 C 13.54372692108154 32.07732391357422 13.44919681549072 31.12971496582031 12.55501747131348 30.74311447143555 L 12.45632743835449 30.69986534118652 L 12.41781711578369 30.59915542602539 C 12.32070732116699 30.34401512145996 12.30216693878174 30.11932373046875 12.29857730865479 30.07722473144531 L 12.26309680938721 29.70757484436035 Z M 17.40170669555664 36.92918395996094 C 17.40945625305176 36.92918395996094 17.4156379699707 36.93018341064453 17.42382621765137 36.93018341064453 C 17.43000793457031 36.93018341064453 17.43560791015625 36.93119430541992 17.44178771972656 36.93119430541992 L 17.43876647949219 36.92817306518555 C 17.66460800170898 36.92156600952148 17.87177658081055 36.84384536743164 18.05839729309082 36.72359466552734 C 18.15349769592285 36.66239547729492 18.2440071105957 36.58998489379883 18.32833671569824 36.50766372680664 C 18.64914703369141 36.19562530517578 18.88777732849121 35.76161575317383 19.02396774291992 35.36006546020508 L 19.06102752685547 35.24844360351563 L 19.16949653625488 35.20419311523438 C 19.29348754882813 35.15333557128906 19.39993667602539 35.01254272460938 19.44203758239746 34.84589385986328 C 19.5752067565918 34.31576538085938 19.49188613891602 34.22224426269531 19.46315765380859 34.20629501342773 L 19.33155632019043 34.13173294067383 L 19.33155632019043 33.60060501098633 C 19.35927772521973 32.69623565673828 19.15527725219727 32.22113418579102 18.65187644958496 32.00319290161133 L 18.55216789245605 31.9599552154541 L 18.5136661529541 31.85866546630859 C 18.44125747680664 31.66687393188477 18.42473793029785 31.49922370910645 18.42114639282227 31.45195388793945 L 18.40721702575684 31.30857467651367 L 18.31052780151367 31.40066528320313 C 18.01127624511719 31.68196487426758 16.8343677520752 31.8017749786377 16.8235969543457 31.80278396606445 L 16.61901664733887 31.83568382263184 C 15.43234729766846 32.02244567871094 15.44527721405029 32.51852416992188 15.46581745147705 33.27075576782227 C 15.46883678436279 33.37203598022461 15.47141742706299 33.47949600219727 15.47141742706299 33.59213638305664 L 15.48635673522949 34.07240295410156 L 15.36711692810059 34.15156555175781 C 15.28479671478271 34.20658493041992 15.23293685913086 34.4149055480957 15.33522701263428 34.83440399169922 C 15.37645721435547 35.00105285644531 15.49152660369873 35.12747573852539 15.57844734191895 35.1547737121582 L 15.70185661315918 35.19184494018555 L 15.74423694610596 35.31108474731445 C 15.82957744598389 35.54612350463867 16.06403732299805 36.11216354370117 16.46658706665039 36.50809478759766 C 16.54876708984375 36.58826446533203 16.63668632507324 36.66181564331055 16.73236656188965 36.72402572631836 C 16.90706634521484 36.83766555786133 17.10661697387695 36.90705490112305 17.32871627807617 36.92099380493164 C 17.34725761413574 36.92199325561523 17.36377716064453 36.93018341064453 17.38273620605469 36.93018341064453 C 17.38934707641602 36.93018341064453 17.39494705200195 36.92918395996094 17.40170669555664 36.92918395996094 Z M 4.292276859283447 36.92918395996094 C 4.299887180328369 36.92918395996094 4.306646823883057 36.93018341064453 4.313827037811279 36.93018341064453 C 4.318996906280518 36.93018341064453 4.324167251586914 36.92817306518555 4.329777240753174 36.92817306518555 C 4.556046962738037 36.92156600952148 4.762776851654053 36.84384536743164 4.949397087097168 36.72359466552734 C 5.045076847076416 36.66239547729492 5.135016918182373 36.58998489379883 5.21934700012207 36.50766372680664 C 5.540146827697754 36.19562530517578 5.778777122497559 35.76161575317383 5.914967060089111 35.36006546020508 L 5.95203685760498 35.24844360351563 L 6.060506820678711 35.20419311523438 C 6.184347152709961 35.15333557128906 6.291377067565918 35.01254272460938 6.33346700668335 34.84589385986328 C 6.46563720703125 34.31576538085938 6.382747173309326 34.22224426269531 6.35401725769043 34.20629501342773 L 6.222846984863281 34.13173294067383 L 6.222846984863281 33.60060501098633 C 6.249997138977051 32.69623565673828 6.045997142791748 32.22113418579102 5.54259729385376 32.00319290161133 L 5.44331693649292 31.9599552154541 L 5.4048171043396 31.85866546630859 C 5.331837177276611 31.66788482666016 5.315317153930664 31.49922370910645 5.311727046966553 31.45195388793945 L 5.297787189483643 31.30857467651367 L 5.201107025146484 31.40066528320313 C 4.901846885681152 31.68196487426758 3.724946975708008 31.8017749786377 3.713166952133179 31.80278396606445 L 3.509016990661621 31.83568382263184 C 2.321336984634399 32.02230453491211 2.334697008132935 32.51852416992188 2.355817079544067 33.27175521850586 C 2.358837127685547 33.37203598022461 2.361417055130005 33.47949600219727 2.361417055130005 33.59213638305664 L 2.376367092132568 34.07240295410156 L 2.257117033004761 34.15156555175781 C 2.17436695098877 34.20658493041992 2.122507095336914 34.4149055480957 2.224797010421753 34.83440399169922 C 2.265887022018433 35.00105285644531 2.381107091903687 35.12848281860352 2.46744704246521 35.1547737121582 L 2.590857028961182 35.19184494018555 L 2.634667158126831 35.31108474731445 C 2.720006942749023 35.54612350463867 2.954897165298462 36.11216354370117 3.357017040252686 36.50809478759766 C 3.439337015151978 36.58826446533203 3.527256965637207 36.66181564331055 3.623377084732056 36.72402572631836 C 3.797207117080688 36.83766555786133 3.99718713760376 36.90705490112305 4.219296932220459 36.92099380493164 C 4.237826824188232 36.92199325561523 4.25434684753418 36.93018341064453 4.273316860198975 36.93018341064453 C 4.279917240142822 36.93018341064453 4.285527229309082 36.92918395996094 4.292276859283447 36.92918395996094 Z"/></g></g></svg>