<svg xmlns="http://www.w3.org/2000/svg" width="252.8" height="121.599" viewBox="0 0 252.8 121.599">
  <g id="Group_239" data-name="Group 239" transform="translate(0)">
    <g id="Group_237" data-name="Group 237" transform="translate(224.012 0.494)">
      <path id="Path_2288" data-name="Path 2288" d="M925.8,324.538c-1.152-.845-.986-.572-.743-3.094.261-2.222.67-1.271-.752-2.941-1.316-1.5-2.834-4.069-3.852-5.208-.974.683-3.68,5.466-4.922,6.732-.254-.333-.459-.6-.719-.967-.414-.569-.387-.422-.085-1.241.61-1.793,2.56-7.536,2.8-8.649-.847-1.248-3.373-4.5-3.538-5.762-.076-.6-.111-1.58.658-1.534,1.894.132,3.5,3.178,4.821,5.1.529.774.45.56,1.4.568,1.035.033,8.505.053,8.937.314.137.125.833,1.173.986,1.372a19.793,19.793,0,0,1-2.053.621l-4.009,1.146a12.672,12.672,0,0,0-2.016.615c.66.864,1.247,1.742,1.915,2.644,3.291,4.475,1.543,3.9,4.408,4.527,1.6.383,2.478.213,2.531,1.689-2.987.3-4.672,1.463-5.773,4.073Z" transform="translate(-913.95 -301.87)" fill="#d1d3d4" fill-rule="evenodd"/>
      <path id="Path_2289" data-name="Path 2289" d="M969.645,380.768a.473.473,0,0,0-.826.462l.456.79a.455.455,0,1,0,.788-.455Z" transform="translate(-954.363 -359.861)" fill="#d1d3d4" fill-rule="evenodd"/>
      <path id="Path_2290" data-name="Path 2290" d="M966.184,758.275c-.276.548.565.958.806.418l.258-.43a.465.465,0,0,0-.81-.456Z" transform="translate(-952.42 -637.842)" fill="#d1d3d4" fill-rule="evenodd"/>
      <path id="Path_2291" data-name="Path 2291" d="M972.033,746.136a.481.481,0,0,0,.849.448l.411-.843a.453.453,0,1,0-.8-.416Z" transform="translate(-956.732 -628.624)" fill="#d1d3d4" fill-rule="evenodd"/>
      <path id="Path_2292" data-name="Path 2292" d="M978.468,733.47a.454.454,0,0,0,.806.417l.411-.84a.468.468,0,1,0-.841-.41Z" transform="translate(-961.473 -619.254)" fill="#d1d3d4" fill-rule="evenodd"/>
      <path id="Path_2293" data-name="Path 2293" d="M984.361,720.7a.472.472,0,0,0,.87.366l.374-.833a.472.472,0,1,0-.87-.366Z" transform="translate(-965.833 -609.821)" fill="#d1d3d4" fill-rule="evenodd"/>
      <path id="Path_2294" data-name="Path 2294" d="M990,707.717a.473.473,0,0,0,.872.366l.331-.861a.474.474,0,0,0-.872-.369Z" transform="translate(-969.991 -600.249)" fill="#d1d3d4" fill-rule="evenodd"/>
      <path id="Path_2295" data-name="Path 2295" d="M995.2,694.6a.461.461,0,1,0,.861.331l.323-.9c.208-.5-.631-.906-.892-.285Z" transform="translate(-973.818 -590.552)" fill="#d1d3d4" fill-rule="evenodd"/>
      <path id="Path_2296" data-name="Path 2296" d="M999.958,681.264a.454.454,0,0,0,.858.295l.32-.9c.153-.6-.733-.849-.892-.288Z" transform="translate(-977.341 -580.694)" fill="#d1d3d4" fill-rule="evenodd"/>
      <path id="Path_2297" data-name="Path 2297" d="M1004.235,667.819a.459.459,0,1,0,.883.249l.252-.887c.188-.608-.727-.812-.886-.249Z" transform="translate(-980.5 -570.774)" fill="#d1d3d4" fill-rule="evenodd"/>
      <path id="Path_2298" data-name="Path 2298" d="M1008.007,654.182a.461.461,0,1,0,.887.25l.249-.888c.159-.562-.734-.848-.885-.249Z" transform="translate(-983.282 -560.718)" fill="#d1d3d4" fill-rule="evenodd"/>
      <path id="Path_2299" data-name="Path 2299" d="M1011.389,640.469a.462.462,0,1,0,.908.168l.214-.878c.106-.63-.838-.792-.915-.205Z" transform="translate(-985.782 -550.564)" fill="#d1d3d4" fill-rule="evenodd"/>
      <path id="Path_2300" data-name="Path 2300" d="M1014.1,626.615a.48.48,0,0,0,.946.162l.133-.9a.462.462,0,0,0-.907-.168Z" transform="translate(-987.782 -540.351)" fill="#d1d3d4" fill-rule="evenodd"/>
      <path id="Path_2301" data-name="Path 2301" d="M1016.418,612.686a.474.474,0,0,0,.938.127l.126-.938a.474.474,0,0,0-.939-.125Z" transform="translate(-989.494 -530.044)" fill="#d1d3d4" fill-rule="evenodd"/>
      <path id="Path_2302" data-name="Path 2302" d="M1018.242,598.654a.449.449,0,1,0,.894.1l.09-.93a.45.45,0,1,0-.894-.1Z" transform="translate(-990.838 -519.683)" fill="#d1d3d4" fill-rule="evenodd"/>
      <path id="Path_2303" data-name="Path 2303" d="M1019.348,584.614a.463.463,0,0,0,.924.05l.053-.922a.463.463,0,1,0-.924-.052Z" transform="translate(-991.655 -509.317)" fill="#d1d3d4" fill-rule="evenodd"/>
      <path id="Path_2304" data-name="Path 2304" d="M1019.859,570.538a.479.479,0,0,0,.954.008l.008-.955a.455.455,0,1,0-.909.021Z" transform="translate(-992.033 -498.922)" fill="#d1d3d4" fill-rule="evenodd"/>
      <path id="Path_2305" data-name="Path 2305" d="M1019.849,556.432a.456.456,0,1,0,.911-.021c.018-.307,0-.609.009-.954-.026-.528-.956-.616-.946.029.025.339.008.647.026.947Z" transform="translate(-992.006 -488.517)" fill="#d1d3d4" fill-rule="evenodd"/>
      <path id="Path_2306" data-name="Path 2306" d="M1019.227,542.335a.452.452,0,1,0,.9-.058l-.057-.9a.454.454,0,1,0-.9.058Z" transform="translate(-991.52 -478.127)" fill="#d1d3d4" fill-rule="evenodd"/>
      <path id="Path_2307" data-name="Path 2307" d="M1017.914,528.27a.47.47,0,0,0,.934-.1l-.1-.932a.468.468,0,0,0-.926.139Z" transform="translate(-990.526 -467.733)" fill="#d1d3d4" fill-rule="evenodd"/>
      <path id="Path_2308" data-name="Path 2308" d="M1016,514.316a.469.469,0,0,0,.927-.139l-.139-.926a.468.468,0,0,0-.926.139Z" transform="translate(-989.084 -457.423)" fill="#d1d3d4" fill-rule="evenodd"/>
      <path id="Path_2309" data-name="Path 2309" d="M1013.656,500.4a.467.467,0,0,0,.918-.175c-.054-.294-.118-.625-.173-.919-.106-.552-1.039-.449-.92.175.064.331.118.625.175.919Z" transform="translate(-987.323 -447.17)" fill="#d1d3d4" fill-rule="evenodd"/>
      <path id="Path_2310" data-name="Path 2310" d="M1010.632,486.628a.468.468,0,1,0,.912-.213l-.206-.876a.468.468,0,0,0-.911.212Z" transform="translate(-985.066 -437.019)" fill="#d1d3d4" fill-rule="evenodd"/>
      <path id="Path_2311" data-name="Path 2311" d="M1007.188,472.959a.451.451,0,1,0,.869-.241l-.249-.907a.45.45,0,0,0-.868.243Z" transform="translate(-982.496 -426.917)" fill="#d1d3d4" fill-rule="evenodd"/>
      <path id="Path_2312" data-name="Path 2312" d="M1003.146,459.472c.177.536,1.088.325.9-.287-.092-.287-.194-.611-.286-.9a.452.452,0,0,0-.861.279,7.961,7.961,0,0,1,.25.905Z" transform="translate(-979.506 -416.96)" fill="#d1d3d4" fill-rule="evenodd"/>
      <path id="Path_2313" data-name="Path 2313" d="M998.615,446.088a.456.456,0,1,0,.855-.315l-.323-.891a.456.456,0,0,0-.855.315Z" transform="translate(-976.107 -407.095)" fill="#d1d3d4" fill-rule="evenodd"/>
      <path id="Path_2314" data-name="Path 2314" d="M993.535,432.889a.455.455,0,1,0,.853-.316l-.322-.889c-.216-.531-1.107-.209-.883.358Z" transform="translate(-972.34 -397.378)" fill="#d1d3d4" fill-rule="evenodd"/>
      <path id="Path_2315" data-name="Path 2315" d="M988.131,419.889a.462.462,0,0,0,.839-.389l-.352-.847a.463.463,0,1,0-.841.389Z" transform="translate(-968.344 -387.766)" fill="#d1d3d4" fill-rule="evenodd"/>
      <path id="Path_2316" data-name="Path 2316" d="M982.242,407.04a.462.462,0,0,0,.837-.39l-.4-.875a.467.467,0,0,0-.832.426Z" transform="translate(-963.973 -378.284)" fill="#d1d3d4" fill-rule="evenodd"/>
      <path id="Path_2317" data-name="Path 2317" d="M975.928,394.485a.468.468,0,0,0,.831-.427l-.424-.833a.468.468,0,0,0-.834.425Z" transform="translate(-959.284 -369.036)" fill="#d1d3d4" fill-rule="evenodd"/>
    </g>
    <g id="Group_238" data-name="Group 238" transform="translate(0)">
      <path id="Path_2318" data-name="Path 2318" d="M76.944,670.269c.983,1.038.868.739.179,3.177-.653,2.14-.886,1.132.218,3.029,1.025,1.713,2.063,4.509,2.861,5.811,1.081-.5,4.594-4.721,6.045-5.745.19.371.342.669.534,1.078.305.634.3.484-.138,1.238-.92,1.654-3.862,6.958-4.3,8.01.61,1.379,2.518,5.029,2.454,6.3-.031.6-.171,1.575-.922,1.392-1.839-.466-2.879-3.75-3.835-5.873-.383-.856-.342-.633-1.282-.811-1.012-.215-8.359-1.568-8.736-1.9-.112-.148-.61-1.3-.726-1.526a19.8,19.8,0,0,1,2.131-.245l4.15-.412a12.98,12.98,0,0,0,2.092-.245c-.495-.969-.915-1.938-1.413-2.943-2.441-4.99-.824-4.108-3.529-5.241-1.5-.661-2.4-.652-2.191-2.113,2.995.234,4.859-.606,6.407-2.978Z" transform="translate(-67.204 -572.984)" fill="#d1d3d4" fill-rule="evenodd"/>
      <path id="Path_2319" data-name="Path 2319" d="M83.514,670.389a.473.473,0,0,0,.9-.307l-.308-.858a.456.456,0,1,0-.858.307Z" transform="translate(-77.467 -571.983)" fill="#d1d3d4" fill-rule="evenodd"/>
      <path id="Path_2320" data-name="Path 2320" d="M154.308,300.734c.368-.491-.388-1.044-.72-.555l-.331.376a.465.465,0,0,0,.716.593Z" transform="translate(-129.022 -299.989)" fill="#d1d3d4" fill-rule="evenodd"/>
      <path id="Path_2321" data-name="Path 2321" d="M145.87,310.594c.369-.489-.385-1.044-.756-.592l-.552.755a.452.452,0,1,0,.714.553Z" transform="translate(-122.618 -307.248)" fill="#d1d3d4" fill-rule="evenodd"/>
      <path id="Path_2322" data-name="Path 2322" d="M137.4,321.842a.453.453,0,0,0-.717-.555l-.553.753a.467.467,0,1,0,.752.554Z" transform="translate(-116.4 -315.556)" fill="#d1d3d4" fill-rule="evenodd"/>
      <path id="Path_2323" data-name="Path 2323" d="M129.346,333.366a.472.472,0,0,0-.79-.514l-.518.752a.473.473,0,1,0,.792.515Z" transform="translate(-110.454 -324.067)" fill="#d1d3d4" fill-rule="evenodd"/>
      <path id="Path_2324" data-name="Path 2324" d="M121.588,345.119a.472.472,0,0,0-.79-.516l-.48.788a.474.474,0,0,0,.792.518Z" transform="translate(-104.762 -332.731)" fill="#d1d3d4" fill-rule="evenodd"/>
      <path id="Path_2325" data-name="Path 2325" d="M114.2,357.066a.463.463,0,1,0-.791-.48l-.477.829c-.294.452.458,1.005.826.441Z" transform="translate(-99.324 -341.553)" fill="#d1d3d4" fill-rule="evenodd"/>
      <path id="Path_2326" data-name="Path 2326" d="M107.242,369.322a.454.454,0,0,0-.793-.442l-.476.829c-.257.562.571.967.827.441Z" transform="translate(-94.209 -350.612)" fill="#d1d3d4" fill-rule="evenodd"/>
      <path id="Path_2327" data-name="Path 2327" d="M100.736,381.763a.459.459,0,1,0-.826-.4l-.406.826c-.293.565.571.928.83.4Z" transform="translate(-89.431 -359.782)" fill="#d1d3d4" fill-rule="evenodd"/>
      <path id="Path_2328" data-name="Path 2328" d="M94.626,394.5a.461.461,0,1,0-.829-.405l-.4.829c-.256.525.571.966.828.4Z" transform="translate(-84.935 -369.168)" fill="#d1d3d4" fill-rule="evenodd"/>
      <path id="Path_2329" data-name="Path 2329" d="M88.955,407.35a.462.462,0,1,0-.864-.327l-.366.825c-.218.6.682.93.864.366Z" transform="translate(-80.766 -378.678)" fill="#d1d3d4" fill-rule="evenodd"/>
      <path id="Path_2330" data-name="Path 2330" d="M83.911,420.485a.479.479,0,0,0-.9-.327l-.291.864a.462.462,0,0,0,.863.328Z" transform="translate(-77.074 -388.358)" fill="#d1d3d4" fill-rule="evenodd"/>
      <path id="Path_2331" data-name="Path 2331" d="M79.225,433.739a.475.475,0,0,0-.9-.292l-.292.9a.474.474,0,0,0,.9.291Z" transform="translate(-73.626 -398.155)" fill="#d1d3d4" fill-rule="evenodd"/>
      <path id="Path_2332" data-name="Path 2332" d="M75.154,447.222a.45.45,0,1,0-.864-.253l-.252.9a.45.45,0,1,0,.862.253Z" transform="translate(-70.682 -408.111)" fill="#d1d3d4" fill-rule="evenodd"/>
      <path id="Path_2333" data-name="Path 2333" d="M71.6,460.822a.464.464,0,0,0-.9-.215l-.214.9a.462.462,0,1,0,.9.217Z" transform="translate(-68.073 -418.148)" fill="#d1d3d4" fill-rule="evenodd"/>
      <path id="Path_2334" data-name="Path 2334" d="M68.62,474.617a.478.478,0,0,0-.937-.178l-.178.939a.455.455,0,1,0,.9.141Z" transform="translate(-65.877 -428.345)" fill="#d1d3d4" fill-rule="evenodd"/>
      <path id="Path_2335" data-name="Path 2335" d="M66.167,488.467a.456.456,0,1,0-.9-.141c-.071.3-.1.6-.177.937-.07.525.83.777.935.141.037-.339.108-.638.144-.936Z" transform="translate(-64.099 -438.556)" fill="#d1d3d4" fill-rule="evenodd"/>
      <path id="Path_2336" data-name="Path 2336" d="M64.371,502.479a.453.453,0,1,0-.9-.1l-.1.9a.453.453,0,1,0,.9.1Z" transform="translate(-62.83 -448.895)" fill="#d1d3d4" fill-rule="evenodd"/>
      <path id="Path_2337" data-name="Path 2337" d="M63.092,516.5a.469.469,0,0,0-.936-.066l-.065.936a.468.468,0,0,0,.935.029Z" transform="translate(-61.891 -459.248)" fill="#d1d3d4" fill-rule="evenodd"/>
      <path id="Path_2338" data-name="Path 2338" d="M62.48,530.563a.468.468,0,0,0-.935-.028l-.029.935a.468.468,0,0,0,.936.029Z" transform="translate(-61.467 -469.642)" fill="#d1d3d4" fill-rule="evenodd"/>
      <path id="Path_2339" data-name="Path 2339" d="M62.269,544.683a.468.468,0,0,0-.936.009c0,.3.006.635.009.934,0,.562.942.628.936-.008,0-.337-.007-.636-.009-.934Z" transform="translate(-61.333 -480.055)" fill="#d1d3d4" fill-rule="evenodd"/>
      <path id="Path_2340" data-name="Path 2340" d="M62.683,558.783a.469.469,0,1,0-.936.046l.047.9a.468.468,0,0,0,.935-.046Z" transform="translate(-61.637 -490.453)" fill="#d1d3d4" fill-rule="evenodd"/>
      <path id="Path_2341" data-name="Path 2341" d="M63.627,572.825a.45.45,0,1,0-.9.083l.083.936a.45.45,0,0,0,.9-.084Z" transform="translate(-62.36 -500.83)" fill="#d1d3d4" fill-rule="evenodd"/>
      <path id="Path_2342" data-name="Path 2342" d="M65.077,586.858c-.081-.56-1.015-.513-.935.121.042.3.081.636.123.935a.452.452,0,0,0,.9-.122,7.539,7.539,0,0,1-.083-.935Z" transform="translate(-63.4 -511.2)" fill="#d1d3d4" fill-rule="evenodd"/>
      <path id="Path_2343" data-name="Path 2343" d="M67.013,600.827a.454.454,0,1,0-.895.158l.157.934a.456.456,0,0,0,.9-.157Z" transform="translate(-64.853 -521.507)" fill="#d1d3d4" fill-rule="evenodd"/>
      <path id="Path_2344" data-name="Path 2344" d="M69.566,614.768a.455.455,0,1,0-.9.158l.158.933a.478.478,0,0,0,.933-.2Z" transform="translate(-66.735 -531.786)" fill="#d1d3d4" fill-rule="evenodd"/>
      <path id="Path_2345" data-name="Path 2345" d="M72.528,628.506a.463.463,0,0,0-.9.233l.194.9a.463.463,0,1,0,.9-.233Z" transform="translate(-68.914 -541.941)" fill="#d1d3d4" fill-rule="evenodd"/>
      <path id="Path_2346" data-name="Path 2346" d="M75.929,642.167a.463.463,0,0,0-.9.233l.234.932a.467.467,0,0,0,.894-.27Z" transform="translate(-71.42 -552.016)" fill="#d1d3d4" fill-rule="evenodd"/>
      <path id="Path_2347" data-name="Path 2347" d="M79.767,655.709a.468.468,0,0,0-.9.272l.269.9a.468.468,0,0,0,.9-.271Z" transform="translate(-74.25 -562.014)" fill="#d1d3d4" fill-rule="evenodd"/>
    </g>
  </g>
</svg>
