<svg xmlns="http://www.w3.org/2000/svg" width="43.472" height="27" viewBox="0 0 43.472 27"><defs><style>.a,.c{fill:#49545b;}.a{stroke-linejoin:bevel;}.b,.c{stroke:none;}</style></defs><g class="a" transform="translate(0 -28.615)"><path class="b" d="M43.471,51.893a7.76,7.76,0,0,0-5.631-7.17,7.194,7.194,0,0,0,1.18-2.066,2.129,2.129,0,0,0,.933-1.307c.127-.509.407-1.623-.192-2.231v-.5c.025-.859.093-3.092-1.767-4.057a2.143,2.143,0,0,1-.064-.35L37.7,31.823l-1.712,1.615a8.108,8.108,0,0,1-2.412.543l-.44.068c-3.274.515-3.221,2.4-3.18,3.924.006.194.012.4.012.628l.014.45a2.38,2.38,0,0,0-.26,2.271,2.009,2.009,0,0,0,.933,1.27,8.225,8.225,0,0,0,1.224,2.136,8.679,8.679,0,0,0-3.55,2.2,11.973,11.973,0,0,0-2.9-1.336,9.5,9.5,0,0,0,1.728-2.973,2.682,2.682,0,0,0,1.224-1.676c.164-.662.532-2.13-.262-2.865v-.751c.053-1.767-.141-4.213-2.338-5.3a2.8,2.8,0,0,1-.109-.572l-.28-2.843-2.041,1.923a10.2,10.2,0,0,1-3.309.764l-.588.093c-4.228.665-4.164,3.006-4.1,5.16.007.236.014.481.014.754l.021.673c-.433.435-.757,1.279-.354,2.927a2.487,2.487,0,0,0,1.219,1.621,10.663,10.663,0,0,0,1.8,3.068,11.851,11.851,0,0,0-2.9,1.332,8.7,8.7,0,0,0-3.562-2.207,7.256,7.256,0,0,0,1.18-2.068,2.108,2.108,0,0,0,.934-1.309c.127-.509.4-1.621-.192-2.229v-.5c.025-.859.092-3.092-1.767-4.057a2.05,2.05,0,0,1-.063-.35l-.236-2.388L9.725,33.437a8.118,8.118,0,0,1-2.412.543l-.439.068c-3.274.515-3.221,2.4-3.18,3.923.006.194.011.4.011.629l.014.449a2.38,2.38,0,0,0-.258,2.271,2.011,2.011,0,0,0,.932,1.271,8.282,8.282,0,0,0,1.224,2.134A7.762,7.762,0,0,0,0,51.892v.515H10.821A8.986,8.986,0,0,0,10.4,55.1v.515H33.074V55.1a8.958,8.958,0,0,0-.424-2.694H43.472v-.514h0Zm-4.081-.515V49.936a.515.515,0,0,0-1.03,0v1.442h-6.1a9.449,9.449,0,0,0-.92-1.6c-.056-.08-.106-.163-.163-.239a10.6,10.6,0,0,0-2-2.011,7.323,7.323,0,0,1,1.65-1.231l3.655,4.15a.515.515,0,0,0,.779-.006l3.577-4.181a6.579,6.579,0,0,1,3.581,5.116Zm-7.364,3.208H27.613v-2.1a.384.384,0,0,0-.016-.074.5.5,0,0,0-1,0,.609.609,0,0,0-.016.074v2.1h-9.7v-2.1a.461.461,0,0,0-.016-.074.5.5,0,0,0-1,0,.6.6,0,0,0-.014.074v2.1H11.44a7.952,7.952,0,0,1,.463-2.178c.062-.173.125-.346.2-.515h.016c0-.008,0-.014-.005-.022.073-.165.151-.33.235-.493a8.781,8.781,0,0,1,.778-1.225,9.555,9.555,0,0,1,1.834-1.843c.137-.105.27-.211.413-.312s.288-.183.434-.272c.185-.114.372-.226.566-.328l4.98,5.655a.515.515,0,0,0,.386.173h0a.511.511,0,0,0,.388-.179L27,47.353c.226.116.443.241.656.374.146.089.294.175.435.272s.277.207.412.312a9.549,9.549,0,0,1,1.833,1.843,8.979,8.979,0,0,1,.779,1.225c.083.161.161.326.235.493a.151.151,0,0,0,0,.022h.016c.073.169.137.342.2.515A8.081,8.081,0,0,1,32.026,54.586ZM4.59,49.421a.514.514,0,0,0-.515.515v1.442H1.048A6.566,6.566,0,0,1,4.56,46.3l3.659,4.15a.517.517,0,0,0,.386.175A.623.623,0,0,0,9,50.439l3.576-4.181a7.507,7.507,0,0,1,1.716,1.267,10.613,10.613,0,0,0-2,2.011c-.059.076-.108.159-.165.239a9.639,9.639,0,0,0-.919,1.6h-6.1V49.931A.513.513,0,0,0,4.59,49.421Zm.6-7.63-.247-.074a.918.918,0,0,1-.486-.642c-.2-.84-.1-1.258.065-1.368l.239-.159-.03-.962c0-.226-.005-.441-.011-.642-.042-1.509-.069-2.5,2.31-2.877L7.439,35c.024,0,2.381-.242,2.981-.806l.194-.184.028.287a3.025,3.025,0,0,0,.186.815l.077.2.2.087c1.008.437,1.417,1.388,1.363,3.2v1.064l.263.149c.058.032.224.219-.041,1.281a1.048,1.048,0,0,1-.547.718l-.217.089-.074.224a5.963,5.963,0,0,1-1.394,2.3,3.392,3.392,0,0,1-.541.433,2.408,2.408,0,0,1-1.241.41c-.011,0-.022,0-.032,0l-.043,0-.038,0c-.038,0-.071-.016-.108-.018a2.436,2.436,0,0,1-1.194-.395,3.477,3.477,0,0,1-.534-.433,6.832,6.832,0,0,1-1.447-2.4Zm4.182,6.628-.45-1.768.542-.467a3.7,3.7,0,0,0,1.274-.642,7.883,7.883,0,0,1,.857.278ZM7.625,46.164l.568.487-.436,1.714L5.538,45.847a7.988,7.988,0,0,1,.911-.3A3.7,3.7,0,0,0,7.625,46.164Zm9.41-4.439-.247-.074a1.385,1.385,0,0,1-.77-.984c-.256-1.044-.2-1.781.161-2.016l.238-.158-.035-1.2c0-.268-.007-.523-.016-.855-.057-2.034-.1-3.5,3.238-4.024l.559-.089c.031-.005,3.137-.33,3.884-1.037l.519-.487.071.741a3.949,3.949,0,0,0,.239,1.046l.077.2.2.087c1.791.774,1.981,2.673,1.928,4.441v1.324l.264.151c.292.165.3.806.027,1.909a1.584,1.584,0,0,1-.836,1.08l-.217.089-.074.224a8.074,8.074,0,0,1-1.978,3.213,4.906,4.906,0,0,1-.517.424A3.908,3.908,0,0,1,23,46.15a3.285,3.285,0,0,1-.989.245c-.095.008-.182.036-.279.036a3.845,3.845,0,0,1-.4-.03,3.4,3.4,0,0,1-.909-.245,3.936,3.936,0,0,1-.739-.42,5.123,5.123,0,0,1-.515-.422,9.21,9.21,0,0,1-2.047-3.341Zm5.782,8.935-.655-2.575.911-.781-.061-.053a4.924,4.924,0,0,0,1.543-.833,10.828,10.828,0,0,1,1.475.485Zm-2.454-3.432-.087.076.909.781-.635,2.5-3.209-3.643a11.88,11.88,0,0,1,1.555-.521A4.807,4.807,0,0,0,20.363,47.228ZM31.456,41.79l-.247-.074a.921.921,0,0,1-.487-.642c-.2-.84-.1-1.258.064-1.368l.239-.159-.03-.962c0-.226-.005-.441-.011-.644-.041-1.507-.067-2.5,2.31-2.875L33.7,35c.022,0,2.379-.242,2.979-.806l.194-.184.028.287a3.069,3.069,0,0,0,.185.815l.077.2.2.087c1.008.437,1.417,1.388,1.362,3.2v1.064l.264.149c.058.032.224.219-.042,1.281a1.047,1.047,0,0,1-.546.718l-.217.089-.074.224a5.963,5.963,0,0,1-1.394,2.3,3.444,3.444,0,0,1-.541.433,2.411,2.411,0,0,1-1.241.41l.006.006-.036,0-.044,0-.038,0c-.038,0-.071-.016-.108-.018a2.445,2.445,0,0,1-1.195-.395,3.5,3.5,0,0,1-.532-.433,6.819,6.819,0,0,1-1.447-2.4Zm4.18,6.628-.45-1.769.542-.467A3.757,3.757,0,0,0,37,45.541a7.844,7.844,0,0,1,.855.278Zm-1.745-2.255.566.487-.436,1.714L31.8,45.847a7.988,7.988,0,0,1,.911-.3A3.648,3.648,0,0,0,33.891,46.164Z"/><path class="c" d="M 33.07383728027344 55.61499786376953 L 10.39700603485107 55.61499786376953 L 10.39700603485107 55.1001091003418 C 10.39700603485107 54.16471862792969 10.55242252349854 53.2656364440918 10.82122802734375 52.40652465820313 L 5.783081178378779e-06 52.40652465820313 L 5.783081178378779e-06 51.89163589477539 C 5.783081178378779e-06 48.60921859741211 2.343311309814453 45.81058120727539 5.617422580718994 44.72524642944336 C 4.996339321136475 43.96430206298828 4.596561431884766 43.10721969604492 4.3936448097229 42.59116363525391 C 3.957922458648682 42.35430526733398 3.599589109420776 41.87538528442383 3.461450338363647 41.32022094726563 C 3.157533645629883 40.07919311523438 3.390366792678833 39.41177749633789 3.719894647598267 39.04913711547852 L 3.705505847930908 38.60016632080078 C 3.705505847930908 38.36933135986328 3.700339078903198 38.16441345214844 3.694283485412598 37.97071838378906 C 3.653144598007202 36.451416015625 3.599589109420776 34.56224822998047 6.873978137969971 34.04735946655273 L 7.312866687774658 33.97941589355469 C 8.384089469909668 33.87121963500977 9.524394989013672 33.59116363525391 9.725283622741699 33.43663787841797 L 11.43714427947998 31.82147026062012 L 11.67314434051514 34.20911026000977 C 11.67603397369385 34.2390251159668 11.68753337860107 34.38005447387695 11.73589420318604 34.55936050415039 C 13.59511661529541 35.52438735961914 13.52806091308594 37.75746917724609 13.50331115722656 38.61658096313477 L 13.50331115722656 39.1170539855957 C 14.09878349304199 39.72491455078125 13.82161712646484 40.83727645874023 13.69497776031494 41.34610748291016 C 13.55078315734863 41.91569137573242 13.20975589752197 42.38972091674805 12.76075553894043 42.65535736083984 C 12.49914455413818 43.36394119262695 12.09767246246338 44.09610748291016 11.58047771453857 44.72352600097656 C 12.97200584411621 45.18085861206055 14.19461727142334 45.94496917724609 15.14236736297607 46.93072128295898 C 16.02306175231934 46.36949920654297 16.9952564239502 45.91935729980469 18.03969955444336 45.59902572631836 C 17.10031127929688 44.52494049072266 16.51922798156738 43.24966430664063 16.2411994934082 42.53071975708008 C 15.67450618743896 42.25069046020508 15.20195007324219 41.63161087036133 15.02264499664307 40.90952682495117 C 14.62000560760498 39.26155471801758 14.94433879852295 38.41683197021484 15.37692260742188 37.98224639892578 L 15.35620021820068 37.30963516235352 C 15.35620021820068 37.0364990234375 15.34986686706543 36.79158020019531 15.34267234802246 36.55558013916016 C 15.28308868408203 34.40077590942383 15.21920013427734 32.06063842773438 19.44736671447754 31.39521980285645 L 20.03564453125 31.30255317687988 C 21.5394229888916 31.15202522277832 23.10194969177246 30.75944137573242 23.34514427185059 30.53813743591309 L 25.38653373718262 28.61499786376953 L 25.66658973693848 31.45796966552734 C 25.66858863830566 31.48472023010254 25.68500518798828 31.72360992431641 25.77564430236816 32.0295524597168 C 27.9727840423584 33.11919403076172 28.16647720336914 35.56552505493164 28.11378288269043 37.33208084106445 L 28.11378288269043 38.08296966552734 C 28.90700531005859 38.81747055053711 28.5391731262207 40.28527450561523 28.37542152404785 40.9474983215332 C 28.18978309631348 41.67794418334961 27.73044967651367 42.29788589477539 27.15167236328125 42.6234130859375 C 26.77981185913086 43.64424896240234 26.19586753845215 44.71863555908203 25.42339515686035 45.59616470336914 C 26.46783828735352 45.92080307006836 27.44522857666016 46.36863708496094 28.3259220123291 46.93216323852539 C 29.27047729492188 45.95074844360352 30.48792266845703 45.18516540527344 31.87628364562988 44.72899627685547 C 31.25406074523926 43.96574783325195 30.85428428649902 43.11066436767578 30.65253448486328 42.59260940551758 C 30.21592330932617 42.35660934448242 29.85847854614258 41.87769317626953 29.71947860717773 41.32252502441406 C 29.4155330657959 40.08149719238281 29.64953422546387 39.41494369506836 29.97906112670898 39.05144119262695 L 29.96467208862305 38.6013298034668 C 29.96467208862305 38.37163543701172 29.95833969116211 38.16672134399414 29.95231056213379 37.97302627563477 C 29.9111442565918 36.45283126831055 29.85847854614258 34.56369400024414 33.13197708129883 34.04880523681641 L 33.57175445556641 33.98085784912109 C 34.64411544799805 33.87266540527344 35.78325653076172 33.59260940551758 35.98414611816406 33.43805313110352 L 37.6960334777832 31.8228874206543 L 37.93086624145508 34.21052551269531 C 37.93403244018555 34.24047088623047 37.9464225769043 34.38149642944336 37.99475479125977 34.5608024597168 C 39.85400390625 35.52580261230469 39.78609085083008 37.75891494750977 39.76131057739258 38.61799621582031 L 39.76131057739258 39.11849975585938 C 40.35995101928711 39.72636032104492 40.07964324951172 40.84074783325195 39.95300674438477 41.34958267211914 C 39.81400680541992 41.90905380249023 39.46489334106445 42.38999938964844 39.01992416381836 42.65680313110352 C 38.75947952270508 43.36335754394531 38.35770034790039 44.09785842895508 37.83964538574219 44.72294235229492 C 41.12236785888672 45.80338668823242 43.47086715698242 48.60605239868164 43.47086715698242 51.89277648925781 L 43.47086715698242 51.89249801635742 L 43.47200393676758 51.89249801635742 L 43.47200393676758 52.40652465820313 L 32.64961624145508 52.40652465820313 C 32.91928482055664 53.2656364440918 33.07383728027344 54.16471862792969 33.07383728027344 55.1001091003418 L 33.07383728027344 55.61499786376953 Z M 32.02622985839844 54.58635711669922 C 31.97586631774902 53.83030319213867 31.81094932556152 53.10416412353516 31.56314468383789 52.4079704284668 C 31.50242233276367 52.2349967956543 31.43853378295898 52.06202697753906 31.36542320251465 51.8930549621582 L 31.34989547729492 51.8930549621582 C 31.34989547729492 51.88788604736328 31.35189437866211 51.88185882568359 31.35392189025879 51.87149810791016 C 31.27967262268066 51.70369338989258 31.20253372192383 51.53877639770508 31.11906051635742 51.37819290161133 C 30.8965892791748 50.94963836669922 30.6326732635498 50.54613494873047 30.34025573730469 50.15357971191406 C 29.82536697387695 49.46744155883789 29.2094783782959 48.84952545166016 28.50695037841797 48.31074905395508 C 28.37195014953613 48.20569229125977 28.23783874511719 48.09977722167969 28.09481048583984 47.99877548217773 C 27.95378303527832 47.90177536010742 27.80642318725586 47.8154411315918 27.66020011901855 47.72680282592773 C 27.44695091247559 47.59383010864258 27.22964477539063 47.46919250488281 27.00400543212891 47.35291290283203 L 22.1300048828125 53.04774856567383 C 22.03217315673828 53.16116333007813 21.89228439331055 53.22705459594727 21.74175643920898 53.22705459594727 C 21.7406177520752 53.22705459594727 21.73975563049316 53.22705459594727 21.73858833312988 53.22705459594727 C 21.59036636352539 53.22705459594727 21.4502010345459 53.16432952880859 21.35236740112305 53.05408096313477 L 16.37214469909668 47.39927673339844 C 16.1784496307373 47.50116348266602 15.99195003509521 47.61252593994141 15.80661678314209 47.72680282592773 C 15.66128349304199 47.8154411315918 15.5130615234375 47.90205383300781 15.37289428710938 47.99877548217773 C 15.22983932495117 48.0994987487793 15.09689426422119 48.20569229125977 14.95989513397217 48.31074905395508 C 14.25736713409424 48.84952545166016 13.64028358459473 49.46744155883789 13.12542247772217 50.15357971191406 C 12.83300590515137 50.54296875 12.57022762298584 50.94963836669922 12.34775543212891 51.37819290161133 C 12.2634220123291 51.54194259643555 12.18600559234619 51.70658111572266 12.11292266845703 51.87149810791016 C 12.11492252349854 51.87866592407227 12.11606121063232 51.88471984863281 12.118088722229 51.8930549621582 L 12.10256099700928 51.8930549621582 C 12.02828311920166 52.06202697753906 11.96556091308594 52.2349967956543 11.90367221832275 52.4079704284668 C 11.65442276000977 53.10416412353516 11.48864459991455 53.83030319213867 11.44031143188477 54.58635711669922 L 15.85295009613037 54.58635711669922 L 15.85295009613037 52.48191452026367 C 15.85295009613037 52.45602416992188 15.86417198181152 52.43327713012695 15.86733913421631 52.40766525268555 C 15.90447807312012 52.16044235229492 16.10908889770508 51.96674728393555 16.36783981323242 51.96674728393555 C 16.62658882141113 51.96674728393555 16.8303394317627 52.16044235229492 16.86747741699219 52.40766525268555 C 16.87178421020508 52.4335823059082 16.88300514221191 52.45630264282227 16.88300514221191 52.48191452026367 L 16.88300514221191 54.58635711669922 L 26.58236694335938 54.58635711669922 L 26.58236694335938 52.48191452026367 C 26.58236694335938 52.45602416992188 26.59475517272949 52.43327713012695 26.59792327880859 52.40766525268555 C 26.63503265380859 52.16044235229492 26.83995056152344 51.96674728393555 27.09756088256836 51.96674728393555 C 27.35714530944824 51.96674728393555 27.56006050109863 52.16044235229492 27.59717178344727 52.40766525268555 C 27.60236740112305 52.4335823059082 27.61272811889648 52.45630264282227 27.61272811889648 52.48191452026367 L 27.61272811889648 54.58635711669922 L 32.02622985839844 54.58635711669922 Z M 38.8748664855957 49.42110824584961 C 39.15808868408203 49.42110824584961 39.38975524902344 49.65277481079102 39.38975524902344 49.93599700927734 L 39.38975524902344 51.37791442871094 L 42.42150497436523 51.37760925292969 C 42.22867202758789 49.21474838256836 40.84144973754883 47.34399795532227 38.84003448486328 46.26155471801758 L 35.26289367675781 50.44252395629883 C 35.16389465332031 50.55997085571289 35.03295135498047 50.61549758911133 34.87033843994141 50.62385940551758 C 34.72211837768555 50.62385940551758 34.5831184387207 50.55908203125 34.48408889770508 50.44886016845703 L 30.82867240905762 46.29896926879883 C 30.21189498901367 46.63685989379883 29.65758895874023 47.05305480957031 29.17867279052734 47.52994155883789 C 29.93878364562988 48.11905288696289 30.61453437805176 48.79252624511719 31.17575645446777 49.54141616821289 C 31.2321720123291 49.6176643371582 31.28283882141113 49.69999694824219 31.3383674621582 49.78027725219727 C 31.69697761535645 50.28511047363281 32.00695037841797 50.81869125366211 32.25820159912109 51.37791442871094 L 38.35997772216797 51.37791442871094 L 38.35997772216797 49.93599700927734 C 38.35997772216797 49.65277481079102 38.59167098999023 49.42110824584961 38.8748664855957 49.42110824584961 Z M 4.559728145599365 46.29552459716797 C 2.594561338424683 47.38430404663086 1.238144636154175 49.23921966552734 1.048478007316589 51.37760925292969 L 4.074755668640137 51.37760925292969 L 4.074755668640137 49.93571853637695 C 4.074755668640137 49.65049743652344 4.305283546447754 49.42082977294922 4.589644908905029 49.42082977294922 C 4.875144481658936 49.42082977294922 5.104811191558838 49.64933013916016 5.105672359466553 49.93111038208008 L 5.105672359466553 51.37299728393555 L 11.20747756958008 51.37299728393555 C 11.46072769165039 50.81352615356445 11.7698392868042 50.27791595458984 12.12614440917969 49.77538681030273 C 12.18283939361572 49.6950798034668 12.23233890533447 49.61277389526367 12.29106140136719 49.53652572631836 C 12.85142230987549 48.78880310058594 13.52806091308594 48.11416625976563 14.28814506530762 47.5250244140625 C 13.79283905029297 47.03260803222656 13.21406173706055 46.60635757446289 12.57225608825684 46.25811004638672 L 8.995978355407715 50.43908309936523 C 8.896949768066406 50.55649948120117 8.711616516113281 50.61205291748047 8.604561805725098 50.62038803100586 C 8.456338882446289 50.62038803100586 8.31617259979248 50.55563735961914 8.218311309814453 50.44541549682617 L 4.559728145599365 46.29552459716797 Z M 24.55650520324707 46.41813659667969 C 24.0899772644043 46.78480529785156 23.57478332519531 47.07202529907227 23.01358985900879 47.2513313293457 L 23.07431221008301 47.30399703979492 L 22.16281127929688 48.08483123779297 L 22.81786727905273 50.65983200073242 L 26.0315055847168 46.90338516235352 C 25.55664443969727 46.70969390869141 25.06534004211426 46.54477691650391 24.55650520324707 46.41813659667969 Z M 18.89678382873535 46.42130279541016 C 18.35714530944824 46.560302734375 17.8399772644043 46.73757934570313 17.34147834777832 46.94252395629883 L 20.55081176757813 50.5855827331543 L 21.18542289733887 48.08483123779297 L 20.27594947814941 47.30399703979492 L 20.36345100402832 47.22774887084961 C 19.81950569152832 47.04641342163086 19.33022880554199 46.76522064208984 18.89678382873535 46.42130279541016 Z M 37.00211715698242 45.54146957397461 C 36.61789321899414 45.83302688598633 36.19339370727539 46.05463790893555 35.72684097290039 46.18327713012695 L 35.18519973754883 46.64980316162109 L 35.63533782958984 48.41838836669922 L 37.85689544677734 45.81949615478516 C 37.58089447021484 45.71244049072266 37.29453277587891 45.61774826049805 37.00211715698242 45.54146957397461 Z M 10.73775577545166 45.54177474975586 C 10.35556125640869 45.83330154418945 9.930172920227051 46.05694198608398 9.463644981384277 46.1835823059082 L 8.922005653381348 46.65010833740234 L 9.372117042541504 48.41838836669922 L 11.59486675262451 45.81977462768555 C 11.31656169891357 45.71271896362305 11.03247833251953 45.61802673339844 10.73775577545166 45.54177474975586 Z M 32.71322631835938 45.54694366455078 C 32.39894866943359 45.62724685668945 32.09731292724609 45.73230361938477 31.80261611938477 45.84655380249023 L 34.02131271362305 48.36486053466797 L 34.45703506469727 46.65097045898438 L 33.89064407348633 46.16371917724609 C 33.45086669921875 46.03102493286133 33.05831146240234 45.81374740600586 32.71322631835938 45.54694366455078 Z M 6.448866844177246 45.54694366455078 C 6.134589195251465 45.62724685668945 5.832977771759033 45.73230361938477 5.53825569152832 45.84655380249023 L 7.756950378417969 48.36486053466797 L 8.192700386047363 46.65097045898438 L 7.625144481658936 46.16371917724609 C 7.185367107391357 46.02902603149414 6.795116901397705 45.81374740600586 6.448866844177246 45.54694366455078 Z M 24.56686782836914 30.80377578735352 L 24.04767227172852 31.29102516174316 C 23.29994964599609 31.99874877929688 20.19422721862793 32.3231086730957 20.16342163085938 32.32827377319336 L 19.60422706604004 32.41691589355469 C 16.26797866821289 32.94247055053711 16.30911636352539 34.40710830688477 16.36581039428711 36.44132995605469 C 16.37417221069336 36.77288818359375 16.38136672973633 37.02816390991211 16.38136672973633 37.29610824584961 L 16.41647720336914 38.49311065673828 L 16.1784496307373 38.65080261230469 C 15.82214450836182 38.88566589355469 15.76228332519531 39.62216567993164 16.01786613464355 40.66661071777344 C 16.14881134033203 41.19502639770508 16.5123119354248 41.56599807739258 16.78831100463867 41.65032958984375 L 17.03556060791016 41.72458267211914 L 17.11931228637695 41.97238540649414 C 17.3573112487793 42.62858200073242 18.01839447021484 44.22102737426758 19.16589546203613 45.3138313293457 C 19.32647895812988 45.4660530090332 19.5006160736084 45.60507965087891 19.68078422546387 45.73602676391602 C 19.91158866882324 45.90066528320313 20.15653419494629 46.04396820068359 20.41928291320801 46.15621948242188 C 20.70364379882813 46.27683258056641 21.00642204284668 46.36116409301758 21.32789421081543 46.40144348144531 C 21.45883941650391 46.41497039794922 21.59067153930664 46.4313850402832 21.7276439666748 46.4313850402832 C 21.82464408874512 46.4313850402832 21.91214561462402 46.40374755859375 22.00683975219727 46.3953857421875 C 22.35392189025879 46.36547088623047 22.68144989013672 46.28113555908203 22.9957275390625 46.15019226074219 C 23.25733947753906 46.03994369506836 23.51089477539063 45.90094375610352 23.74778366088867 45.73199844360352 C 23.9290885925293 45.60335922241211 24.10003280639648 45.46232986450195 24.26494979858398 45.30777740478516 C 25.18161773681641 44.44463729858398 25.86228370666504 43.22319412231445 26.24247741699219 42.09527587890625 L 26.31672859191895 41.87166595458984 L 26.53403282165527 41.78299713134766 C 26.91708946228027 41.62557983398438 27.2446174621582 41.20019149780273 27.37039375305176 40.70257949829102 C 27.64753341674805 39.60027694702148 27.63603401184082 38.95877456665039 27.3436164855957 38.79385757446289 L 27.08000564575195 38.64332962036133 L 27.08000564575195 37.3196907043457 C 27.13236618041992 35.5511360168457 26.94300651550293 33.65277481079102 25.15170097351074 32.87827682495117 L 24.95397758483887 32.7916374206543 L 24.87683868408203 32.58988571166992 C 24.68228340148926 32.0787467956543 24.64514541625977 31.62863731384277 24.6379508972168 31.54430389404297 L 24.56686782836914 30.80377578735352 Z M 34.86111831665039 45.27094268798828 C 34.87667083740234 45.27094268798828 34.88903427124023 45.27294158935547 34.90544891357422 45.27294158935547 C 34.91781234741211 45.27294158935547 34.92906188964844 45.27497100830078 34.94142150878906 45.27497100830078 L 34.93536758422852 45.26891326904297 C 35.38780975341797 45.25569152832031 35.80283737182617 45.09997177124023 36.17670059204102 44.85908126831055 C 36.36722946166992 44.73646926879883 36.54853439331055 44.5914421081543 36.71747970581055 44.4265251159668 C 37.36014556884766 43.80138778686523 37.83819961547852 42.93194198608398 38.11103439331055 42.12749862670898 L 38.18528366088867 41.90388488769531 L 38.402587890625 41.81524658203125 C 38.65097808837891 41.71335983276367 38.86422729492188 41.43130493164063 38.94856262207031 41.09744262695313 C 39.21536636352539 40.03544235229492 39.04842376708984 39.84807968139648 38.99086761474609 39.81613540649414 L 38.72722625732422 39.66677474975586 L 38.72722625732422 38.60274887084961 C 38.78278350830078 36.79099655151367 38.37408828735352 35.8392219543457 37.36561584472656 35.40263748168945 L 37.1658935546875 35.31599807739258 L 37.0887565612793 35.11308288574219 C 36.94369888305664 34.72888565063477 36.91058731079102 34.39299774169922 36.90339279174805 34.29830169677734 L 36.8754768371582 34.01108169555664 L 36.68178176879883 34.19557952880859 C 36.08228302001953 34.75908279418945 33.72459030151367 34.99910736083984 33.70300674438477 35.00113677978516 L 33.29314422607422 35.06705474853516 C 30.91586685180664 35.44119262695313 30.9417839050293 36.43499755859375 30.9829216003418 37.94194412231445 C 30.98897743225098 38.14485931396484 30.99417304992676 38.36013793945313 30.99417304992676 38.58577728271484 L 31.02408981323242 39.54791641235352 L 30.78520011901855 39.70647048950195 C 30.62031173706055 39.81671905517578 30.51639556884766 40.23402404785156 30.72131156921387 41.07441329956055 C 30.80392265319824 41.40827560424805 31.03445053100586 41.66155242919922 31.20856094360352 41.71624755859375 L 31.455810546875 41.79049682617188 L 31.54070091247559 42.02938842773438 C 31.71167182922363 42.50022125244141 32.18136596679688 43.63419342041016 32.98778533935547 44.42738723754883 C 33.15242385864258 44.58797073364258 33.32855987548828 44.73533248901367 33.52022933959961 44.85994338989258 C 33.87020111083984 45.08760833740234 34.26997756958008 45.22660827636719 34.71492385864258 45.25452423095703 C 34.75205993652344 45.25655364990234 34.7851448059082 45.27294158935547 34.82314300537109 45.27294158935547 C 34.83636856079102 45.27294158935547 34.84761810302734 45.27094268798828 34.86111831665039 45.27094268798828 Z M 8.598783493041992 45.27094268798828 C 8.614033699035645 45.27094268798828 8.627561569213867 45.27294158935547 8.641950607299805 45.27294158935547 C 8.652311325073242 45.27294158935547 8.66267204284668 45.26891326904297 8.673922538757324 45.26891326904297 C 9.127200126647949 45.25569152832031 9.541366577148438 45.09997177124023 9.915227890014648 44.85908126831055 C 10.10689449310303 44.73646926879883 10.28706169128418 44.5914421081543 10.45600605010986 44.4265251159668 C 11.09867286682129 43.80138778686523 11.57672786712646 42.93194198608398 11.84956169128418 42.12749862670898 L 11.9238109588623 41.90388488769531 L 12.14111709594727 41.81524658203125 C 12.38920021057129 41.71335983276367 12.60361671447754 41.43130493164063 12.68795013427734 41.09744262695313 C 12.95272827148438 40.03544235229492 12.78667259216309 39.84807968139648 12.72908878326416 39.81613540649414 L 12.46633911132813 39.66677474975586 L 12.46633911132813 38.60274887084961 C 12.52072811126709 36.79099655151367 12.11203384399414 35.8392219543457 11.10356140136719 35.40263748168945 L 10.90470027923584 35.31599807739258 L 10.827561378479 35.11308288574219 C 10.68136692047119 34.73088836669922 10.64825534820557 34.39299774169922 10.64106178283691 34.29830169677734 L 10.61314487457275 34.01108169555664 L 10.41944980621338 34.19557952880859 C 9.819950103759766 34.75908279418945 7.462255954742432 34.99910736083984 7.438644886016846 35.00113677978516 L 7.029672622680664 35.06705474853516 C 4.65036678314209 35.44091415405273 4.677144527435303 36.43499755859375 4.719449996948242 37.9439697265625 C 4.725505828857422 38.14485931396484 4.730672359466553 38.36013793945313 4.730672359466553 38.58577728271484 L 4.760616779327393 39.54791641235352 L 4.521728038787842 39.70647048950195 C 4.355950355529785 39.81671905517578 4.252061367034912 40.23402404785156 4.456977844238281 41.07441329956055 C 4.539283752441406 41.40827560424805 4.770116806030273 41.66355514526367 4.943089008331299 41.71624755859375 L 5.190311431884766 41.79049682617188 L 5.278089046478271 42.02938842773438 C 5.449033737182617 42.50022125244141 5.919589042663574 43.63419342041016 6.725172519683838 44.42738723754883 C 6.89008903503418 44.58797073364258 7.066227912902832 44.73533248901367 7.258755683898926 44.85994338989258 C 7.607005596160889 45.08760833740234 8.007644653320313 45.22660827636719 8.45258903503418 45.25452423095703 C 8.489700317382813 45.25655364990234 8.522810935974121 45.27294158935547 8.560811042785645 45.27294158935547 C 8.574033737182617 45.27294158935547 8.58525562286377 45.27094268798828 8.598783493041992 45.27094268798828 Z"/></g></svg>