<svg xmlns="http://www.w3.org/2000/svg" width="18.218" height="15.277" viewBox="0 0 18.218 15.277"><defs><style>.a{fill:#fff;}</style></defs><g transform="translate(0.001 -27.798)"><g transform="translate(-0.001 27.798)"><g transform="translate(0 0)"><path class="a" d="M18.024,34.89,9.388,27.9a.437.437,0,0,0-.559,0L.193,34.89a.56.56,0,0,0-.1.732.445.445,0,0,0,.662.113L9.109,28.97l8.356,6.765a.441.441,0,0,0,.279.1.459.459,0,0,0,.382-.214A.56.56,0,0,0,18.024,34.89Z" transform="translate(0.001 -27.798)"/></g></g><g transform="translate(2.221 33.173)"><g transform="translate(0 0)"><path class="a" d="M69.769,232.543a.5.5,0,0,0-.459.523V241.4H65.636V236.85a2.316,2.316,0,1,0-4.592,0V241.4H57.37v-8.331a.463.463,0,1,0-.918,0v8.855a.494.494,0,0,0,.459.523H61.5a.488.488,0,0,0,.457-.483c0-.012,0-.026,0-.041V236.85a1.39,1.39,0,1,1,2.756,0v5.071c0,.015,0,.028,0,.04a.488.488,0,0,0,.457.483h4.592a.494.494,0,0,0,.459-.523v-8.855A.5.5,0,0,0,69.769,232.543Z" transform="translate(-56.452 -232.543)"/></g></g></g></svg>