<svg xmlns="http://www.w3.org/2000/svg" width="19" height="19" viewBox="0 0 19 19"><defs><style>.a{fill:#49545b;}</style></defs><g transform="translate(0)"><g transform="translate(3.582 5.408)"><path class="a" d="M98.67,145.733H96.889a.371.371,0,0,0-.371.371v2.078a.371.371,0,0,0,.371.371H98.67a.371.371,0,0,0,.371-.371V146.1A.371.371,0,0,0,98.67,145.733Zm-.371,2.078H97.26v-1.336H98.3Z" transform="translate(-96.518 -145.733)"/></g><g transform="translate(3.582 9.564)"><path class="a" d="M98.67,257.733H96.889a.371.371,0,0,0-.371.371v2.078a.371.371,0,0,0,.371.371H98.67a.371.371,0,0,0,.371-.371V258.1A.371.371,0,0,0,98.67,257.733Zm-.371,2.078H97.26v-1.336H98.3Z" transform="translate(-96.518 -257.733)"/></g><g transform="translate(3.582 13.721)"><path class="a" d="M98.67,369.733H96.889a.371.371,0,0,0-.371.371v2.078a.371.371,0,0,0,.371.371H98.67a.371.371,0,0,0,.371-.371V370.1A.371.371,0,0,0,98.67,369.733Zm-.371,2.078H97.26v-1.336H98.3Z" transform="translate(-96.518 -369.733)"/></g><g transform="translate(13.266 13.721)"><path class="a" d="M359.649,369.733h-1.781a.371.371,0,0,0-.371.371v2.078a.371.371,0,0,0,.371.371h1.781a.371.371,0,0,0,.371-.371V370.1A.371.371,0,0,0,359.649,369.733Zm-.371,2.078h-1.039v-1.336h1.039Z" transform="translate(-357.497 -369.733)"/></g><g transform="translate(6.81 5.408)"><path class="a" d="M185.663,145.733h-1.781a.371.371,0,0,0-.371.371v2.078a.371.371,0,0,0,.371.371h1.781a.371.371,0,0,0,.371-.371V146.1A.371.371,0,0,0,185.663,145.733Zm-.371,2.078h-1.039v-1.336h1.039Z" transform="translate(-183.511 -145.733)"/></g><g transform="translate(10.038 5.408)"><path class="a" d="M272.655,145.733h-1.781a.371.371,0,0,0-.371.371v2.078a.371.371,0,0,0,.371.371h1.781a.371.371,0,0,0,.371-.371V146.1A.371.371,0,0,0,272.655,145.733Zm-.371,2.078h-1.039v-1.336h1.039Z" transform="translate(-270.503 -145.733)"/></g><g transform="translate(6.81 9.564)"><path class="a" d="M185.663,257.733h-1.781a.371.371,0,0,0-.371.371v2.078a.371.371,0,0,0,.371.371h1.781a.371.371,0,0,0,.371-.371V258.1A.371.371,0,0,0,185.663,257.733Zm-.371,2.078h-1.039v-1.336h1.039Z" transform="translate(-183.511 -257.733)"/></g><g transform="translate(10.038 9.564)"><path class="a" d="M272.655,257.733h-1.781a.371.371,0,0,0-.371.371v2.078a.371.371,0,0,0,.371.371h1.781a.371.371,0,0,0,.371-.371V258.1A.371.371,0,0,0,272.655,257.733Zm-.371,2.078h-1.039v-1.336h1.039Z" transform="translate(-270.503 -257.733)"/></g><g transform="translate(13.266 5.408)"><path class="a" d="M359.649,145.733h-1.781a.371.371,0,0,0-.371.371v2.078a.371.371,0,0,0,.371.371h1.781a.371.371,0,0,0,.371-.371V146.1A.371.371,0,0,0,359.649,145.733Zm-.371,2.078h-1.039v-1.336h1.039Z" transform="translate(-357.497 -145.733)"/></g><g transform="translate(13.266 9.564)"><path class="a" d="M359.649,257.733h-1.781a.371.371,0,0,0-.371.371v2.078a.371.371,0,0,0,.371.371h1.781a.371.371,0,0,0,.371-.371V258.1A.371.371,0,0,0,359.649,257.733Zm-.371,2.078h-1.039v-1.336h1.039Z" transform="translate(-357.497 -257.733)"/></g><path class="a" d="M18.629,18.258H17.237V3.862a.371.371,0,0,0-.371-.371h-2.06V2.152a.371.371,0,0,0-.371-.371H12.395V.371A.371.371,0,0,0,12.023,0H6.977a.371.371,0,0,0-.371.371v1.41H4.565a.371.371,0,0,0-.371.371V3.491H2.134a.371.371,0,0,0-.371.371v14.4H.371a.371.371,0,0,0,0,.742H18.629a.371.371,0,1,0,0-.742ZM7.348.742h4.3V1.781h-4.3Zm3.711,17.516H8.491l2.568-2.568Zm0-3.615-.024.022L7.941,17.758V16.185l2.38-2.38h.737Zm-3.117.492V13.8H9.272Zm8.553,3.122H11.8V13.8h.13a.371.371,0,0,0,0-.742H7.069a.371.371,0,0,0,0,.742H7.2v4.453H2.505V4.233H6.625a.371.371,0,1,0,0-.742H4.936V2.523h9.128v.967H9.557a.371.371,0,1,0,0,.742h6.938Z"/><g transform="translate(7.701 3.491)"><path class="a" d="M208.143,94.169a.371.371,0,1,0,.109.262A.374.374,0,0,0,208.143,94.169Z" transform="translate(-207.51 -94.06)"/></g></g></svg>