<svg xmlns="http://www.w3.org/2000/svg" width="41" height="32.854" viewBox="0 0 41 32.854"><defs><style>.a{fill:#fdae4e;}</style></defs><g transform="translate(0 -0.5)"><path class="a" d="M36.72,17.344l-2.013-6.812a.8.8,0,0,0-.037-.1,3.917,3.917,0,0,0-.438-.747h.187a.8.8,0,1,0,0-1.6H29.436V5.993A5.5,5.5,0,0,0,23.944.5H.8a.8.8,0,0,0-.8.8V28.725a.8.8,0,0,0,.8.8H5.249a4.63,4.63,0,0,0,9.12,0H27.9a4.63,4.63,0,0,0,9.12,0H40.2a.8.8,0,0,0,.8-.8V22.779a5.6,5.6,0,0,0-4.28-5.435ZM35,17.189H29.436V9.69l1.641.009h0a2.342,2.342,0,0,1,2.108,1.342ZM1.6,2.1H23.143v8.4a.8.8,0,1,0,1.6,0V2.185a3.9,3.9,0,0,1,3.09,3.808V27.925h-3.09V17.744a.8.8,0,1,0-1.6,0V27.925H14.369a4.63,4.63,0,0,0-9.12,0H1.6ZM9.809,31.753a3.028,3.028,0,1,1,3.028-3.028A3.031,3.031,0,0,1,9.809,31.753Zm22.656,0a3.028,3.028,0,1,1,3.028-3.028A3.031,3.031,0,0,1,32.464,31.753ZM39.4,27.925H37.025a4.628,4.628,0,0,0-7.588-2.7V18.79H35.41A3.994,3.994,0,0,1,39.4,22.779Zm0,0" transform="translate(0 0)"/><path class="a" d="M80.035,86.081H88.32a2.367,2.367,0,0,0,2.364-2.364V75.165a.8.8,0,0,0-.8-.8H87.675a3.5,3.5,0,0,0-6.995,0H78.472a.8.8,0,0,0-.8.8v8.552a2.367,2.367,0,0,0,2.364,2.364Zm4.142-13.409a1.9,1.9,0,0,1,1.89,1.692H82.287a1.9,1.9,0,0,1,1.89-1.692Zm-4.9,3.294h1.4v1.79a.8.8,0,1,0,1.6,0v-1.79h3.8v1.79a.8.8,0,1,0,1.6,0v-1.79h1.4v7.751a.763.763,0,0,1-.762.762H80.035a.763.763,0,0,1-.762-.762Zm0,0" transform="translate(-71.452 -64.919)"/><path class="a" d="M289.823,162.059a.8.8,0,1,1,.789-.67A.809.809,0,0,1,289.823,162.059Zm0,0" transform="translate(-265.879 -147.151)"/></g></svg>