<svg xmlns="http://www.w3.org/2000/svg" width="252.8" height="121.599" viewBox="0 0 252.8 121.599"><g transform="translate(-61.333 -299.989)"><g transform="translate(61.333 299.989)"><g transform="translate(224.012 0.494)"><path d="M925.8,324.538c-1.152-.845-.986-.572-.743-3.094.261-2.222.67-1.271-.752-2.941-1.316-1.5-2.834-4.069-3.852-5.208-.974.683-3.68,5.466-4.922,6.732-.254-.333-.459-.6-.719-.967-.414-.569-.387-.422-.085-1.241.61-1.793,2.56-7.536,2.8-8.649-.847-1.248-3.373-4.5-3.538-5.762-.076-.6-.111-1.58.658-1.534,1.894.132,3.5,3.178,4.821,5.1.529.774.45.56,1.4.568,1.035.033,8.505.053,8.937.314.137.125.833,1.173.986,1.372a19.793,19.793,0,0,1-2.053.621l-4.009,1.146a12.672,12.672,0,0,0-2.016.615c.66.864,1.247,1.742,1.915,2.644,3.291,4.475,1.543,3.9,4.408,4.527,1.6.383,2.478.213,2.531,1.689-2.987.3-4.672,1.463-5.773,4.073Z" transform="translate(-913.95 -301.87)" fill="#d1d3d4" fill-rule="evenodd"/><path d="M969.645,380.768a.473.473,0,0,0-.826.462l.456.79a.455.455,0,1,0,.788-.455Z" transform="translate(-954.363 -359.861)" fill="#d1d3d4" fill-rule="evenodd"/><path d="M966.184,758.275c-.276.548.565.958.806.418l.258-.43a.465.465,0,0,0-.81-.456Z" transform="translate(-952.42 -637.842)" fill="#d1d3d4" fill-rule="evenodd"/><path d="M972.033,746.136a.481.481,0,0,0,.849.448l.411-.843a.453.453,0,1,0-.8-.416Z" transform="translate(-956.732 -628.624)" fill="#d1d3d4" fill-rule="evenodd"/><path d="M978.468,733.47a.454.454,0,0,0,.806.417l.411-.84a.468.468,0,1,0-.841-.41Z" transform="translate(-961.473 -619.254)" fill="#d1d3d4" fill-rule="evenodd"/><path d="M984.361,720.7a.472.472,0,0,0,.87.366l.374-.833a.472.472,0,1,0-.87-.366Z" transform="translate(-965.833 -609.821)" fill="#d1d3d4" fill-rule="evenodd"/><path d="M990,707.717a.473.473,0,0,0,.872.366l.331-.861a.474.474,0,0,0-.872-.369Z" transform="translate(-969.991 -600.249)" fill="#d1d3d4" fill-rule="evenodd"/><path d="M995.2,694.6a.461.461,0,1,0,.861.331l.323-.9c.208-.5-.631-.906-.892-.285Z" transform="translate(-973.818 -590.552)" fill="#d1d3d4" fill-rule="evenodd"/><path d="M999.958,681.264a.454.454,0,0,0,.858.295l.32-.9c.153-.6-.733-.849-.892-.288Z" transform="translate(-977.341 -580.694)" fill="#d1d3d4" fill-rule="evenodd"/><path d="M1004.235,667.819a.459.459,0,1,0,.883.249l.252-.887c.188-.608-.727-.812-.886-.249Z" transform="translate(-980.5 -570.774)" fill="#d1d3d4" fill-rule="evenodd"/><path d="M1008.007,654.182a.461.461,0,1,0,.887.25l.249-.888c.159-.562-.734-.848-.885-.249Z" transform="translate(-983.282 -560.718)" fill="#d1d3d4" fill-rule="evenodd"/><path d="M1011.389,640.469a.462.462,0,1,0,.908.168l.214-.878c.106-.63-.838-.792-.915-.205Z" transform="translate(-985.782 -550.564)" fill="#d1d3d4" fill-rule="evenodd"/><path d="M1014.1,626.615a.48.48,0,0,0,.946.162l.133-.9a.462.462,0,0,0-.907-.168Z" transform="translate(-987.782 -540.351)" fill="#d1d3d4" fill-rule="evenodd"/><path d="M1016.418,612.686a.474.474,0,0,0,.938.127l.126-.938a.474.474,0,0,0-.939-.125Z" transform="translate(-989.494 -530.044)" fill="#d1d3d4" fill-rule="evenodd"/><path d="M1018.242,598.654a.449.449,0,1,0,.894.1l.09-.93a.45.45,0,1,0-.894-.1Z" transform="translate(-990.838 -519.683)" fill="#d1d3d4" fill-rule="evenodd"/><path d="M1019.348,584.614a.463.463,0,0,0,.924.05l.053-.922a.463.463,0,1,0-.924-.052Z" transform="translate(-991.655 -509.317)" fill="#d1d3d4" fill-rule="evenodd"/><path d="M1019.859,570.538a.479.479,0,0,0,.954.008l.008-.955a.455.455,0,1,0-.909.021Z" transform="translate(-992.033 -498.922)" fill="#d1d3d4" fill-rule="evenodd"/><path d="M1019.849,556.432a.456.456,0,1,0,.911-.021c.018-.307,0-.609.009-.954-.026-.528-.956-.616-.946.029.025.339.008.647.026.947Z" transform="translate(-992.006 -488.517)" fill="#d1d3d4" fill-rule="evenodd"/><path d="M1019.227,542.335a.452.452,0,1,0,.9-.058l-.057-.9a.454.454,0,1,0-.9.058Z" transform="translate(-991.52 -478.127)" fill="#d1d3d4" fill-rule="evenodd"/><path d="M1017.914,528.27a.47.47,0,0,0,.934-.1l-.1-.932a.468.468,0,0,0-.926.139Z" transform="translate(-990.526 -467.733)" fill="#d1d3d4" fill-rule="evenodd"/><path d="M1016,514.316a.469.469,0,0,0,.927-.139l-.139-.926a.468.468,0,0,0-.926.139Z" transform="translate(-989.084 -457.423)" fill="#d1d3d4" fill-rule="evenodd"/><path d="M1013.656,500.4a.467.467,0,0,0,.918-.175c-.054-.294-.118-.625-.173-.919-.106-.552-1.039-.449-.92.175.064.331.118.625.175.919Z" transform="translate(-987.323 -447.17)" fill="#d1d3d4" fill-rule="evenodd"/><path d="M1010.632,486.628a.468.468,0,1,0,.912-.213l-.206-.876a.468.468,0,0,0-.911.212Z" transform="translate(-985.066 -437.019)" fill="#d1d3d4" fill-rule="evenodd"/><path d="M1007.188,472.959a.451.451,0,1,0,.869-.241l-.249-.907a.45.45,0,0,0-.868.243Z" transform="translate(-982.496 -426.917)" fill="#d1d3d4" fill-rule="evenodd"/><path d="M1003.146,459.472c.177.536,1.088.325.9-.287-.092-.287-.194-.611-.286-.9a.452.452,0,0,0-.861.279,7.961,7.961,0,0,1,.25.905Z" transform="translate(-979.506 -416.96)" fill="#d1d3d4" fill-rule="evenodd"/><path d="M998.615,446.088a.456.456,0,1,0,.855-.315l-.323-.891a.456.456,0,0,0-.855.315Z" transform="translate(-976.107 -407.095)" fill="#d1d3d4" fill-rule="evenodd"/><path d="M993.535,432.889a.455.455,0,1,0,.853-.316l-.322-.889c-.216-.531-1.107-.209-.883.358Z" transform="translate(-972.34 -397.378)" fill="#d1d3d4" fill-rule="evenodd"/><path d="M988.131,419.889a.462.462,0,0,0,.839-.389l-.352-.847a.463.463,0,1,0-.841.389Z" transform="translate(-968.344 -387.766)" fill="#d1d3d4" fill-rule="evenodd"/><path d="M982.242,407.04a.462.462,0,0,0,.837-.39l-.4-.875a.467.467,0,0,0-.832.426Z" transform="translate(-963.973 -378.284)" fill="#d1d3d4" fill-rule="evenodd"/><path d="M975.928,394.485a.468.468,0,0,0,.831-.427l-.424-.833a.468.468,0,0,0-.834.425Z" transform="translate(-959.284 -369.036)" fill="#d1d3d4" fill-rule="evenodd"/></g><g transform="translate(0)"><path d="M76.944,670.269c.983,1.038.868.739.179,3.177-.653,2.14-.886,1.132.218,3.029,1.025,1.713,2.063,4.509,2.861,5.811,1.081-.5,4.594-4.721,6.045-5.745.19.371.342.669.534,1.078.305.634.3.484-.138,1.238-.92,1.654-3.862,6.958-4.3,8.01.61,1.379,2.518,5.029,2.454,6.3-.031.6-.171,1.575-.922,1.392-1.839-.466-2.879-3.75-3.835-5.873-.383-.856-.342-.633-1.282-.811-1.012-.215-8.359-1.568-8.736-1.9-.112-.148-.61-1.3-.726-1.526a19.8,19.8,0,0,1,2.131-.245l4.15-.412a12.98,12.98,0,0,0,2.092-.245c-.495-.969-.915-1.938-1.413-2.943-2.441-4.99-.824-4.108-3.529-5.241-1.5-.661-2.4-.652-2.191-2.113,2.995.234,4.859-.606,6.407-2.978Z" transform="translate(-67.204 -572.984)" fill="#d1d3d4" fill-rule="evenodd"/><path d="M83.514,670.389a.473.473,0,0,0,.9-.307l-.308-.858a.456.456,0,1,0-.858.307Z" transform="translate(-77.467 -571.983)" fill="#d1d3d4" fill-rule="evenodd"/><path d="M154.308,300.734c.368-.491-.388-1.044-.72-.555l-.331.376a.465.465,0,0,0,.716.593Z" transform="translate(-129.022 -299.989)" fill="#d1d3d4" fill-rule="evenodd"/><path d="M145.87,310.594c.369-.489-.385-1.044-.756-.592l-.552.755a.452.452,0,1,0,.714.553Z" transform="translate(-122.618 -307.248)" fill="#d1d3d4" fill-rule="evenodd"/><path d="M137.4,321.842a.453.453,0,0,0-.717-.555l-.553.753a.467.467,0,1,0,.752.554Z" transform="translate(-116.4 -315.556)" fill="#d1d3d4" fill-rule="evenodd"/><path d="M129.346,333.366a.472.472,0,0,0-.79-.514l-.518.752a.473.473,0,1,0,.792.515Z" transform="translate(-110.454 -324.067)" fill="#d1d3d4" fill-rule="evenodd"/><path d="M121.588,345.119a.472.472,0,0,0-.79-.516l-.48.788a.474.474,0,0,0,.792.518Z" transform="translate(-104.762 -332.731)" fill="#d1d3d4" fill-rule="evenodd"/><path d="M114.2,357.066a.463.463,0,1,0-.791-.48l-.477.829c-.294.452.458,1.005.826.441Z" transform="translate(-99.324 -341.553)" fill="#d1d3d4" fill-rule="evenodd"/><path d="M107.242,369.322a.454.454,0,0,0-.793-.442l-.476.829c-.257.562.571.967.827.441Z" transform="translate(-94.209 -350.612)" fill="#d1d3d4" fill-rule="evenodd"/><path d="M100.736,381.763a.459.459,0,1,0-.826-.4l-.406.826c-.293.565.571.928.83.4Z" transform="translate(-89.431 -359.782)" fill="#d1d3d4" fill-rule="evenodd"/><path d="M94.626,394.5a.461.461,0,1,0-.829-.405l-.4.829c-.256.525.571.966.828.4Z" transform="translate(-84.935 -369.168)" fill="#d1d3d4" fill-rule="evenodd"/><path d="M88.955,407.35a.462.462,0,1,0-.864-.327l-.366.825c-.218.6.682.93.864.366Z" transform="translate(-80.766 -378.678)" fill="#d1d3d4" fill-rule="evenodd"/><path d="M83.911,420.485a.479.479,0,0,0-.9-.327l-.291.864a.462.462,0,0,0,.863.328Z" transform="translate(-77.074 -388.358)" fill="#d1d3d4" fill-rule="evenodd"/><path d="M79.225,433.739a.475.475,0,0,0-.9-.292l-.292.9a.474.474,0,0,0,.9.291Z" transform="translate(-73.626 -398.155)" fill="#d1d3d4" fill-rule="evenodd"/><path d="M75.154,447.222a.45.45,0,1,0-.864-.253l-.252.9a.45.45,0,1,0,.862.253Z" transform="translate(-70.682 -408.111)" fill="#d1d3d4" fill-rule="evenodd"/><path d="M71.6,460.822a.464.464,0,0,0-.9-.215l-.214.9a.462.462,0,1,0,.9.217Z" transform="translate(-68.073 -418.148)" fill="#d1d3d4" fill-rule="evenodd"/><path d="M68.62,474.617a.478.478,0,0,0-.937-.178l-.178.939a.455.455,0,1,0,.9.141Z" transform="translate(-65.877 -428.345)" fill="#d1d3d4" fill-rule="evenodd"/><path d="M66.167,488.467a.456.456,0,1,0-.9-.141c-.071.3-.1.6-.177.937-.07.525.83.777.935.141.037-.339.108-.638.144-.936Z" transform="translate(-64.099 -438.556)" fill="#d1d3d4" fill-rule="evenodd"/><path d="M64.371,502.479a.453.453,0,1,0-.9-.1l-.1.9a.453.453,0,1,0,.9.1Z" transform="translate(-62.83 -448.895)" fill="#d1d3d4" fill-rule="evenodd"/><path d="M63.092,516.5a.469.469,0,0,0-.936-.066l-.065.936a.468.468,0,0,0,.935.029Z" transform="translate(-61.891 -459.248)" fill="#d1d3d4" fill-rule="evenodd"/><path d="M62.48,530.563a.468.468,0,0,0-.935-.028l-.029.935a.468.468,0,0,0,.936.029Z" transform="translate(-61.467 -469.642)" fill="#d1d3d4" fill-rule="evenodd"/><path d="M62.269,544.683a.468.468,0,0,0-.936.009c0,.3.006.635.009.934,0,.562.942.628.936-.008,0-.337-.007-.636-.009-.934Z" transform="translate(-61.333 -480.055)" fill="#d1d3d4" fill-rule="evenodd"/><path d="M62.683,558.783a.469.469,0,1,0-.936.046l.047.9a.468.468,0,0,0,.935-.046Z" transform="translate(-61.637 -490.453)" fill="#d1d3d4" fill-rule="evenodd"/><path d="M63.627,572.825a.45.45,0,1,0-.9.083l.083.936a.45.45,0,0,0,.9-.084Z" transform="translate(-62.36 -500.83)" fill="#d1d3d4" fill-rule="evenodd"/><path d="M65.077,586.858c-.081-.56-1.015-.513-.935.121.042.3.081.636.123.935a.452.452,0,0,0,.9-.122,7.539,7.539,0,0,1-.083-.935Z" transform="translate(-63.4 -511.2)" fill="#d1d3d4" fill-rule="evenodd"/><path d="M67.013,600.827a.454.454,0,1,0-.895.158l.157.934a.456.456,0,0,0,.9-.157Z" transform="translate(-64.853 -521.507)" fill="#d1d3d4" fill-rule="evenodd"/><path d="M69.566,614.768a.455.455,0,1,0-.9.158l.158.933a.478.478,0,0,0,.933-.2Z" transform="translate(-66.735 -531.786)" fill="#d1d3d4" fill-rule="evenodd"/><path d="M72.528,628.506a.463.463,0,0,0-.9.233l.194.9a.463.463,0,1,0,.9-.233Z" transform="translate(-68.914 -541.941)" fill="#d1d3d4" fill-rule="evenodd"/><path d="M75.929,642.167a.463.463,0,0,0-.9.233l.234.932a.467.467,0,0,0,.894-.27Z" transform="translate(-71.42 -552.016)" fill="#d1d3d4" fill-rule="evenodd"/><path d="M79.767,655.709a.468.468,0,0,0-.9.272l.269.9a.468.468,0,0,0,.9-.271Z" transform="translate(-74.25 -562.014)" fill="#d1d3d4" fill-rule="evenodd"/></g></g><g transform="translate(223.32 391.815)"><path d="M678.806,651.4a8.763,8.763,0,0,1,2.472-1.42,7.534,7.534,0,0,1,2.636-.492,7.738,7.738,0,0,1,2.008.246,4.308,4.308,0,0,1,1.584.778,3.533,3.533,0,0,1,1.038,1.38,5.122,5.122,0,0,1,.369,2.049q0,1.748-.041,3.237t-.041,2.964a4.271,4.271,0,0,0,.1,1.024,1.2,1.2,0,0,0,.287.56.909.909,0,0,0,.506.246,4.223,4.223,0,0,0,.724.055v.655q-.793.328-1.339.492a4.069,4.069,0,0,1-1.175.164,2.584,2.584,0,0,1-1.639-.492,3.021,3.021,0,0,1-.956-1.42,5.166,5.166,0,0,1-1.461,1.393,3.889,3.889,0,0,1-2.09.519,5.126,5.126,0,0,1-1.776-.273,3.084,3.084,0,0,1-1.912-1.926,3.989,3.989,0,0,1-.218-1.3,3.866,3.866,0,0,1,.287-1.557,3.142,3.142,0,0,1,.819-1.12,4.753,4.753,0,0,1,1.27-.779,10.305,10.305,0,0,1,1.666-.533q1.148-.273,1.817-.478a4.4,4.4,0,0,0,1-.41.986.986,0,0,0,.424-.451,1.667,1.667,0,0,0,.1-.6,2.29,2.29,0,0,0-.7-1.68,2.6,2.6,0,0,0-1.926-.7,3.933,3.933,0,0,0-.956.123,4.843,4.843,0,0,0-.942.341,5.908,5.908,0,0,0-.819.478,2.031,2.031,0,0,0-.56.56h-.191Zm6.474,7.43q0-1.174.014-1.789t.014-1.079a6.317,6.317,0,0,1-1.216.533,5.744,5.744,0,0,0-1.174.519,2.548,2.548,0,0,0-.874.86,3.012,3.012,0,0,0-.341,1.584,2.434,2.434,0,0,0,.423,1.543,1.373,1.373,0,0,0,1.134.533,1.8,1.8,0,0,0,1.461-.683A3.13,3.13,0,0,0,685.28,658.83Z" transform="translate(-677.877 -649.488)" fill="#00ae94"/><path d="M740.464,653.461a6.839,6.839,0,0,1,1.721-2.773,3.523,3.523,0,0,1,2.4-.888,1.663,1.663,0,0,1,.232.014,1.44,1.44,0,0,0,.2.014,8.145,8.145,0,0,0-.123.874q-.041.465-.041,1.093v1.338a3.7,3.7,0,0,0,.027.464l-.246.218a2.959,2.959,0,0,0-.615-.273,2.559,2.559,0,0,0-.779-.109,2.454,2.454,0,0,0-1.939.806,2.778,2.778,0,0,0-.71,1.9v1.093q0,1.666.041,3.141t.178,2.841a5.912,5.912,0,0,0-.888-.055h-2.308a6.367,6.367,0,0,0-.9.055q.136-1.366.177-2.841t.041-3.141v-1.093q0-1.665-.041-3.128t-.177-2.936q.464.055.942.1t.943.041q.464,0,.942-.041t.942-.1l-.082,3.333Z" transform="translate(-721.261 -649.719)" fill="#00ae94"/><path d="M781.519,656.454a9.152,9.152,0,0,0,.219,2.049,5.106,5.106,0,0,0,.669,1.653,3.286,3.286,0,0,0,1.147,1.093,3.229,3.229,0,0,0,1.625.4,5.1,5.1,0,0,0,3.36-1.229l.328.246-.6,1.53a5.545,5.545,0,0,1-1.639.833,8.259,8.259,0,0,1-2.513.314,8.617,8.617,0,0,1-2.54-.369,5.417,5.417,0,0,1-2.117-1.216,5.94,5.94,0,0,1-1.448-2.144,8.141,8.141,0,0,1-.533-3.1,9.009,9.009,0,0,1,.478-3.087,6.081,6.081,0,0,1,1.325-2.185,5.415,5.415,0,0,1,2.007-1.311,7.119,7.119,0,0,1,2.527-.437,5.3,5.3,0,0,1,4.138,1.585,6.444,6.444,0,0,1,1.434,4.48v.574a1.264,1.264,0,0,1-.027.328Zm4.206-1.229a10.582,10.582,0,0,0-.505-3.278,1.581,1.581,0,0,0-1.516-1.229,1.373,1.373,0,0,0-1.011.41,2.961,2.961,0,0,0-.656,1.052,7.007,7.007,0,0,0-.369,1.448,13.683,13.683,0,0,0-.15,1.6Z" transform="translate(-751.308 -649.488)" fill="#00ae94"/></g><g transform="translate(66.764 329.062)"><g transform="translate(0 0)"><path d="M84.526,572.624c-1.729,0-2.557-.909-2.522-2.758.033-1.755.8-2.564,2.5-2.565,8.762,0,12.291,0,21.053.007a4.032,4.032,0,0,1,.866.065c.875.193,1.374,1.037,1.409,2.461s-.421,2.347-1.29,2.622a3.936,3.936,0,0,1-1.185.152C101.017,572.618,88.871,572.625,84.526,572.624Z" transform="translate(-82.003 -526.141)" fill="#17af96"/><path d="M120.7,513.334c3.149,0,1.065,0,4.214,0a5.363,5.363,0,0,1,1.191.094c.828.19,1.3,1.02,1.346,2.36.05,1.415-.371,2.383-1.239,2.689a3.874,3.874,0,0,1-1.292.174c-6.334.01-7.435.009-13.769,0a4.3,4.3,0,0,1-1.187-.131c-.922-.265-1.418-1.259-1.363-2.723.051-1.368.566-2.275,1.46-2.4a10.362,10.362,0,0,1,1.41-.066Q116.081,513.329,120.7,513.334Z" transform="translate(-101.607 -486.353)" fill="#17af96"/><path d="M137.578,464.816a5.124,5.124,0,0,1-1.08-.1c-.891-.2-1.366-1.153-1.377-2.515s.456-2.523,1.342-2.537c4.8-.077,4.371-.086,9.173-.011.924.014,1.41,1.163,1.362,2.662-.052,1.622-.7,2.437-1.645,2.458C143.076,464.82,139.637,464.825,137.578,464.816Z" transform="translate(-121.165 -446.736)" fill="#17af96"/><path d="M163.244,415.845c-.985-.024-1.543-.922-1.661-2.461-.1-1.327.552-2.664,1.491-2.708a14.557,14.557,0,0,1,2.006.008c.975.054,1.515,1.308,1.423,2.762-.1,1.507-.652,2.338-1.569,2.384A11.032,11.032,0,0,1,163.244,415.845Z" transform="translate(-140.667 -410.645)" fill="#17af96"/></g></g><g transform="translate(272.774 328.369)"><path d="M899.669,560.568a8.055,8.055,0,1,0,8.057,8.055,8.053,8.053,0,0,0-8.057-8.055Zm0,11.557a3.5,3.5,0,1,1,3.5-3.5,3.5,3.5,0,0,1-3.5,3.5Zm0,0" transform="translate(-884.911 -520.485)" fill="#00ae94"/><path d="M896.646,435.353c-2.954-.767-4.644-1.25-5.8-3.49l-3.878-7.852a8.3,8.3,0,0,0-6.7-4.073h-5.3a.684.684,0,0,1-.713-.7v-6.586c0-2.554-1.445-4.642-4.519-4.642H866.1v48.625h3.868c.41,0,.393-.346.393-.486a10.5,10.5,0,0,1,21,0c0,.163,0,.486.253.486h5.217a4.6,4.6,0,0,0,4.587-4.587v-8.714C901.415,435.991,899.1,435.991,896.646,435.353Zm-8.728-.409H874.861a.611.611,0,0,1-.611-.525V423.544s-.031-.419.661-.419h3.725a7.386,7.386,0,0,1,5.959,3.624l3.452,6.987a5.492,5.492,0,0,0,.466.755C888.635,434.656,888.43,434.944,887.918,434.944Z" transform="translate(-866.102 -408.006)" fill="#00ae94"/></g><path d="M372.462,518.125a13.05,13.05,0,0,1,3.682-2.116,11.226,11.226,0,0,1,3.927-.732,11.516,11.516,0,0,1,2.991.366,6.416,6.416,0,0,1,2.36,1.16,5.26,5.26,0,0,1,1.546,2.055,7.626,7.626,0,0,1,.549,3.052q0,2.6-.061,4.822t-.061,4.415a6.358,6.358,0,0,0,.142,1.526,1.784,1.784,0,0,0,.427.834,1.355,1.355,0,0,0,.753.367,6.307,6.307,0,0,0,1.078.081v.977q-1.18.489-1.994.733a6.058,6.058,0,0,1-1.75.244,3.846,3.846,0,0,1-2.442-.732,4.5,4.5,0,0,1-1.424-2.116,7.687,7.687,0,0,1-2.177,2.075,5.793,5.793,0,0,1-3.113.773,7.645,7.645,0,0,1-2.645-.407,4.594,4.594,0,0,1-2.848-2.869,5.951,5.951,0,0,1-.326-1.933,5.758,5.758,0,0,1,.427-2.319,4.674,4.674,0,0,1,1.221-1.668,7.075,7.075,0,0,1,1.892-1.16,15.312,15.312,0,0,1,2.482-.794q1.709-.406,2.706-.712a6.542,6.542,0,0,0,1.485-.61,1.468,1.468,0,0,0,.631-.671,2.481,2.481,0,0,0,.142-.9,3.411,3.411,0,0,0-1.038-2.5,3.877,3.877,0,0,0-2.869-1.038,5.858,5.858,0,0,0-1.424.183,7.243,7.243,0,0,0-1.4.509,8.8,8.8,0,0,0-1.221.712,3.046,3.046,0,0,0-.834.834h-.285Zm9.644,11.068q0-1.749.021-2.665t.02-1.607a9.4,9.4,0,0,1-1.811.793,8.569,8.569,0,0,0-1.75.773,3.8,3.8,0,0,0-1.3,1.282,4.484,4.484,0,0,0-.509,2.36,3.625,3.625,0,0,0,.631,2.3,2.046,2.046,0,0,0,1.689.793,2.681,2.681,0,0,0,2.177-1.017A4.662,4.662,0,0,0,382.105,529.193Z" transform="translate(-228.364 -158.723)" fill="#17af96"/><path d="M468.863,517.351a5.3,5.3,0,0,1,1.607,1.851,5.648,5.648,0,0,1,.59,2.666,6.511,6.511,0,0,1-.57,2.747,6.214,6.214,0,0,1-1.607,2.136,7.366,7.366,0,0,1-2.482,1.384,10.067,10.067,0,0,1-3.235.488q-.448,0-.875-.02t-.956-.021a1.026,1.026,0,0,0-.834.448,1.62,1.62,0,0,0-.346,1.017,1.835,1.835,0,0,0,.753,1.546,4.137,4.137,0,0,0,2.38.61l3.011.041a8.4,8.4,0,0,1,5.026,1.282,4.7,4.7,0,0,1,1.607,3.968,7.777,7.777,0,0,1-1,4.089,8.38,8.38,0,0,1-2.564,2.686,10.637,10.637,0,0,1-3.479,1.485,16.249,16.249,0,0,1-3.7.448,10.33,10.33,0,0,1-5.961-1.485,4.861,4.861,0,0,1-1.058-7.08,7.281,7.281,0,0,1,2.91-1.892v-.081a3.731,3.731,0,0,1-1.689-1.119,2.843,2.843,0,0,1-.631-1.892,4.066,4.066,0,0,1,1.038-2.6,5.136,5.136,0,0,1,2.747-1.709v-.081a7.032,7.032,0,0,1-3.825-2.2,6.307,6.307,0,0,1-1.384-4.232,5.935,5.935,0,0,1,.631-2.767,5.847,5.847,0,0,1,1.77-2.055,8.468,8.468,0,0,1,2.726-1.282,12.869,12.869,0,0,1,3.5-.448q.733,0,1.506.061t1.505.1q.528.041,1.078.061t1.2.021q1.017,0,2.116-.021t2.2-.02q-.041.244-.061.488c-.014.163-.02.326-.02.488s.006.326.02.488.034.326.061.488l-3.581-.163Zm-.651,22.34a4.047,4.047,0,0,0-.407-1.932,2.809,2.809,0,0,0-1.16-1.16,5.311,5.311,0,0,0-1.851-.549,19.35,19.35,0,0,0-2.482-.143,7.253,7.253,0,0,0-2.93.407,2.961,2.961,0,0,0-1.038,1.18,5.256,5.256,0,0,0-.122,4.415,4.059,4.059,0,0,0,1.16,1.445,5.392,5.392,0,0,0,1.689.875,6.728,6.728,0,0,0,2.055.305,5.5,5.5,0,0,0,2.116-.386,4.887,4.887,0,0,0,1.607-1.058,4.511,4.511,0,0,0,1.017-1.546A5,5,0,0,0,468.212,539.691ZM462.8,516.944q-2.768,0-2.767,5.371a8.916,8.916,0,0,0,.244,2.258,4.884,4.884,0,0,0,.631,1.485,2.4,2.4,0,0,0,.854.814,2.043,2.043,0,0,0,.956.244,2.133,2.133,0,0,0,1.994-1.18,8.839,8.839,0,0,0,.651-3.988,7.5,7.5,0,0,0-.732-3.886A2.146,2.146,0,0,0,462.8,516.944Z" transform="translate(-289.568 -158.723)" fill="#17af96"/><path d="M550.949,517.351a5.3,5.3,0,0,1,1.608,1.851,5.647,5.647,0,0,1,.59,2.666,6.507,6.507,0,0,1-.57,2.747,6.214,6.214,0,0,1-1.607,2.136,7.365,7.365,0,0,1-2.482,1.384,10.068,10.068,0,0,1-3.235.488c-.3,0-.59-.006-.875-.02s-.6-.021-.956-.021a1.026,1.026,0,0,0-.834.448,1.618,1.618,0,0,0-.346,1.017,1.835,1.835,0,0,0,.753,1.546,4.138,4.138,0,0,0,2.381.61l3.011.041a8.4,8.4,0,0,1,5.026,1.282,4.7,4.7,0,0,1,1.608,3.968,7.774,7.774,0,0,1-1,4.089,8.379,8.379,0,0,1-2.563,2.686,10.645,10.645,0,0,1-3.479,1.485,16.245,16.245,0,0,1-3.7.448,10.331,10.331,0,0,1-5.961-1.485,4.862,4.862,0,0,1-1.058-7.08,7.28,7.28,0,0,1,2.91-1.892v-.081a3.733,3.733,0,0,1-1.689-1.119,2.843,2.843,0,0,1-.631-1.892,4.066,4.066,0,0,1,1.038-2.6,5.136,5.136,0,0,1,2.747-1.709v-.081a7.032,7.032,0,0,1-3.825-2.2,6.309,6.309,0,0,1-1.384-4.232,5.933,5.933,0,0,1,.631-2.767,5.843,5.843,0,0,1,1.77-2.055,8.466,8.466,0,0,1,2.726-1.282,12.87,12.87,0,0,1,3.5-.448q.732,0,1.505.061t1.505.1q.529.041,1.078.061t1.2.021q1.017,0,2.116-.021t2.2-.02q-.041.244-.061.488c-.014.163-.02.326-.02.488s.006.326.02.488.034.326.061.488l-3.581-.163Zm-.651,22.34a4.041,4.041,0,0,0-.407-1.932,2.807,2.807,0,0,0-1.159-1.16,5.311,5.311,0,0,0-1.852-.549,19.342,19.342,0,0,0-2.482-.143,7.254,7.254,0,0,0-2.93.407,2.959,2.959,0,0,0-1.038,1.18,5.258,5.258,0,0,0-.122,4.415,4.065,4.065,0,0,0,1.16,1.445,5.393,5.393,0,0,0,1.689.875,6.73,6.73,0,0,0,2.055.305,5.5,5.5,0,0,0,2.116-.386,4.886,4.886,0,0,0,1.607-1.058,4.511,4.511,0,0,0,1.017-1.546A4.993,4.993,0,0,0,550.3,539.691Zm-5.412-22.747q-2.767,0-2.767,5.371a8.912,8.912,0,0,0,.244,2.258,4.878,4.878,0,0,0,.631,1.485,2.406,2.406,0,0,0,.854.814,2.045,2.045,0,0,0,.957.244,2.133,2.133,0,0,0,1.994-1.18,8.842,8.842,0,0,0,.651-3.988,7.5,7.5,0,0,0-.732-3.886A2.147,2.147,0,0,0,544.886,516.944Z" transform="translate(-350.087 -158.723)" fill="#17af96"/><path d="M618.717,518.125a13.046,13.046,0,0,1,3.682-2.116,11.225,11.225,0,0,1,3.927-.732,11.522,11.522,0,0,1,2.991.366,6.42,6.42,0,0,1,2.36,1.16,5.257,5.257,0,0,1,1.546,2.055,7.621,7.621,0,0,1,.549,3.052q0,2.6-.061,4.822t-.061,4.415a6.352,6.352,0,0,0,.142,1.526,1.786,1.786,0,0,0,.427.834,1.356,1.356,0,0,0,.753.367,6.309,6.309,0,0,0,1.078.081v.977q-1.18.489-1.994.733a6.058,6.058,0,0,1-1.75.244,3.846,3.846,0,0,1-2.442-.732,4.5,4.5,0,0,1-1.424-2.116,7.682,7.682,0,0,1-2.177,2.075,5.793,5.793,0,0,1-3.113.773,7.642,7.642,0,0,1-2.645-.407,4.671,4.671,0,0,1-1.811-1.16,4.624,4.624,0,0,1-1.037-1.709,5.945,5.945,0,0,1-.326-1.933,5.758,5.758,0,0,1,.427-2.319,4.674,4.674,0,0,1,1.221-1.668,7.072,7.072,0,0,1,1.892-1.16,15.315,15.315,0,0,1,2.482-.794q1.709-.406,2.706-.712a6.539,6.539,0,0,0,1.485-.61,1.468,1.468,0,0,0,.631-.671,2.487,2.487,0,0,0,.142-.9,3.41,3.41,0,0,0-1.038-2.5,3.876,3.876,0,0,0-2.869-1.038,5.858,5.858,0,0,0-1.424.183,7.261,7.261,0,0,0-1.4.509,8.823,8.823,0,0,0-1.221.712,3.047,3.047,0,0,0-.834.834h-.285Zm9.644,11.068q0-1.749.02-2.665t.02-1.607a9.4,9.4,0,0,1-1.81.793,8.57,8.57,0,0,0-1.75.773,3.8,3.8,0,0,0-1.3,1.282,4.483,4.483,0,0,0-.509,2.36,3.621,3.621,0,0,0,.631,2.3,2.045,2.045,0,0,0,1.689.793,2.681,2.681,0,0,0,2.177-1.017A4.663,4.663,0,0,0,628.36,529.193Z" transform="translate(-409.92 -158.723)" fill="#17af96"/><path d="M788.92,525.652a13.642,13.642,0,0,0,.326,3.052,7.609,7.609,0,0,0,1,2.462,4.893,4.893,0,0,0,1.709,1.628,4.811,4.811,0,0,0,2.421.59,7.6,7.6,0,0,0,5.005-1.831l.488.366-.9,2.279a8.26,8.26,0,0,1-2.441,1.241,12.308,12.308,0,0,1-3.744.468,12.827,12.827,0,0,1-3.784-.549,8.058,8.058,0,0,1-3.154-1.81,8.844,8.844,0,0,1-2.157-3.195,12.133,12.133,0,0,1-.793-4.618,13.424,13.424,0,0,1,.712-4.6,9.062,9.062,0,0,1,1.974-3.255,8.06,8.06,0,0,1,2.991-1.953,10.607,10.607,0,0,1,3.764-.651,7.892,7.892,0,0,1,6.165,2.36,9.6,9.6,0,0,1,2.136,6.673v.855a1.888,1.888,0,0,1-.041.488Zm6.266-1.831a15.777,15.777,0,0,0-.753-4.883,2.354,2.354,0,0,0-2.258-1.831,2.045,2.045,0,0,0-1.505.61,4.411,4.411,0,0,0-.977,1.566,10.449,10.449,0,0,0-.549,2.157,20.375,20.375,0,0,0-.224,2.38Z" transform="translate(-531.985 -158.723)" fill="#17af96"/><g transform="translate(110.74 321.04)"><path d="M262.918,384.78h-2.389V382.5h-8.758v2.28h-2.389v-4.669h13.536Z" transform="translate(-249.383 -380.111)" fill="#f7941d"/></g><path d="M232.112,560.568a8.055,8.055,0,1,0,8.057,8.055,8.053,8.053,0,0,0-8.057-8.055Zm0,11.557a3.5,3.5,0,1,1,3.5-3.5,3.5,3.5,0,0,1-3.5,3.5Zm0,0" transform="translate(-119.971 -192.116)" fill="#00ae94"/><path d="M196.026,455.422a10.322,10.322,0,0,1,4.211-8.328V407.011h-4.581c-4.4,0-6.485,2.088-6.485,4.64v39.318a4.653,4.653,0,0,0,4.64,4.639h2.219C196.03,455.546,196.026,455.484,196.026,455.422Z" transform="translate(-94.251 -78.903)" fill="#00ae94"/><path d="M281.874,435.091a12.425,12.425,0,0,0-3.441-3.542,15.153,15.153,0,0,0-4.274-2.029,16.841,16.841,0,0,0-3.912-.722v-.137a20.8,20.8,0,0,0,3.731-1.032,14.758,14.758,0,0,0,3.84-2.1,11.926,11.926,0,0,0,3.007-3.37,9.166,9.166,0,0,0,1.232-4.849,10.439,10.439,0,0,0-1.05-4.849,8.615,8.615,0,0,0-3.007-3.3,14.358,14.358,0,0,0-4.636-1.891,26.427,26.427,0,0,0-5.94-.619q-3.029,0-6.333.164v3.818c.094-.008.193-.022.284-.027q.615-.034,2.21-.034a8.826,8.826,0,0,1,3.622.653,6.961,6.961,0,0,1,2.391,1.719,6.245,6.245,0,0,1,1.34,2.545,12.019,12.019,0,0,1,.4,3.129,9.522,9.522,0,0,1-.725,3.851,7.756,7.756,0,0,1-4.528,4.333,8.584,8.584,0,0,1-3.006.55h-1.987v3.958l.1,0q.723-.034,1.739-.034,4.347,0,6.629,2.373t2.282,7.187a11.215,11.215,0,0,1-.652,3.989,9.131,9.131,0,0,1-1.738,2.923,7.28,7.28,0,0,1-1.667,1.373,10.276,10.276,0,0,1,1.848,4.616,28.8,28.8,0,0,0,3.079-.486,14.643,14.643,0,0,0,5.4-2.3,12.218,12.218,0,0,0,3.767-4.264,13.143,13.143,0,0,0,1.413-6.327A9.427,9.427,0,0,0,281.874,435.091Z" transform="translate(-147.272 -78.639)" fill="#f7941d"/><path d="M215.834,448.57a10.343,10.343,0,0,1,4.545-2.974l-.168-38.569h-3.8a3.913,3.913,0,0,0-3.913,3.913v33.632A4.23,4.23,0,0,0,215.834,448.57Z" transform="translate(-111.452 -78.915)" fill="#f7941d"/><path d="M647.218,533.3a8.63,8.63,0,0,0-5.165-1.317l-3.095-.042a4.251,4.251,0,0,1-2.446-.627,1.886,1.886,0,0,1-.774-1.589,1.665,1.665,0,0,1,.355-1.045,1.055,1.055,0,0,1,.857-.46q.543,0,.983.021t.9.021a10.347,10.347,0,0,0,3.325-.5,7.567,7.567,0,0,0,2.551-1.422,6.383,6.383,0,0,0,1.652-2.2,6.686,6.686,0,0,0,.586-2.823,5.809,5.809,0,0,0-.606-2.739,5.447,5.447,0,0,0-1.652-1.9l.126-.084,3.68.167q-.042-.251-.062-.5c-.014-.167-.021-.334-.021-.5s.007-.334.021-.5.034-.334.063-.5q-1.129,0-2.258.021t-2.174.021q-.67,0-1.234-.021t-1.108-.063q-.753-.041-1.548-.1t-1.547-.062a13.224,13.224,0,0,0-3.6.46,8.7,8.7,0,0,0-2.8,1.317,6.013,6.013,0,0,0-1.819,2.112,6.1,6.1,0,0,0-.648,2.844,6.481,6.481,0,0,0,1.422,4.349,7.229,7.229,0,0,0,3.931,2.258v.084a5.281,5.281,0,0,0-2.823,1.756,4.179,4.179,0,0,0-1.066,2.676,2.921,2.921,0,0,0,.648,1.945A3.865,3.865,0,0,0,634,535.671s3.749.072,3.952.072a19.935,19.935,0,0,1,2.551.146,5.462,5.462,0,0,1,1.9.565,2.884,2.884,0,0,1,1.192,1.192,4.158,4.158,0,0,1,.418,1.987,5.138,5.138,0,0,1-.355,1.9,4.644,4.644,0,0,1-1.046,1.589,5.021,5.021,0,0,1-1.652,1.087,5.66,5.66,0,0,1-2.175.4c-.079,0-23.08-.006-23.158-.008h0a10.871,10.871,0,0,0-5.688,1.628,10.043,10.043,0,0,0-1.486,1.025,9.376,9.376,0,0,0-2.23,2.775,10.886,10.886,0,0,0-1.155,8.219,9.816,9.816,0,0,0,.545,1.825,8.925,8.925,0,0,0,2.179,3.171,9.888,9.888,0,0,0,3.486,2.074,13.824,13.824,0,0,0,4.674.737,13.527,13.527,0,0,0,6.131-1.232,7.318,7.318,0,0,1,.24-1.277q.18-.646.421-1.277l-.39-.241a6.143,6.143,0,0,1-1.127.932,7.683,7.683,0,0,1-1.367.706,9.552,9.552,0,0,1-1.473.451,6.838,6.838,0,0,1-1.473.165,7.241,7.241,0,0,1-2.57-.481,6.2,6.2,0,0,1-2.284-1.518,7.811,7.811,0,0,1-1.638-2.675,11.013,11.013,0,0,1-.631-3.952,12.338,12.338,0,0,1,.616-4.133,8.495,8.495,0,0,1,1.608-2.84,6.5,6.5,0,0,1,2.209-1.653,6.7,6.7,0,0,1,2.381-.724c4.383,0,22.016,0,22.044,0a17.207,17.207,0,0,0,2.979-.435,10.937,10.937,0,0,0,3.576-1.526,8.611,8.611,0,0,0,2.634-2.76,7.991,7.991,0,0,0,1.025-4.2A4.829,4.829,0,0,0,647.218,533.3Zm-8.761-17.041a2.206,2.206,0,0,1,1.882,1.15,7.709,7.709,0,0,1,.753,3.994,9.087,9.087,0,0,1-.669,4.1,2.192,2.192,0,0,1-2.049,1.213,2.1,2.1,0,0,1-.983-.251,2.47,2.47,0,0,1-.878-.837,5.013,5.013,0,0,1-.648-1.526,9.158,9.158,0,0,1-.251-2.321Q635.614,516.256,638.458,516.255Z" transform="translate(-400.63 -158.182)" fill="#f7941d"/><g transform="translate(91.114 390.946)"><path d="M174.685,650.414c.7-.086,1.4-.193,2.109-.255,2.249-.2,4.5-.408,6.749-.558,2.371-.158,4.745-.266,7.119-.367q2.676-.114,5.356-.149c2.453-.029,4.907-.028,7.361-.022,1.712,0,3.424.019,5.136.065,2.167.058,4.333.148,6.5.235,1.607.065,3.215.126,4.819.228,2.406.154,4.811.333,7.214.52,1.846.144,3.692.3,5.534.484,2.024.206,4.043.452,6.063.69,1.418.167,2.837.328,4.25.533,1.894.276,3.784.586,5.674.892,1.261.2,2.522.411,3.778.647,1.286.242,2.565.518,3.845.786,1.013.213,2.029.417,3.035.662,1.495.364,2.982.758,4.473,1.141.378.1.513.357.351.693a4.557,4.557,0,0,1-2.492,2.333.768.768,0,0,1-.439-.011c-1.373-.35-11.159-2.635-13.445-3.072-2.359-.451-4.727-.855-7.1-1.229q-3.714-.586-7.444-1.073c-2.635-.344-5.276-.649-7.917-.943-2.051-.228-4.106-.426-6.161-.614q-3.625-.331-7.254-.616c-1.709-.131-3.422-.227-5.134-.318-2.8-.15-5.6-.3-8.4-.42-1.8-.078-3.6-.117-5.406-.153-2.56-.051-5.12-.1-7.68-.118-1.892-.014-3.785.011-5.678.037-1.558.022-3.116.071-4.675.106a.379.379,0,0,1-.124-.045Z" transform="translate(-174.685 -648.304)" fill="#d1d3d4"/><path d="M374.847,646.221c.887-.014,1.773-.04,2.66-.038,1.711,0,3.422,0,5.131.044,2.181.057,4.362.15,6.542.245,1.363.059,2.726.13,4.086.233q3.242.248,6.48.55c1.617.148,3.234.305,4.845.5,2.155.262,4.306.558,6.457.854,1.58.218,3.161.438,4.734.7,1.6.265,3.2.575,4.8.874,1.39.26,2.783.514,4.167.8,1.474.309,2.94.657,4.41.986q.669.15,1.34.287c.54.111.716.4.465.88a4.1,4.1,0,0,1-1.977,1.669,2.429,2.429,0,0,1-1.851.1q-3.289-.963-6.608-1.824-3.36-.867-6.746-1.632c-1.438-.327-2.893-.582-4.343-.858-1.643-.312-3.286-.624-4.933-.913-1.138-.2-2.281-.369-3.424-.538-1.833-.272-3.665-.544-5.5-.793-1.339-.182-2.683-.335-4.026-.484-2.322-.258-4.645-.517-6.97-.75-1.525-.152-3.053-.268-4.581-.385-1.662-.126-3.326-.234-4.989-.352a.655.655,0,0,1-.168-.062Z" transform="translate(-322.258 -646.182)" fill="#d1d3d4"/></g></g></svg>