<svg xmlns="http://www.w3.org/2000/svg" width="15.577" height="17.07" viewBox="0 0 15.577 17.07"><defs><style>.a,.c{fill:#fff;}.b,.c{stroke:none;}</style></defs><g transform="translate(15.577) rotate(90)"><g transform="translate(0 5.791)"><g class="a" transform="translate(-149.195 -202.358)"><path class="b" d="M 151.7901763916016 205.8531646728516 C 151.7794342041016 205.8531646728516 151.7701568603516 205.849853515625 151.7592010498047 205.8421173095703 L 149.7191467285156 204.4039001464844 C 149.6991729736328 204.3898315429688 149.6950073242188 204.3696899414063 149.6949920654297 204.3552551269531 C 149.6949768066406 204.3250579833984 149.7127532958984 204.3125 149.7194519042969 204.3077697753906 L 151.7591247558594 202.8697967529297 C 151.7734375 202.8597106933594 151.7833099365234 202.8584136962891 151.7903137207031 202.8584136962891 C 151.7909240722656 202.8584136962891 151.8515472412109 202.8619079589844 151.8515472412109 202.9176940917969 L 151.8515472412109 203.79736328125 L 151.8515472412109 204.29736328125 L 152.3515472412109 204.29736328125 L 162.1470947265625 204.29736328125 C 162.1794128417969 204.29736328125 162.2057189941406 204.3236694335938 162.2057189941406 204.3560028076172 C 162.2057189941406 204.3883209228516 162.1794128417969 204.4146118164063 162.1470947265625 204.4146118164063 L 152.3516235351563 204.4146118164063 L 151.8516235351563 204.4146118164063 L 151.8516235351563 204.9146118164063 L 151.8516235351563 205.7942504882813 C 151.8516235351563 205.8506317138672 151.7907867431641 205.8531646728516 151.7901763916016 205.8531646728516 Z"/><path class="c" d="M 151.3515472412109 203.7689056396484 L 150.5188751220703 204.3559417724609 L 151.3516235351563 204.9430236816406 L 151.3516235351563 204.9146118164063 L 151.3516235351563 204.79736328125 L 151.3515472412109 204.79736328125 L 151.3515472412109 203.79736328125 L 151.3515472412109 203.7689056396484 M 151.7903137207031 202.3584136962891 C 152.0804595947266 202.3584136962891 152.3515472412109 202.5885620117188 152.3515472412109 202.9176940917969 L 152.3515472412109 203.79736328125 L 162.1470947265625 203.79736328125 C 162.4555816650391 203.79736328125 162.7057189941406 204.0474700927734 162.7057189941406 204.3560028076172 C 162.7057189941406 204.6645355224609 162.4555816650391 204.9146118164063 162.1470947265625 204.9146118164063 L 152.3516235351563 204.9146118164063 L 152.3516235351563 205.7942504882813 C 152.3516235351563 206.1251678466797 152.0796508789063 206.3531646728516 151.7901763916016 206.3531646728516 C 151.6818389892578 206.3531646728516 151.571044921875 206.3212280273438 151.4711303710938 206.2508087158203 L 149.4310455322266 204.8125457763672 C 149.1194763183594 204.5930480957031 149.1131896972656 204.1239013671875 149.4309234619141 203.8994140625 L 151.4710235595703 202.4611358642578 C 151.5713806152344 202.3903961181641 151.6821899414063 202.3584136962891 151.7903137207031 202.3584136962891 Z"/></g></g><g transform="translate(2.757 0)"><g class="a" transform="translate(0 -22.397)"><path class="b" d="M 6.678605556488037 37.47359848022461 C 6.437638282775879 37.47359848022461 6.198127269744873 37.46100997924805 5.961019515991211 37.43631362915039 C 6.198184967041016 37.46086883544922 6.43756628036499 37.47336959838867 6.678605556488037 37.47336959838867 C 8.134732246398926 37.47336959838867 9.490763664245605 37.02778244018555 10.62202835083008 36.2635383605957 C 9.46347713470459 37.0508918762207 8.103135108947754 37.47359848022461 6.678605556488037 37.47359848022461 Z M 10.61935138702393 24.10525131225586 C 9.488650321960449 23.34216499328613 8.133528709411621 22.8972282409668 6.678605556488037 22.8972282409668 C 6.435551643371582 22.8972282409668 6.194297313690186 22.90992546081543 5.955188274383545 22.93489265441895 C 6.194240570068359 22.90978622436523 6.435620307922363 22.89699935913086 6.678605556488037 22.89699935913086 C 8.102021217346191 22.89699935913086 9.461369514465332 23.31906127929688 10.61935138702393 24.10525131225586 Z"/><path class="c" d="M 6.678605556488037 37.97359848022461 C 3.862745523452759 37.97359848022461 1.389805436134338 36.41452789306641 0.06593546271324158 34.07983779907227 C -0.06958453357219696 33.84075927734375 0.01048546377569437 33.53482818603516 0.2448354661464691 33.39649963378906 C 0.3220979571342468 33.35091781616211 0.4065197110176086 33.32923889160156 0.4898126423358917 33.32923889160156 C 0.659096360206604 33.32923889160156 0.8237794041633606 33.41873931884766 0.9146554470062256 33.57899856567383 C 2.066195487976074 35.60993957519531 4.218765258789063 36.97336959838867 6.678605556488037 36.97336959838867 C 10.34752559661865 36.97336959838867 13.33244514465332 33.92823791503906 13.33244514465332 30.18529891967773 C 13.33244514465332 26.44235801696777 10.34752559661865 23.3972282409668 6.678605556488037 23.3972282409668 C 4.217135429382324 23.3972282409668 2.065535545349121 24.76192855834961 0.9146854877471924 26.79152870178223 C 0.8238377571105957 26.95177268981934 0.6591096520423889 27.04126930236816 0.489835649728775 27.04127883911133 C 0.4065244793891907 27.04128456115723 0.3221323788166046 27.01961135864258 0.2448654621839523 26.97402954101563 C 0.01051546446979046 26.83573913574219 -0.06955453753471375 26.5297794342041 0.06597546488046646 26.29069900512695 C 1.390385508537292 23.95496940612793 3.863955497741699 22.39699935913086 6.678605556488037 22.39699935913086 C 10.89809513092041 22.39699935913086 14.31289577484131 25.88031959533691 14.31289577484131 30.18529891967773 C 14.31289577484131 34.48991775512695 10.89845561981201 37.97359848022461 6.678605556488037 37.97359848022461 Z"/></g></g></g></svg>