<svg xmlns="http://www.w3.org/2000/svg" width="42" height="42" viewBox="0 0 42 42"><defs><style>.a{fill:#72c8fe;}</style></defs><g transform="translate(-1 -1)"><path class="a" d="M42.323,25.387H26.742V12.516a.677.677,0,0,0-.677-.677h-.677V7.1a.677.677,0,0,0-.677-.677H19.928a6.094,6.094,0,0,0-12.114,0H3.032a.677.677,0,0,0-.677.677v4.742H1.677A.677.677,0,0,0,1,12.516V42.323A.677.677,0,0,0,1.677,43H26.065a.677.677,0,0,0,.677-.677V40.29H42.323A.677.677,0,0,0,43,39.613V26.065A.677.677,0,0,0,42.323,25.387ZM4.784,9.806,3.71,10.881V8.732Zm1.437.479a.677.677,0,0,0,0-.958L4.668,7.774H7.774v4.065H4.668ZM9.129,7.774h9.484v4.065H9.129Zm10.839,0h3.107L21.521,9.328a.677.677,0,0,0,0,.958l1.553,1.553H19.968Zm4.065.958v2.149L22.958,9.806ZM13.871,2.355a4.745,4.745,0,0,1,4.688,4.065H9.183A4.745,4.745,0,0,1,13.871,2.355Zm11.516,39.29H2.355V13.194H7.774v2.128a2.71,2.71,0,1,0,1.355,0V13.194h9.484v2.128a2.71,2.71,0,1,0,1.355,0V13.194h5.419V25.387H13.871a.677.677,0,0,0-.677.677V39.613a.677.677,0,0,0,.677.677H25.387ZM9.129,16.769a1.355,1.355,0,1,1-1.355,0v1.167H9.129Zm10.839,0a1.355,1.355,0,1,1-1.355,0v1.167h1.355ZM41.645,38.935h-27.1V26.742h27.1Z"/><rect class="a" width="1.355" height="9.484" transform="translate(22.677 28.097)"/><rect class="a" width="1.355" height="9.484" transform="translate(15.903 28.097)"/><rect class="a" width="1.355" height="9.484" transform="translate(25.387 28.097)"/><rect class="a" width="1.355" height="9.484" transform="translate(32.161 28.097)"/><rect class="a" width="1.355" height="9.484" transform="translate(38.935 28.097)"/><rect class="a" width="2.71" height="9.484" transform="translate(18.613 28.097)"/><rect class="a" width="2.71" height="9.484" transform="translate(28.097 28.097)"/><rect class="a" width="2.71" height="9.484" transform="translate(34.871 28.097)"/><path class="a" d="M6.355,37H5V51.226a.677.677,0,0,0,.677.677h7.452V50.548H6.355Z" transform="translate(-1.29 -11.613)"/></g></svg>