<svg xmlns="http://www.w3.org/2000/svg" width="35.778" height="48" viewBox="0 0 35.778 48"><defs><style>.a{fill:#f6afaf;}</style></defs><g transform="translate(0.001 -0.001)"><path class="a" d="M35.755,41.838l-2.7-30.022H27.02V9.291a9.089,9.089,0,0,0-2.875-6.955A9.259,9.259,0,0,0,17.888,0a9.259,9.259,0,0,0-6.256,2.336A9.089,9.089,0,0,0,8.757,9.292v2.524H2.718L.022,41.838A5.657,5.657,0,0,0,5.656,48H30.121a5.657,5.657,0,0,0,5.634-6.163ZM11.57,9.291a6.062,6.062,0,0,1,6.319-6.478,6.062,6.062,0,0,1,6.318,6.478v2.525H11.57ZM32.22,44.263a2.813,2.813,0,0,1-2.1.925H5.656a2.844,2.844,0,0,1-2.833-3.1L5.29,14.629H8.757v3.349H11.57V14.629H24.207v3.349H27.02V14.629h3.468l2.466,27.46a2.813,2.813,0,0,1-.734,2.173Zm0,0" transform="translate(0)"/><path class="a" d="M153.6,266.449a3.9,3.9,0,1,0,3.9,3.9A3.906,3.906,0,0,0,153.6,266.449Zm0,4.991a1.089,1.089,0,1,1,1.089-1.089A1.09,1.09,0,0,1,153.6,271.44Zm0,0" transform="translate(-135.662 -241.469)"/><path class="a" d="M100.775,208.145h-.016a9.373,9.373,0,0,0-8.953,12.13,9.216,9.216,0,0,0,2.051,3.524l6.9,7.44,6.906-7.444a9.086,9.086,0,0,0,1.951-3.225,9.383,9.383,0,0,0-8.84-12.426Zm6.181,11.508a6.292,6.292,0,0,1-1.354,2.23l-4.844,5.221-4.84-5.217a6.4,6.4,0,0,1-1.426-2.44,6.561,6.561,0,0,1,6.266-8.489h.012a6.56,6.56,0,0,1,6.186,8.695Zm0,0" transform="translate(-82.823 -188.631)"/></g></svg>