<svg xmlns="http://www.w3.org/2000/svg" width="39.789" height="35.532" viewBox="0 0 39.789 35.532"><defs><style>.a{fill:#51dbb4;}</style></defs><g transform="translate(0 -27.387)"><g transform="translate(11.93 54.963)"><path class="a" d="M155.056,382.855a.8.8,0,0,0-.044-.145.787.787,0,0,0-.072-.134.743.743,0,0,0-.1-.118.766.766,0,0,0-.253-.169.786.786,0,0,0-.145-.044.768.768,0,0,0-.3,0,.786.786,0,0,0-.145.044.766.766,0,0,0-.253.169.744.744,0,0,0-.1.118.788.788,0,0,0-.071.134.8.8,0,0,0-.044.145.772.772,0,0,0,.212.7.781.781,0,0,0,.253.168.784.784,0,0,0,.145.044.751.751,0,0,0,.3,0,.784.784,0,0,0,.145-.044.78.78,0,0,0,.253-.168.782.782,0,0,0,.212-.7Z" transform="translate(-153.517 -382.23)"/></g><g transform="translate(3.328 51.015)"><path class="a" d="M44.361,332.063a.785.785,0,0,0-.044-.145.77.77,0,0,0-.071-.134.8.8,0,0,0-.1-.118.745.745,0,0,0-.118-.1.789.789,0,0,0-.134-.072.807.807,0,0,0-.145-.044.769.769,0,0,0-.3,0,.789.789,0,0,0-.28.116.754.754,0,0,0-.214.214.767.767,0,0,0-.071.134.785.785,0,0,0-.044.145.766.766,0,0,0-.016.152.778.778,0,0,0,.016.152.822.822,0,0,0,.044.145.792.792,0,0,0,.071.134.745.745,0,0,0,.1.118.766.766,0,0,0,.253.169.779.779,0,0,0,.145.044.763.763,0,0,0,.152.015.777.777,0,0,0,.777-.777A.765.765,0,0,0,44.361,332.063Z" transform="translate(-42.822 -331.438)"/></g><g transform="translate(0 27.387)"><path class="a" d="M39.454,48.6a2.831,2.831,0,0,0-4.541-.608l-.259.245V33.468a.777.777,0,0,0-.777-.777H31.2V28.164a.777.777,0,0,0-.777-.777H16.455a.777.777,0,0,0-.777.777v4.527h-3.97a.777.777,0,0,0-.777.777V48.5a8.507,8.507,0,0,0-2.72,1.816V48.669a.777.777,0,0,0-.777-.777H.777A.777.777,0,0,0,0,48.669V62.063a.777.777,0,0,0,.777.777H7.433a.777.777,0,0,0,.777-.777V59.888c.5.263.992.537,1.471.806,2.037,1.144,3.96,2.224,6.506,2.224H24.6c2.755,0,6.7-1.3,8.293-3.4l6.045-7.08.029-.036A3.71,3.71,0,0,0,39.454,48.6ZM6.656,61.286H4.882V54.615a.777.777,0,1,0-1.554,0v6.671H1.554V49.446h5.1V61.286ZM31.2,34.245h1.9V49.71L31.2,51.5Zm-4.657-5.3h3.1v3.75h-3.1Zm-4.656,0h3.1v3.75h-3.1Zm-4.656,0h3.1v3.75h-3.1v-3.75Zm-4.747,5.3h3.193v3.112a.777.777,0,0,0,1.554,0V34.245h7.759v3.112a.777.777,0,0,0,1.554,0V34.245h3.1V51.818a2.993,2.993,0,0,0-2.462-1.292H20.268c-.133,0-.224-.067-.516-.331-.075-.068-.153-.138-.239-.212a8.226,8.226,0,0,0-6.741-2.005q-.144.023-.286.05V34.245ZM37.739,51.452l-6.045,7.079-.031.038c-1.235,1.647-4.714,2.795-7.065,2.795h-8.41c-2.139,0-3.81-.939-5.745-2.025-.713-.4-1.446-.812-2.233-1.191V52.785a6.894,6.894,0,0,1,4.8-3.272,6.678,6.678,0,0,1,5.476,1.639l.015.013c.068.058.135.118.2.181a2.216,2.216,0,0,0,1.56.734h6.918a1.441,1.441,0,0,1,0,2.882H15.793a.777.777,0,1,0,0,1.554H27.186a3,3,0,0,0,2.628-1.56s6.206-5.87,6.217-5.881a1.245,1.245,0,0,1,1.1-.394,1.262,1.262,0,0,1,.954.652A2.177,2.177,0,0,1,37.739,51.452Z" transform="translate(0 -27.387)"/></g><g transform="translate(16.382 39.354)"><path class="a" d="M220.187,181.378h-8.609a.777.777,0,0,0-.777.777v4.473a.777.777,0,0,0,.777.777h8.609a.777.777,0,0,0,.777-.777v-4.473A.777.777,0,0,0,220.187,181.378Zm-.777,4.473h-7.055v-2.919h7.055Z" transform="translate(-210.801 -181.378)"/></g></g></svg>