<svg xmlns="http://www.w3.org/2000/svg" width="40.667" height="36.6" viewBox="0 0 40.667 36.6"><defs><style>.a{fill:#ffe970;}</style></defs><path class="a" d="M38.633,5.422H28.467V2.711a1.356,1.356,0,0,0-1.356-1.356h-.678A1.356,1.356,0,0,0,25.078,0H15.589a1.356,1.356,0,0,0-1.356,1.356h-.678A1.356,1.356,0,0,0,12.2,2.711V5.422H2.033A2.033,2.033,0,0,0,0,7.456v8.133a.678.678,0,0,0,.339.588l1.017.579v17.81A2.033,2.033,0,0,0,3.389,36.6H37.278a2.033,2.033,0,0,0,2.033-2.033V16.757l1.017-.579a.678.678,0,0,0,.339-.588V7.456A2.033,2.033,0,0,0,38.633,5.422ZM15.589,1.356h9.489V2.711H15.589ZM13.556,2.711h.678a1.356,1.356,0,0,0,1.356,1.356h9.489a1.356,1.356,0,0,0,1.356-1.356h.678V5.422H13.556ZM39.311,15.2l-4.247,2.427H27.789v1.356h7.456a.672.672,0,0,0,.339-.089l2.372-1.356V34.567a.678.678,0,0,1-.678.678H3.389a.678.678,0,0,1-.678-.678V17.532l2.372,1.356a.673.673,0,0,0,.339.091h7.456V17.622H5.6L1.356,15.2V7.456a.678.678,0,0,1,.678-.678h36.6a.678.678,0,0,1,.678.678Zm0,0"/><path class="a" d="M32,96.678v2.711h1.356V97.356h2.033V96H32.678A.678.678,0,0,0,32,96.678Zm0,0" transform="translate(-29.289 -87.867)"/><path class="a" d="M410.711,96H408v1.356h2.033v2.033h1.356V96.678A.678.678,0,0,0,410.711,96Zm0,0" transform="translate(-373.433 -87.867)"/><path class="a" d="M218.033,132.067A2.033,2.033,0,1,0,216,130.033,2.033,2.033,0,0,0,218.033,132.067Zm0-2.711a.678.678,0,1,1-.678.678A.678.678,0,0,1,218.033,129.356Zm0,0" transform="translate(-197.7 -117.156)"/><path class="a" d="M164.7,111.8l.432-1.294.352.706a.678.678,0,0,0,.607.373H168.5a1.356,1.356,0,0,0,1.27-1.83l-1.361-3.626a2.041,2.041,0,0,0-1.642-1.3V100.87a3.35,3.35,0,0,0-.583-1.9C164.156,96,163.062,96,162.7,96s-1.453,0-3.483,2.967a3.347,3.347,0,0,0-.584,1.9v3.961a2.042,2.042,0,0,0-1.642,1.3l-1.361,3.628a1.356,1.356,0,0,0,1.27,1.83h2.411a.678.678,0,0,0,.607-.375l.352-.706.432,1.295a2.69,2.69,0,0,0-.713,1.819c0,1.4,1.056,4.067,2.711,4.067s2.711-2.67,2.711-4.067a2.689,2.689,0,0,0-.714-1.818Zm-2.864-.893-.226-.678H163.8l-.226.678Zm5.306-4.3,1.361,3.627h-1.992l-.059-.118a.666.666,0,0,0,.318-.56v-3.329a.673.673,0,0,1,.373.38Zm-7.15-5.737a2,2,0,0,1,.347-1.137c1.286-1.881,2.109-2.378,2.364-2.378s1.078.5,2.365,2.378a2,2,0,0,1,.346,1.136v8.008h-2.033v-4.067h-1.356v4.067h-2.033Zm-3.089,9.364,1.361-3.628a.673.673,0,0,1,.373-.379v3.329a.666.666,0,0,0,.318.56l-.059.118Zm5.8,6.1c-.507,0-1.356-1.7-1.356-2.711a1.356,1.356,0,0,1,2.711,0C164.059,114.639,163.21,116.333,162.7,116.333Zm0,0" transform="translate(-142.37 -87.867)"/><path class="a" d="M140.045,336a2.033,2.033,0,0,0-1.918,1.359,2.033,2.033,0,1,0-.115,4.063v-1.356a.678.678,0,1,1,0-1.356.661.661,0,0,1,.343.094.678.678,0,0,0,1.022-.655.98.98,0,0,1-.01-.116.678.678,0,0,1,1.356,0h1.356A2.033,2.033,0,0,0,140.045,336Zm0,0" transform="translate(-124.456 -307.533)"/><path class="a" d="M274.033,336A2.033,2.033,0,0,0,272,338.033h1.356a.678.678,0,0,1,1.356,0,.979.979,0,0,1-.01.116.678.678,0,0,0,1.022.655.661.661,0,0,1,.343-.094.678.678,0,1,1,0,1.356v1.356A3.623,3.623,0,0,0,274.033,336Zm0,0" transform="translate(-248.955 -307.533)"/></svg>