<svg xmlns="http://www.w3.org/2000/svg" width="19" height="12.667" viewBox="0 0 19 12.667"><defs><style>.a{fill:#49545b;}</style></defs><g transform="translate(-8 -16)"><path class="a" d="M26.943,20.15l-2.375-3.958A.4.4,0,0,0,24.229,16h-9.5a.4.4,0,1,0,0,.792h5.146v4.75H8.792v-4.75h3.563a.4.4,0,0,0,0-.792H8.4a.4.4,0,0,0-.4.4V26.688a.4.4,0,0,0,.4.4h2.118a2.371,2.371,0,0,0,4.473,0h5.027a2.371,2.371,0,0,0,4.473,0H26.6a.4.4,0,0,0,.4-.4V20.354A.4.4,0,0,0,26.943,20.15Zm-6.277-3.359h3.338l2.2,3.672v1.078H20.667ZM12.75,27.875a1.583,1.583,0,1,1,1.583-1.583A1.585,1.585,0,0,1,12.75,27.875Zm9.5,0a1.583,1.583,0,1,1,1.583-1.583A1.585,1.585,0,0,1,22.25,27.875Zm2.375-1.583a2.375,2.375,0,0,0-4.75,0h-4.75a2.375,2.375,0,0,0-4.75,0H8.792V23.917h1.979a.4.4,0,0,0,0-.792H8.792v-.792H26.208v.792H24.229a.4.4,0,1,0,0,.792h1.979v2.375Z"/><circle class="a" cx="0.792" cy="0.792" r="0.792" transform="translate(11.958 25.5)"/><circle class="a" cx="0.792" cy="0.792" r="0.792" transform="translate(21.458 25.5)"/><circle class="a" cx="0.396" cy="0.396" r="0.396" transform="translate(13.146 16)"/></g></svg>