<svg xmlns="http://www.w3.org/2000/svg" xmlns:xlink="http://www.w3.org/1999/xlink" width="120.686" height="120.686" viewBox="0 0 120.686 120.686"><defs><clipPath id="a"><path d="M740.218,631.57a60.343,60.343,0,1,0-60.343,60.344A60.343,60.343,0,0,0,740.218,631.57Z" transform="translate(-619.532 -571.227)" fill="none"/></clipPath></defs><g transform="translate(0)"><path d="M740.218,631.57a60.343,60.343,0,1,0-60.343,60.344A60.343,60.343,0,0,0,740.218,631.57Z" transform="translate(-619.532 -571.227)" fill="#04b094"/><g transform="translate(0)"><g clip-path="url(#a)"><g transform="translate(-21.136 -211.415)"><path d="M37.9,276.413h0a9.052,9.052,0,0,1,9.052-9.052h.915l11.388-13.828a10.515,10.515,0,0,1,8.117-3.83h59.068a3.487,3.487,0,0,1,3.487,3.487v32.572H37.977Z" transform="translate(-2.323)" fill="#f0c419"/><path d="M129.94,257.753v-.594H59.378c-.036.042-.077.079-.111.121l-.389.473h67.2v2.226H57.044l-.489.594h1.311L49.549,271v8.364h-11.6c-.017.2-.026.395-.03.594H56.173a7.742,7.742,0,0,1,7.733,7.733v.3H99.717v-.3a7.742,7.742,0,0,1,7.733-7.733h22.49v-.594h-3.265V257.753Zm-79.8,21.616v-8.156l8.484-10.64H69.742l0,18.558-.033.238H50.142Zm18.451,8.03h-4.1a8.338,8.338,0,0,0-5.245-7.436h10.38Zm3.424,0H69.193l1.033-7.436h1.792Zm0-8.03H70.309l.027-.2v-18.6h1.682Zm54.064,0H90.6v.594h13.774a8.338,8.338,0,0,0-5.245,7.436H90.616v-.006h-.594v.006H72.611v-7.436H89.029v-.594H72.611v-18.8H89.029v-.006h1.987v.006h35.065Z" transform="translate(-2.333 -3.746)" opacity="0.2"/><rect width="17.411" height="26.826" transform="translate(70.278 256.819)" fill="#424242"/><rect width="3.342" height="7.778" transform="translate(70.278 275.867)" fill="#9b59b6"/><rect width="13.447" height="7.778" transform="translate(74.242 275.867)" fill="#a4c639"/><rect width="11.504" height="7.778" transform="translate(70.278 268.089)" fill="#f56462"/><rect width="10.144" height="5.577" transform="translate(75.603 262.512)" fill="#d1d1d1"/><rect width="5.344" height="7.778" transform="translate(82.346 268.089)" fill="#9b59b6"/><path d="M35.01,302.979h6.573a6.161,6.161,0,0,1,4.921,2.454l5.348,7.1H35.01a1.706,1.706,0,0,1-1.731-1.68v-6.192A1.706,1.706,0,0,1,35.01,302.979Z" transform="translate(0 -26.77)" fill="#1f1f1f"/><path d="M216.769,302.979h-4.444a1.085,1.085,0,0,0-1.085,1.085v7.382a1.085,1.085,0,0,0,1.085,1.085h4.444a1.706,1.706,0,0,0,1.731-1.68v-6.192A1.706,1.706,0,0,0,216.769,302.979Z" transform="translate(-89.421 -26.77)" fill="#1f1f1f"/><path d="M64.5,275.754h9.225a8.087,8.087,0,0,0,8.087-8.087v-1.261H71.719Z" transform="translate(-15.686 -8.392)" fill="#424242"/><g transform="translate(49.159 258.013)"><path d="M84.391,267.153v-.748H78.983l-9.349,9.349H75.79Z" transform="translate(-67.426 -266.405)" fill="#fff" opacity="0.1"/><path d="M92.8,272.729,86.827,278.7A8.087,8.087,0,0,0,92.8,272.729Z" transform="translate(-76.065 -269.583)" fill="#fff" opacity="0.1"/><path d="M65.2,275.3l8.9-8.9H72.07Z" transform="translate(-65.196 -266.405)" fill="#fff" opacity="0.1"/></g><g transform="translate(62.611 268.184)"><rect width="4.044" height="2.37" transform="translate(2.37 0) rotate(90)" opacity="0.2"/><rect width="4.044" height="1.341" transform="translate(2.37 0) rotate(90)" fill="#424242"/></g><path d="M38.526,292.182c.1,0,.2.015.3.015a6.381,6.381,0,0,0,6.381-6.381c0-.042-.005-.082-.006-.123A9.051,9.051,0,0,0,38.526,292.182Z" transform="translate(-2.636 -18.084)" fill="#fff"/><rect width="3.265" height="4.699" transform="translate(124.342 270.923)" fill="#b5292a"/><rect width="3.265" height="2.819" transform="translate(124.342 268.103)" fill="#e9662c"/><path d="M152.943,291.3H143.8v-1.533h9.142a.766.766,0,0,1,.767.767h0A.766.766,0,0,1,152.943,291.3Z" transform="translate(-55.534 -20.132)" opacity="0.2"/><path d="M152.97,291.306H143.8v-.639h9.169a.32.32,0,0,1,.319.32h0A.319.319,0,0,1,152.97,291.306Z" transform="translate(-55.534 -20.583)" fill="#fff"/><path d="M154.458,252.626H94.848a.546.546,0,0,1-.546-.546h0a.547.547,0,0,1,.546-.546h59.61a.546.546,0,0,1,.546.546h0A.546.546,0,0,1,154.458,252.626Z" transform="translate(-30.662 -0.92)" fill="#fff" opacity="0.2"/><path d="M145.556,260.132h-63.7a.546.546,0,0,1-.546-.546h0a.547.547,0,0,1,.546-.546h63.7a.546.546,0,0,1,.546.546h0A.546.546,0,0,1,145.556,260.132Z" transform="translate(-24.135 -4.691)" fill="#fff" opacity="0.2"/><path d="M92.879,305.323H87.373a.547.547,0,0,1-.546-.546h0a.546.546,0,0,1,.546-.546h5.506a.546.546,0,0,1,.546.546h0A.546.546,0,0,1,92.879,305.323Z" transform="translate(-26.906 -27.398)" fill="#fff" opacity="0.2"/><path d="M76.274,287.067H67.459a.547.547,0,0,1-.546-.546h0a.547.547,0,0,1,.546-.546h8.815a.546.546,0,0,1,.546.546h0A.546.546,0,0,1,76.274,287.067Z" transform="translate(-16.9 -18.225)" fill="#fff" opacity="0.2"/><path d="M67.571,305.323H60.828a.547.547,0,0,1-.546-.546h0a.546.546,0,0,1,.546-.546h6.742a.546.546,0,0,1,.546.546h0A.547.547,0,0,1,67.571,305.323Z" transform="translate(-13.568 -27.398)" fill="#fff" opacity="0.2"/><path d="M43.9,305.323H36.272a.546.546,0,0,1-.546-.546h0a.546.546,0,0,1,.546-.546H43.9a.546.546,0,0,1,.546.546h0A.547.547,0,0,1,43.9,305.323Z" transform="translate(-1.23 -27.398)" fill="#fff" opacity="0.1"/><path d="M217.834,305.323h-3.886a.547.547,0,0,1-.546-.546h0a.546.546,0,0,1,.546-.546h3.886a.546.546,0,0,1,.546.546h0A.546.546,0,0,1,217.834,305.323Z" transform="translate(-90.507 -27.398)" fill="#fff" opacity="0.1"/><path d="M185.895,305.323h-7.633a.547.547,0,0,1-.546-.546h0a.546.546,0,0,1,.546-.546h7.633a.546.546,0,0,1,.546.546h0A.547.547,0,0,1,185.895,305.323Z" transform="translate(-72.576 -27.398)" fill="#fff" opacity="0.2"/><path d="M154.575,305.323H145.58a.547.547,0,0,1-.546-.546h0a.546.546,0,0,1,.546-.546h8.994a.546.546,0,0,1,.546.546h0A.546.546,0,0,1,154.575,305.323Z" transform="translate(-56.154 -27.398)" fill="#fff" opacity="0.2"/><path d="M153,294.131h-8.243a.356.356,0,0,1-.357-.356h0a.357.357,0,0,1,.357-.357H153a.357.357,0,0,1,.356.357h0A.356.356,0,0,1,153,294.131Z" transform="translate(-55.835 -21.966)" fill="#fff" opacity="0.2"/><path d="M177.922,266.4H146.271a.546.546,0,0,1-.546-.546h0a.547.547,0,0,1,.546-.546h31.651a.546.546,0,0,1,.546.546h0A.546.546,0,0,1,177.922,266.4Z" transform="translate(-56.501 -7.841)" fill="#fff" opacity="0.2"/><g transform="translate(98.467 277.378)"><circle cx="8.384" cy="8.384" r="8.384" transform="translate(0 0)" fill="#292929"/><circle cx="5.246" cy="5.246" r="5.246" transform="matrix(0.229, -0.973, 0.973, 0.229, 2.077, 12.291)" fill="#c2c2c2"/><circle cx="4.658" cy="4.658" r="4.658" transform="translate(3.726 3.726)" fill="#656565"/><circle cx="3.655" cy="3.655" r="3.655" transform="translate(4.729 4.729)" fill="#888"/><path d="M181.136,320.347a1.814,1.814,0,1,1-1.814-1.813A1.814,1.814,0,0,1,181.136,320.347Z" transform="translate(-170.939 -311.964)" fill="#656565"/><path d="M181.142,320.895a1.272,1.272,0,1,1-1.272-1.272A1.272,1.272,0,0,1,181.142,320.895Z" transform="translate(-171.486 -312.511)" fill="#c2c2c2"/></g><g transform="translate(44.112 277.378)"><circle cx="8.384" cy="8.384" r="8.384" transform="translate(0 0)" fill="#292929"/><circle cx="5.246" cy="5.246" r="5.246" transform="translate(0.965 8.384) rotate(-45)" fill="#c2c2c2"/><circle cx="4.658" cy="4.658" r="4.658" transform="translate(3.726 3.726)" fill="#656565"/><circle cx="3.655" cy="3.655" r="3.655" transform="translate(4.729 4.729)" fill="#888"/><path d="M71.885,320.347a1.814,1.814,0,1,1-1.813-1.813A1.814,1.814,0,0,1,71.885,320.347Z" transform="translate(-61.688 -311.964)" fill="#656565"/><path d="M71.891,320.895a1.272,1.272,0,1,1-1.272-1.272A1.272,1.272,0,0,1,71.891,320.895Z" transform="translate(-62.235 -312.511)" fill="#c2c2c2"/></g><g transform="translate(48.811 263.936)"><path d="M64.5,281.754l1.948-3.444h1.341v4.359h-2.6Z" transform="translate(-64.497 -278.31)" fill="#292929"/><rect width="1.212" height="4.359" transform="translate(3.289)" fill="#323232"/></g><g transform="translate(71.07 258.657)"><rect width="3.115" height="1.869" transform="translate(0 1.594) rotate(-30.778)" fill="#fff"/><path d="M109.236,269.293l1.817.006.86-1.6.956,1.606-2.677,1.594Z" transform="translate(-109.236 -267.699)" fill="#d1d1d1"/></g><g transform="translate(79.71 277.378)"><rect width="3.739" height="2.243" transform="translate(1.454) rotate(40.39)" fill="#fff"/><path d="M128.056,305.328l.7,2.066,2.151.357-1.454,1.709-2.848-2.423Z" transform="translate(-126.602 -305.328)" fill="#d1d1d1"/></g><g transform="translate(81.705 257.466)"><rect width="2.866" height="1.719" transform="translate(0.558 0.183) rotate(12.59)" fill="#fff"/><path d="M131.354,265.674l1.211,1.151,1.586-.527-.375,1.678-2.8-.625Z" transform="translate(-130.796 -265.492)" fill="#d1d1d1"/><rect width="0.153" height="0.246" transform="translate(0.408 0.149) rotate(12.595)" fill="#0d68be"/><rect width="0.153" height="0.246" transform="translate(0.355 0.389) rotate(12.595)" fill="#e84c3d"/><rect width="0.153" height="0.246" transform="translate(0.301 0.629) rotate(12.577)" fill="#0d68be"/><rect width="0.153" height="0.246" transform="translate(0.248 0.869) rotate(12.6)" fill="#e84c3d"/><rect width="0.153" height="0.246" transform="translate(0.194 1.108) rotate(12.582)" fill="#0d68be"/><rect width="0.153" height="0.246" transform="translate(0.087 1.588) rotate(12.581)" fill="#0d68be"/><rect width="0.153" height="0.246" transform="translate(0.14 1.348) rotate(12.6)" fill="#e84c3d"/><rect width="0.153" height="0.246" transform="translate(3.354 0.807) rotate(12.577)" fill="#0d68be"/><rect width="0.153" height="0.246" transform="matrix(0.976, 0.218, -0.218, 0.976, 3.301, 1.047)" fill="#e84c3d"/><rect width="0.153" height="0.246" transform="translate(3.247 1.287) rotate(12.581)" fill="#0d68be"/><rect width="0.153" height="0.246" transform="translate(3.194 1.527) rotate(12.6)" fill="#e84c3d"/><rect width="0.153" height="0.246" transform="translate(3.14 1.766) rotate(12.6)" fill="#0d68be"/><rect width="0.153" height="0.246" transform="translate(3.033 2.246) rotate(12.595)" fill="#0d68be"/><rect width="0.153" height="0.246" transform="translate(3.087 2.006) rotate(12.581)" fill="#e84c3d"/><rect width="0.153" height="0.244" transform="translate(1.7 2.2) rotate(102.577)" fill="#0d68be"/><rect width="0.153" height="0.244" transform="translate(1.462 2.147) rotate(102.595)" fill="#e84c3d"/><rect width="0.153" height="0.244" transform="translate(1.224 2.093) rotate(102.595)" fill="#0d68be"/><rect width="0.153" height="0.244" transform="translate(0.986 2.04) rotate(102.577)" fill="#e84c3d"/><rect width="0.153" height="0.244" transform="translate(0.748 1.987) rotate(102.581)" fill="#0d68be"/><rect width="0.153" height="0.244" transform="translate(0.271 1.881) rotate(102.6)" fill="#0d68be"/><rect width="0.153" height="0.244" transform="translate(0.51 1.934) rotate(102.6)" fill="#e84c3d"/><rect width="0.153" height="0.244" transform="translate(3.129 2.519) rotate(102.6)" fill="#0d68be"/><rect width="0.153" height="0.244" transform="translate(2.891 2.466) rotate(102.581)" fill="#e84c3d"/><rect width="0.153" height="0.244" transform="translate(2.653 2.413) rotate(102.581)" fill="#0d68be"/><rect width="0.153" height="0.244" transform="translate(2.415 2.359) rotate(102.6)" fill="#e84c3d"/><rect width="0.153" height="0.244" transform="translate(2.177 2.306) rotate(102.595)" fill="#0d68be"/><rect width="0.153" height="0.244" transform="translate(1.938 2.253) rotate(102.577)" fill="#e84c3d"/><rect width="0.153" height="0.244" transform="translate(2.108 0.372) rotate(102.6)" fill="#0d68be"/><rect width="0.153" height="0.244" transform="translate(1.87 0.319) rotate(102.581)" fill="#e84c3d"/><rect width="0.153" height="0.244" transform="translate(1.632 0.266) rotate(102.577)" fill="#0d68be"/><rect width="0.153" height="0.244" transform="translate(1.394 0.213) rotate(102.597)" fill="#e84c3d"/><rect width="0.153" height="0.244" transform="translate(1.156 0.16) rotate(102.595)" fill="#0d68be"/><rect width="0.153" height="0.244" transform="translate(0.68 0.053) rotate(102.594)" fill="#0d68be"/><rect width="0.153" height="0.244" transform="translate(0.918 0.106) rotate(102.577)" fill="#e84c3d"/><rect width="0.153" height="0.244" transform="translate(3.537 0.691) rotate(102.577)" fill="#0d68be"/><rect width="0.153" height="0.244" transform="translate(3.299 0.638) rotate(102.597)" fill="#e84c3d"/><rect width="0.153" height="0.244" transform="translate(3.061 0.585) rotate(102.6)" fill="#0d68be"/><rect width="0.153" height="0.244" transform="translate(2.823 0.532) rotate(102.581)" fill="#e84c3d"/><rect width="0.153" height="0.244" transform="translate(2.585 0.479) rotate(102.581)" fill="#0d68be"/><rect width="0.153" height="0.244" transform="translate(2.347 0.426) rotate(102.6)" fill="#e84c3d"/></g><g transform="translate(71.08 270.532)"><rect width="3.22" height="1.932" transform="translate(0.22 1.301) rotate(-19.622)" fill="#fff"/><path d="M109.7,293.092l1.841.369,1.192-1.451.649,1.82-3.033,1.081Z" transform="translate(-109.48 -291.791)" fill="#d1d1d1"/><rect width="0.172" height="0.276" transform="translate(0.058 1.359) rotate(-19.619)" fill="#0d68be"/><rect width="0.172" height="0.276" transform="matrix(0.942, -0.336, 0.336, 0.942, 0.15, 1.619)" fill="#e84c3d"/><rect width="0.172" height="0.276" transform="matrix(0.942, -0.336, 0.336, 0.942, 0.243, 1.879)" fill="#0d68be"/><rect width="0.172" height="0.276" transform="matrix(0.942, -0.336, 0.336, 0.942, 0.336, 2.139)" fill="#e84c3d"/><rect width="0.172" height="0.276" transform="translate(0.429 2.399) rotate(-19.619)" fill="#0d68be"/><rect width="0.172" height="0.276" transform="matrix(0.942, -0.336, 0.336, 0.942, 0.614, 2.919)" fill="#0d68be"/><rect width="0.172" height="0.276" transform="translate(0.521 2.659) rotate(-19.619)" fill="#e84c3d"/><rect width="0.172" height="0.276" transform="translate(3.253 0.22) rotate(-19.619)" fill="#0d68be"/><rect width="0.172" height="0.276" transform="translate(3.346 0.48) rotate(-19.625)" fill="#e84c3d"/><rect width="0.172" height="0.276" transform="matrix(0.942, -0.336, 0.336, 0.942, 3.439, 0.74)" fill="#0d68be"/><rect width="0.172" height="0.276" transform="matrix(0.942, -0.336, 0.336, 0.942, 3.531, 1)" fill="#e84c3d"/><rect width="0.172" height="0.276" transform="translate(3.624 1.26) rotate(-19.619)" fill="#0d68be"/><rect width="0.172" height="0.276" transform="matrix(0.942, -0.336, 0.336, 0.942, 3.809, 1.78)" fill="#0d68be"/><rect width="0.172" height="0.276" transform="translate(3.717 1.52) rotate(-19.619)" fill="#e84c3d"/><rect width="0.172" height="0.274" transform="translate(2.515 2.535) rotate(70.381)" fill="#0d68be"/><rect width="0.172" height="0.274" transform="matrix(0.336, 0.942, -0.942, 0.336, 2.256, 2.627)" fill="#e84c3d"/><rect width="0.172" height="0.274" transform="matrix(0.336, 0.942, -0.942, 0.336, 1.998, 2.719)" fill="#0d68be"/><rect width="0.172" height="0.274" transform="translate(1.74 2.811) rotate(70.381)" fill="#e84c3d"/><rect width="0.172" height="0.274" transform="matrix(0.336, 0.942, -0.942, 0.336, 1.481, 2.903)" fill="#0d68be"/><rect width="0.172" height="0.274" transform="translate(0.965 3.087) rotate(70.396)" fill="#0d68be"/><rect width="0.172" height="0.274" transform="translate(1.223 2.995) rotate(70.376)" fill="#e84c3d"/><rect width="0.172" height="0.274" transform="matrix(0.336, 0.942, -0.942, 0.336, 4.064, 1.982)" fill="#0d68be"/><rect width="0.172" height="0.274" transform="translate(3.806 2.074) rotate(70.376)" fill="#e84c3d"/><rect width="0.172" height="0.274" transform="translate(3.548 2.166) rotate(70.38)" fill="#0d68be"/><rect width="0.172" height="0.274" transform="translate(3.289 2.258) rotate(70.381)" fill="#e84c3d"/><rect width="0.172" height="0.274" transform="matrix(0.336, 0.942, -0.942, 0.336, 3.031, 2.35)" fill="#0d68be"/><rect width="0.172" height="0.274" transform="matrix(0.336, 0.942, -0.942, 0.336, 2.773, 2.442)" fill="#e84c3d"/><rect width="0.172" height="0.274" transform="translate(1.808 0.552) rotate(70.381)" fill="#0d68be"/><rect width="0.172" height="0.274" transform="translate(1.55 0.645) rotate(70.382)" fill="#e84c3d"/><rect width="0.172" height="0.274" transform="translate(1.291 0.737) rotate(70.374)" fill="#0d68be"/><rect width="0.172" height="0.274" transform="matrix(0.336, 0.942, -0.942, 0.336, 1.033, 0.829)" fill="#e84c3d"/><rect width="0.172" height="0.274" transform="translate(0.775 0.921) rotate(70.381)" fill="#0d68be"/><rect width="0.172" height="0.274" transform="matrix(0.336, 0.942, -0.942, 0.336, 0.258, 1.105)" fill="#0d68be"/><rect width="0.172" height="0.274" transform="matrix(0.336, 0.942, -0.942, 0.336, 0.517, 1.013)" fill="#e84c3d"/><rect width="0.172" height="0.274" transform="translate(3.358 0) rotate(70.381)" fill="#0d68be"/><rect width="0.172" height="0.274" transform="matrix(0.336, 0.942, -0.942, 0.336, 3.099, 0.092)" fill="#e84c3d"/><rect width="0.172" height="0.274" transform="matrix(0.336, 0.942, -0.942, 0.336, 2.841, 0.184)" fill="#0d68be"/><rect width="0.172" height="0.274" transform="translate(2.583 0.276) rotate(70.396)" fill="#e84c3d"/><rect width="0.172" height="0.274" transform="translate(2.324 0.368) rotate(70.391)" fill="#0d68be"/><rect width="0.172" height="0.274" transform="matrix(0.336, 0.942, -0.942, 0.336, 2.066, 0.46)" fill="#e84c3d"/></g><g transform="translate(75.895 263.669)"><path d="M119.963,299.435h0a.973.973,0,0,1,.97-.976l6.2-.018.006,1.946-6.2.018A.974.974,0,0,1,119.963,299.435Z" transform="translate(-119.452 -288.159)" fill="#0d68be"/><path d="M120.5,296.977h0a.973.973,0,0,1-.6-1.238l1.173-3.32a.974.974,0,0,1,1.237-.6h0a.974.974,0,0,1,.6,1.244l-1.17,3.31A.973.973,0,0,1,120.5,296.977Z" transform="translate(-119.392 -284.806)" fill="#ffcdba"/><path d="M122.832,292.752a.959.959,0,0,1-.051.314l-1.17,3.31a.969.969,0,0,1-1.758.165.971.971,0,0,0,1.888.33l1.17-3.31A.967.967,0,0,0,122.832,292.752Z" transform="translate(-119.396 -285.3)" fill="#fe9b7f"/><path d="M134.712,295.089h0a1.228,1.228,0,0,1-1.667.247l-2.413-2.564a1.23,1.23,0,0,1,.326-1.65h0a1.225,1.225,0,0,1,1.671-.243l2.406,2.556A1.229,1.229,0,0,1,134.712,295.089Z" transform="translate(-124.71 -284.24)" fill="#fe9b7f"/><path d="M5.133,0h.38a0,0,0,0,1,0,0V5.133a0,0,0,0,1,0,0H0a0,0,0,0,1,0,0v0A5.133,5.133,0,0,1,5.133,0Z" transform="translate(6.281 7.092)" fill="#33aeff"/><path d="M126.275,278.033h0a1.657,1.657,0,0,1,2.287.509l1.363,2.145-2.8,1.777-1.363-2.145A1.657,1.657,0,0,1,126.275,278.033Z" transform="translate(-122.237 -277.774)" fill="#a76531"/><path d="M121.047,280.067h0a2.338,2.338,0,0,0-.719,3.227l1.219,1.918,3.945-2.508-1.219-1.918A2.338,2.338,0,0,0,121.047,280.067Z" transform="translate(-119.452 -278.743)" fill="#a76531"/><path d="M128.257,286.594h0a3.028,3.028,0,0,1-1.913,1.215h0a2.8,2.8,0,0,1-2.872-1.252l-1.71-2.691,4.871-3.1,1.71,2.691A2.8,2.8,0,0,1,128.257,286.594Z" transform="translate(-120.355 -279.28)" fill="#ffcdba"/><path d="M128.39,289.189a3.031,3.031,0,0,1-1.913,1.216,2.8,2.8,0,0,1-2.872-1.252l-1.584-2.492-.26.165,1.71,2.691a2.8,2.8,0,0,0,2.872,1.252,3.03,3.03,0,0,0,1.913-1.215h0a2.791,2.791,0,0,0,.409-.86A2.8,2.8,0,0,1,128.39,289.189Z" transform="translate(-120.355 -282.24)" fill="#fe9b7f"/><path d="M123.215,290.171l.085-.054-.828-1.3-.085.054a.771.771,0,0,0-.237,1.065h0A.771.771,0,0,0,123.215,290.171Z" transform="translate(-120.49 -283.322)" fill="#fe9b7f"/><path d="M133.623,283.665l-.085.054-.828-1.3.085-.054a.771.771,0,0,1,1.065.237h0A.772.772,0,0,1,133.623,283.665Z" transform="translate(-125.857 -280.019)" fill="#fe9b7f"/><path d="M123.806,281.676h0a.987.987,0,0,1,1.362.3l.275.432-1.666,1.059-.275-.432A.987.987,0,0,1,123.806,281.676Z" transform="translate(-121.152 -279.657)" fill="#7d4c25"/><path d="M127.115,280.657h0a.617.617,0,0,1,.852.19l.267.419-1.042.663-.267-.419A.617.617,0,0,1,127.115,280.657Z" transform="translate(-122.901 -279.174)" fill="#7d4c25"/><path d="M121.073,286.614l.168-.106a1.061,1.061,0,0,0,.326-1.463l-.263-.413-2.369,1.506h0A1.55,1.55,0,0,0,121.073,286.614Z" transform="translate(-118.935 -281.22)" fill="#a76531"/><path d="M131.21,281.442h0a.941.941,0,0,1-1.3-.29l-.257-.4,1.917-1.218.049.077A1.331,1.331,0,0,1,131.21,281.442Z" transform="translate(-124.321 -278.656)" fill="#a76531"/><line y1="0.544" x2="1.086" transform="translate(2.724 4.911)" fill="none" stroke="#7d4c25" stroke-linecap="round" stroke-miterlimit="10" stroke-width="0.54"/><path d="M129.539,284.515s.362-.716.862-.75" transform="translate(-124.263 -280.784)" fill="none" stroke="#7d4c25" stroke-linecap="round" stroke-miterlimit="10" stroke-width="0.54"/><g transform="translate(3.441 5.246)"><path d="M126.621,288.512a.418.418,0,1,1-.577-.129A.417.417,0,0,1,126.621,288.512Z" transform="translate(-125.851 -288.318)" fill="#7d4c25"/><path d="M126.188,288.859a.124.124,0,1,1-.172-.038A.125.125,0,0,1,126.188,288.859Z" transform="translate(-125.905 -288.561)" fill="#fff"/></g><g transform="translate(5.663 3.834)"><path d="M131.088,285.673a.418.418,0,1,1-.577-.128A.418.418,0,0,1,131.088,285.673Z" transform="translate(-130.317 -285.48)" fill="#7d4c25"/><path d="M130.654,286.02a.124.124,0,1,1-.172-.038A.125.125,0,0,1,130.654,286.02Z" transform="translate(-130.371 -285.722)" fill="#fff"/></g><rect width="0.559" height="1.284" transform="translate(4.611 4.833) rotate(-32.439)" fill="#fe9b7f"/><path d="M127.8,291.265a12.435,12.435,0,0,1,3.559-3" transform="translate(-123.387 -283.047)" fill="none" stroke="#558a2f" stroke-linecap="round" stroke-miterlimit="10" stroke-width="0.405"/><path d="M0,0H2.181a0,0,0,0,1,0,0V0A.521.521,0,0,1,1.66.521H.52A.52.52,0,0,1,0,0V0A0,0,0,0,1,0,0Z" transform="translate(4.876 6.745) rotate(-32.44)" fill="#fff"/><g transform="translate(7.801 4.27)"><path d="M134.654,287.4h0a.443.443,0,0,1,.222-.585l1.015-.455.362.807-1.015.456A.442.442,0,0,1,134.654,287.4Z" transform="translate(-134.615 -286.357)" fill="#871f20"/><path d="M134.654,287.685h0a.443.443,0,0,1,.222-.585l.207-.093a.885.885,0,0,1,1.17.445h0l-1.015.456A.442.442,0,0,1,134.654,287.685Z" transform="translate(-134.615 -286.644)" fill="#b5292a"/></g></g><g transform="translate(70.278 256.819)"><rect width="17.411" height="26.826" fill="#f0c419"/><g transform="translate(1.039 11.364)"><rect width="4.044" height="2.37" transform="translate(2.37 0) rotate(90)" opacity="0.2"/><rect width="4.044" height="1.341" transform="translate(2.37 0) rotate(90)" fill="#424242"/></g><path d="M124.434,266.4H109.369a.546.546,0,0,1-.546-.546h0a.547.547,0,0,1,.546-.546h15.065a.547.547,0,0,1,.546.546h0A.546.546,0,0,1,124.434,266.4Z" transform="translate(-108.237 -264.66)" fill="#fff" opacity="0.2"/><path d="M124.434,305.323H109.369a.547.547,0,0,1-.546-.546h0a.546.546,0,0,1,.546-.546h15.065a.546.546,0,0,1,.546.546h0A.547.547,0,0,1,124.434,305.323Z" transform="translate(-108.237 -284.218)" fill="#fff" opacity="0.2"/><rect width="17.411" height="0.594" transform="translate(0 18.802)" opacity="0.2"/><rect width="0.594" height="26.82" transform="translate(17.395 0.006)" opacity="0.2"/></g></g><g transform="translate(17.576 -313.438)"><rect width="15.249" height="16.721" transform="translate(67.132 395.642)" fill="#d9a78c"/><path d="M65.282,444.578s-14.5,2.12-16.64,4.351C46.778,450.871,42.9,469.471,42,473.553H74.756V445.366Z" transform="translate(0 -38.973)" fill="#c0d0d8"/><path d="M104.943,444.578s14.5,2.12,16.64,4.351c1.864,1.942,5.741,20.542,6.637,24.624H95.469V445.366Z" transform="translate(-20.713 -38.973)" fill="#a7bdc8"/><path d="M92.643,450.373l-1.929,19.858,2.913,5.493,2.914-5.493-1.929-19.858Z" transform="translate(-18.87 -41.218)" fill="#14a89a"/><path d="M96.427,448.457l-2.6,2.6-2.6-2.6,2.6-2.6Z" transform="translate(-19.067 -39.468)" fill="#14a89a"/><g transform="translate(74.756 347.797)"><path d="M95.469,350.211c7.4,0,19.113,4.208,19.113,23.931,0,11.388-3.713,18.848-5.33,20.912C107.763,396.953,99.4,401,95.469,401Z" transform="translate(-95.469 -350.211)" fill="#eac0a7"/><path d="M127.664,392.987c.326-3.151-1.175-5.948-3.353-6.247s-4.209,2.014-4.536,5.165,1.175,5.947,3.354,6.245S127.337,396.138,127.664,392.987Z" transform="translate(-104.868 -364.353)" fill="#eac0a7"/></g><g transform="translate(51.917 347.797)"><path d="M83.383,350.211c-7.4,0-19.113,4.208-19.113,23.931,0,11.388,3.712,18.848,5.33,20.912,1.489,1.9,9.856,5.944,13.783,5.944Z" transform="translate(-60.543 -350.211)" fill="#f2d7bc"/><path d="M58.23,392.987c-.327-3.151,1.175-5.948,3.353-6.247s4.209,2.014,4.536,5.165-1.175,5.947-3.353,6.245S58.556,396.138,58.23,392.987Z" transform="translate(-58.185 -364.353)" fill="#f2d7bc"/></g><path d="M89.367,443.9l-7.741-3.113-1.907,1.937,3.852,8.542Z" transform="translate(-14.611 -37.503)" fill="#fff"/><path d="M95.469,443.9l7.742-3.113,1.907,1.937-3.853,8.542Z" transform="translate(-20.712 -37.503)" fill="#fff"/><rect width="9.661" height="2.131" transform="translate(57.983 426.092)" fill="#7f97a3"/><rect width="9.661" height="2.131" transform="translate(81.876 426.092)" fill="#7f97a3"/><path d="M66.461,376.777h1.32s-.8-5.137,1.551-6.795v-3.317s-.909-.107-.909-4.013,4.654-6.688,14.606-6.688V343.98s-19.671,2.122-19.671,16.4V370.2a3.31,3.31,0,0,1,2.461.607C66.925,371.73,66.461,376.777,66.461,376.777Z" transform="translate(-8.272 0)" fill="#4b545a"/><path d="M111.732,376.777h-1.32s.8-5.137-1.552-6.795v-3.317s.91-.107.91-4.013-4.655-6.688-14.606-6.688V343.98s19.67,2.122,19.67,16.4V370.2a3.309,3.309,0,0,0-2.461.607C111.269,371.73,111.732,376.777,111.732,376.777Z" transform="translate(-20.595 0)" fill="#4b545a"/><path d="M91.518,417.642c3.451,0,6.248-1.14,6.248-2.546H85.27C85.27,416.5,88.067,417.642,91.518,417.642Z" transform="translate(-16.761 -27.551)" fill="#fff"/></g></g></g></g></svg>